SplineFontDB: 3.2
FontName: NV-Jost-Regular
FullName: NV Jost Regular
FamilyName: NV Jost
Weight: Regular
Copyright: Copyright 2020 The Jost Project Authors (https://github.com/indestructible-type/Jost)
Version: 3.710
ItalicAngle: 0
UnderlinePosition: -125
UnderlineWidth: 50
Ascent: 800
Descent: 200
InvalidEm: 0
sfntRevision: 0x0003b5c3
LayerCount: 2
Layer: 0 1 "Back" 1
Layer: 1 1 "Fore" 0
XUID: [1021 434 -963152094 3551]
StyleMap: 0x0040
FSType: 0
OS2Version: 4
OS2_WeightWidthSlopeOnly: 0
OS2_UseTypoMetrics: 1
CreationTime: 1465610489
ModificationTime: 1739040676
PfmFamily: 81
TTFWeight: 400
TTFWidth: 5
LineGap: 0
VLineGap: 0
Panose: 0 0 0 0 0 0 0 0 0 0
OS2TypoAscent: 948
OS2TypoAOffset: 0
OS2TypoDescent: -253
OS2TypoDOffset: 0
OS2TypoLinegap: 0
OS2WinAscent: 948
OS2WinAOffset: 0
OS2WinDescent: 253
OS2WinDOffset: 0
HheadAscent: 948
HheadAOffset: 0
HheadDescent: -253
HheadDOffset: 0
OS2SubXSize: 650
OS2SubYSize: 600
OS2SubXOff: 0
OS2SubYOff: 75
OS2SupXSize: 650
OS2SupYSize: 600
OS2SupXOff: 0
OS2SupYOff: 350
OS2StrikeYSize: 50
OS2StrikeYPos: 276
OS2CapHeight: 700
OS2XHeight: 460
OS2Vendor: 'it* '
OS2CodePages: 20000097.00000000
OS2UnicodeRanges: a00002ef.0000205b.00000010.00000000
Lookup: 1 0 0 "'ss01' Style Set 1 in Latin lookup 0" { "'ss01' Style Set 1 in Latin lookup 0 subtable"  } ['ss01' ('DFLT' <'dflt' > 'latn' <'dflt' > ) ]
Lookup: 1 0 0 "'tnum' Tabular Numbers lookup 1" { "'tnum' Tabular Numbers lookup 1 subtable"  } ['tnum' ('DFLT' <'dflt' > 'grek' <'dflt' > 'latn' <'dflt' > ) ]
Lookup: 258 0 0 "'kern' Horizontal Kerning in Latin lookup 0" { "'kern' Horizontal Kerning in Latin lookup 0 subtable"  } ['kern' ('DFLT' <'dflt' > 'latn' <'dflt' > ) ]
MarkAttachClasses: 1
DEI: 91125
KernClass2: 15+ 14 "'kern' Horizontal Kerning in Latin lookup 0 subtable"

StartChar: A
Encoding: 65 65 3
Width: 660
GlyphClass: 2
Flags: W
LayerCount: 2
Fore
SplineSet
147 210 m 1,0,-1
 517 210 l 1,1,-1
 487 290 l 1,2,-1
 177 290 l 1,3,-1
 147 210 l 1,0,-1
330 542 m 1,4,-1
 450 260 l 1,5,-1
 458 240 l 1,6,-1
 560 0 l 1,7,-1
 655 0 l 1,8,-1
 330 735 l 1,9,-1
 5 0 l 1,10,-1
 100 0 l 1,11,-1
 204 246 l 1,12,-1
 212 264 l 1,13,-1
 330 542 l 1,4,-1
EndSplineSet
EndChar

StartChar: Agrave
Encoding: 192 192 4
Width: 660
GlyphClass: 2
Flags: W
LayerCount: 2
Fore
SplineSet
147 210 m 1,0,-1
 517 210 l 1,1,-1
 487 290 l 1,2,-1
 177 290 l 1,3,-1
 147 210 l 1,0,-1
330 542 m 1,4,-1
 450 260 l 1,5,-1
 458 240 l 1,6,-1
 560 0 l 1,7,-1
 655 0 l 1,8,-1
 330 735 l 1,9,-1
 5 0 l 1,10,-1
 100 0 l 1,11,-1
 204 246 l 1,12,-1
 212 264 l 1,13,-1
 330 542 l 1,4,-1
200 945 m 1,14,-1
 380 795 l 1,15,-1
 425 825 l 1,16,-1
 275 985 l 1,17,-1
 200 945 l 1,14,-1
EndSplineSet
EndChar

StartChar: Aacute
Encoding: 193 193 5
Width: 660
GlyphClass: 2
Flags: W
LayerCount: 2
Fore
SplineSet
147 210 m 1,0,-1
 517 210 l 1,1,-1
 487 290 l 1,2,-1
 177 290 l 1,3,-1
 147 210 l 1,0,-1
330 542 m 1,4,-1
 450 260 l 1,5,-1
 458 240 l 1,6,-1
 560 0 l 1,7,-1
 655 0 l 1,8,-1
 330 735 l 1,9,-1
 5 0 l 1,10,-1
 100 0 l 1,11,-1
 204 246 l 1,12,-1
 212 264 l 1,13,-1
 330 542 l 1,4,-1
460 945 m 1,14,-1
 385 985 l 1,15,-1
 235 825 l 1,16,-1
 280 795 l 1,17,-1
 460 945 l 1,14,-1
EndSplineSet
EndChar

StartChar: Acircumflex
Encoding: 194 194 6
Width: 660
GlyphClass: 2
Flags: W
LayerCount: 2
Fore
SplineSet
147 210 m 1,0,-1
 517 210 l 1,1,-1
 487 290 l 1,2,-1
 177 290 l 1,3,-1
 147 210 l 1,0,-1
330 542 m 1,4,-1
 450 260 l 1,5,-1
 458 240 l 1,6,-1
 560 0 l 1,7,-1
 655 0 l 1,8,-1
 330 735 l 1,9,-1
 5 0 l 1,10,-1
 100 0 l 1,11,-1
 204 246 l 1,12,-1
 212 264 l 1,13,-1
 330 542 l 1,4,-1
330 850 m 1,14,-1
 440 755 l 1,15,-1
 490 795 l 1,16,-1
 330 935 l 1,17,-1
 170 795 l 1,18,-1
 220 755 l 1,19,-1
 330 850 l 1,14,-1
EndSplineSet
EndChar

StartChar: Atilde
Encoding: 195 195 7
Width: 660
GlyphClass: 2
Flags: W
LayerCount: 2
Fore
SplineSet
147 210 m 1,0,-1
 517 210 l 1,1,-1
 487 290 l 1,2,-1
 177 290 l 1,3,-1
 147 210 l 1,0,-1
330 542 m 1,4,-1
 450 260 l 1,5,-1
 458 240 l 1,6,-1
 560 0 l 1,7,-1
 655 0 l 1,8,-1
 330 735 l 1,9,-1
 5 0 l 1,10,-1
 100 0 l 1,11,-1
 204 246 l 1,12,-1
 212 264 l 1,13,-1
 330 542 l 1,4,-1
165 812 m 1,14,-1
 218 775 l 1,15,16
 218 783 218 783 222 795 c 128,-1,17
 226 807 226 807 237 816.5 c 128,-1,18
 248 826 248 826 268 826 c 0,19,20
 291 826 291 826 307.5 814.5 c 128,-1,21
 324 803 324 803 343 791 c 128,-1,22
 362 779 362 779 389 779 c 0,23,24
 414 779 414 779 435 789.5 c 128,-1,25
 456 800 456 800 471.5 817 c 128,-1,26
 487 834 487 834 495 852 c 1,27,-1
 449 895 l 1,28,29
 434 871 434 871 420.5 859 c 128,-1,30
 407 847 407 847 393 847 c 0,31,32
 373 847 373 847 360 854 c 128,-1,33
 347 861 347 861 335.5 870.5 c 128,-1,34
 324 880 324 880 308.5 887 c 128,-1,35
 293 894 293 894 269 894 c 0,36,37
 247 894 247 894 224.5 883.5 c 128,-1,38
 202 873 202 873 186 855 c 128,-1,39
 170 837 170 837 165 812 c 1,14,-1
EndSplineSet
EndChar

StartChar: Adieresis
Encoding: 196 196 8
Width: 660
GlyphClass: 2
Flags: W
LayerCount: 2
Fore
SplineSet
147 210 m 1,0,-1
 517 210 l 1,1,-1
 487 290 l 1,2,-1
 177 290 l 1,3,-1
 147 210 l 1,0,-1
330 542 m 1,4,-1
 450 260 l 1,5,-1
 458 240 l 1,6,-1
 560 0 l 1,7,-1
 655 0 l 1,8,-1
 330 735 l 1,9,-1
 5 0 l 1,10,-1
 100 0 l 1,11,-1
 204 246 l 1,12,-1
 212 264 l 1,13,-1
 330 542 l 1,4,-1
375 850 m 0,14,15
 375 828 375 828 391.5 811.5 c 128,-1,16
 408 795 408 795 430 795 c 0,17,18
 453 795 453 795 469 811.5 c 128,-1,19
 485 828 485 828 485 850 c 0,20,21
 485 873 485 873 469 889 c 128,-1,22
 453 905 453 905 430 905 c 0,23,24
 408 905 408 905 391.5 889 c 128,-1,25
 375 873 375 873 375 850 c 0,14,15
175 850 m 0,26,27
 175 828 175 828 191.5 811.5 c 128,-1,28
 208 795 208 795 230 795 c 0,29,30
 253 795 253 795 269 811.5 c 128,-1,31
 285 828 285 828 285 850 c 0,32,33
 285 873 285 873 269 889 c 128,-1,34
 253 905 253 905 230 905 c 0,35,36
 208 905 208 905 191.5 889 c 128,-1,37
 175 873 175 873 175 850 c 0,26,27
EndSplineSet
EndChar

StartChar: Aring
Encoding: 197 197 9
Width: 660
GlyphClass: 2
Flags: W
LayerCount: 2
Fore
SplineSet
147 210 m 1,0,-1
 517 210 l 1,1,-1
 487 290 l 1,2,-1
 177 290 l 1,3,-1
 147 210 l 1,0,-1
330 542 m 1,4,-1
 450 260 l 1,5,-1
 458 240 l 1,6,-1
 560 0 l 1,7,-1
 655 0 l 1,8,-1
 330 735 l 1,9,-1
 5 0 l 1,10,-1
 100 0 l 1,11,-1
 204 246 l 1,12,-1
 212 264 l 1,13,-1
 330 542 l 1,4,-1
228 798 m 256,14,15
 228 753 228 753 259.5 725.5 c 128,-1,16
 291 698 291 698 330 698 c 256,17,18
 369 698 369 698 400.5 725.5 c 128,-1,19
 432 753 432 753 432 798 c 256,20,21
 432 843 432 843 400.5 870.5 c 128,-1,22
 369 898 369 898 330 898 c 256,23,24
 291 898 291 898 259.5 870.5 c 128,-1,25
 228 843 228 843 228 798 c 256,14,15
279 798 m 256,26,27
 279 823 279 823 295 837 c 128,-1,28
 311 851 311 851 330 851 c 256,29,30
 349 851 349 851 365 837 c 128,-1,31
 381 823 381 823 381 798 c 256,32,33
 381 773 381 773 365 759 c 128,-1,34
 349 745 349 745 330 745 c 256,35,36
 311 745 311 745 295 759 c 128,-1,37
 279 773 279 773 279 798 c 256,26,27
EndSplineSet
EndChar

StartChar: Amacron
Encoding: 256 256 10
Width: 660
GlyphClass: 2
Flags: W
LayerCount: 2
Fore
SplineSet
147 210 m 1,0,-1
 517 210 l 1,1,-1
 487 290 l 1,2,-1
 177 290 l 1,3,-1
 147 210 l 1,0,-1
330 542 m 1,4,-1
 450 260 l 1,5,-1
 458 240 l 1,6,-1
 560 0 l 1,7,-1
 655 0 l 1,8,-1
 330 735 l 1,9,-1
 5 0 l 1,10,-1
 100 0 l 1,11,-1
 204 246 l 1,12,-1
 212 264 l 1,13,-1
 330 542 l 1,4,-1
155 795 m 1,14,-1
 505 795 l 1,15,-1
 505 870 l 1,16,-1
 155 870 l 1,17,-1
 155 795 l 1,14,-1
EndSplineSet
EndChar

StartChar: Abreve
Encoding: 258 258 11
Width: 660
GlyphClass: 2
Flags: W
LayerCount: 2
Fore
SplineSet
147 210 m 1,0,-1
 517 210 l 1,1,-1
 487 290 l 1,2,-1
 177 290 l 1,3,-1
 147 210 l 1,0,-1
330 542 m 1,4,-1
 450 260 l 1,5,-1
 458 240 l 1,6,-1
 560 0 l 1,7,-1
 655 0 l 1,8,-1
 330 735 l 1,9,-1
 5 0 l 1,10,-1
 100 0 l 1,11,-1
 204 246 l 1,12,-1
 212 264 l 1,13,-1
 330 542 l 1,4,-1
172 935 m 1,14,15
 172 901 172 901 189.5 868.5 c 128,-1,16
 207 836 207 836 242.5 815.5 c 128,-1,17
 278 795 278 795 330 795 c 0,18,19
 383 795 383 795 418 815.5 c 128,-1,20
 453 836 453 836 470.5 868.5 c 128,-1,21
 488 901 488 901 488 935 c 1,22,-1
 417 935 l 1,23,24
 417 922 417 922 410 904.5 c 128,-1,25
 403 887 403 887 384 873.5 c 128,-1,26
 365 860 365 860 330 860 c 256,27,28
 295 860 295 860 276 873.5 c 128,-1,29
 257 887 257 887 250 904.5 c 128,-1,30
 243 922 243 922 243 935 c 1,31,-1
 172 935 l 1,14,15
EndSplineSet
EndChar

StartChar: Aogonek
Encoding: 260 260 12
Width: 660
GlyphClass: 2
Flags: W
LayerCount: 2
Fore
SplineSet
147 210 m 1,0,-1
 517 210 l 1,1,-1
 487 290 l 1,2,-1
 177 290 l 1,3,-1
 147 210 l 1,0,-1
330 542 m 1,4,-1
 450 260 l 1,5,-1
 458 240 l 1,6,-1
 560 0 l 1,7,-1
 655 0 l 1,8,-1
 330 735 l 1,9,-1
 5 0 l 1,10,-1
 100 0 l 1,11,-1
 204 246 l 1,12,-1
 212 264 l 1,13,-1
 330 542 l 1,4,-1
660 -130 m 1,14,15
 650 -140 650 -140 640 -145 c 128,-1,16
 630 -150 630 -150 610 -150 c 0,17,18
 588 -150 588 -150 575 -138.5 c 128,-1,19
 562 -127 562 -127 562 -100 c 0,20,21
 562 -81 562 -81 574.5 -62.5 c 128,-1,22
 587 -44 587 -44 608 -27.5 c 128,-1,23
 629 -11 629 -11 655 0 c 1,24,-1
 614 25 l 1,25,26
 579 7 579 7 549 -15.5 c 128,-1,27
 519 -38 519 -38 500.5 -64 c 128,-1,28
 482 -90 482 -90 482 -120 c 0,29,30
 482 -149 482 -149 495.5 -172 c 128,-1,31
 509 -195 509 -195 536 -207.5 c 128,-1,32
 563 -220 563 -220 605 -220 c 0,33,34
 637 -220 637 -220 659.5 -207.5 c 128,-1,35
 682 -195 682 -195 693 -180 c 1,36,-1
 660 -130 l 1,14,15
EndSplineSet
EndChar

StartChar: B
Encoding: 66 66 13
Width: 558
GlyphClass: 2
Flags: W
LayerCount: 2
Fore
SplineSet
147 370 m 1,0,-1
 260 370 l 2,1,2
 323 370 323 370 369.5 388 c 128,-1,3
 416 406 416 406 442 441 c 128,-1,4
 468 476 468 476 468 525 c 0,5,6
 468 585 468 585 442 623.5 c 128,-1,7
 416 662 416 662 369.5 681 c 128,-1,8
 323 700 323 700 260 700 c 2,9,-1
 80 700 l 1,10,-1
 80 0 l 1,11,-1
 270 0 l 2,12,13
 338 0 338 0 391.5 22.5 c 128,-1,14
 445 45 445 45 476.5 90.5 c 128,-1,15
 508 136 508 136 508 205 c 0,16,17
 508 253 508 253 490 288 c 128,-1,18
 472 323 472 323 439.5 345.5 c 128,-1,19
 407 368 407 368 364 379 c 128,-1,20
 321 390 321 390 270 390 c 2,21,-1
 147 390 l 1,22,-1
 147 343 l 1,23,-1
 270 343 l 2,24,25
 304 343 304 343 332 334.5 c 128,-1,26
 360 326 360 326 380.5 309 c 128,-1,27
 401 292 401 292 412 267 c 128,-1,28
 423 242 423 242 423 210 c 0,29,30
 423 167 423 167 403.5 137 c 128,-1,31
 384 107 384 107 349.5 91 c 128,-1,32
 315 75 315 75 270 75 c 2,33,-1
 165 75 l 1,34,-1
 165 625 l 1,35,-1
 260 625 l 2,36,37
 313 625 313 625 348 597.5 c 128,-1,38
 383 570 383 570 383 520 c 0,39,40
 383 487 383 487 367 464 c 128,-1,41
 351 441 351 441 323 429 c 128,-1,42
 295 417 295 417 260 417 c 2,43,-1
 147 417 l 1,44,-1
 147 370 l 1,0,-1
EndSplineSet
EndChar

StartChar: C
Encoding: 67 67 14
Width: 685
GlyphClass: 2
Flags: W
LayerCount: 2
Fore
SplineSet
130 350 m 0,0,1
 130 432 130 432 166.5 493.5 c 128,-1,2
 203 555 203 555 262 590 c 128,-1,3
 321 625 321 625 390 625 c 0,4,5
 440 625 440 625 481.5 612 c 128,-1,6
 523 599 523 599 557 575.5 c 128,-1,7
 591 552 591 552 615 521 c 1,8,-1
 615 633 l 1,9,10
 571 672 571 672 519 691 c 128,-1,11
 467 710 467 710 390 710 c 0,12,13
 317 710 317 710 253.5 683.5 c 128,-1,14
 190 657 190 657 142 608.5 c 128,-1,15
 94 560 94 560 67 494 c 128,-1,16
 40 428 40 428 40 350 c 256,17,18
 40 272 40 272 67 206 c 128,-1,19
 94 140 94 140 142 91.5 c 128,-1,20
 190 43 190 43 253.5 16.5 c 128,-1,21
 317 -10 317 -10 390 -10 c 0,22,23
 467 -10 467 -10 519 9 c 128,-1,24
 571 28 571 28 615 67 c 1,25,-1
 615 179 l 1,26,27
 591 148 591 148 557 124.5 c 128,-1,28
 523 101 523 101 481.5 88 c 128,-1,29
 440 75 440 75 390 75 c 0,30,31
 321 75 321 75 262 110 c 128,-1,32
 203 145 203 145 166.5 207 c 128,-1,33
 130 269 130 269 130 350 c 0,0,1
EndSplineSet
EndChar

StartChar: Ccedilla
Encoding: 199 199 15
Width: 685
GlyphClass: 2
Flags: W
LayerCount: 2
Fore
SplineSet
130 350 m 0,0,1
 130 432 130 432 166.5 493.5 c 128,-1,2
 203 555 203 555 262 590 c 128,-1,3
 321 625 321 625 390 625 c 0,4,5
 440 625 440 625 481.5 612 c 128,-1,6
 523 599 523 599 557 575.5 c 128,-1,7
 591 552 591 552 615 521 c 1,8,-1
 615 633 l 1,9,10
 571 672 571 672 519 691 c 128,-1,11
 467 710 467 710 390 710 c 0,12,13
 317 710 317 710 253.5 683.5 c 128,-1,14
 190 657 190 657 142 608.5 c 128,-1,15
 94 560 94 560 67 494 c 128,-1,16
 40 428 40 428 40 350 c 256,17,18
 40 272 40 272 67 206 c 128,-1,19
 94 140 94 140 142 91.5 c 128,-1,20
 190 43 190 43 253.5 16.5 c 128,-1,21
 317 -10 317 -10 390 -10 c 0,22,23
 467 -10 467 -10 519 9 c 128,-1,24
 571 28 571 28 615 67 c 1,25,-1
 615 179 l 1,26,27
 591 148 591 148 557 124.5 c 128,-1,28
 523 101 523 101 481.5 88 c 128,-1,29
 440 75 440 75 390 75 c 0,30,31
 321 75 321 75 262 110 c 128,-1,32
 203 145 203 145 166.5 207 c 128,-1,33
 130 269 130 269 130 350 c 0,0,1
380 59 m 1,34,-1
 294 -109 l 1,35,36
 310 -98 310 -98 327.5 -94.5 c 128,-1,37
 345 -91 345 -91 352 -91 c 0,38,39
 378 -91 378 -91 390 -100 c 128,-1,40
 402 -109 402 -109 402 -127 c 256,41,42
 402 -145 402 -145 390 -156 c 128,-1,43
 378 -167 378 -167 352 -167 c 0,44,45
 333 -167 333 -167 321.5 -161 c 128,-1,46
 310 -155 310 -155 296 -143 c 1,47,-1
 262 -183 l 1,48,49
 283 -204 283 -204 303.5 -212.5 c 128,-1,50
 324 -221 324 -221 352 -221 c 256,51,52
 380 -221 380 -221 404 -210 c 128,-1,53
 428 -199 428 -199 443 -178 c 128,-1,54
 458 -157 458 -157 458 -127 c 0,55,56
 458 -102 458 -102 447 -86 c 128,-1,57
 436 -70 436 -70 419.5 -61.5 c 128,-1,58
 403 -53 403 -53 386 -53 c 0,59,60
 384 -53 384 -53 381.5 -53 c 128,-1,61
 379 -53 379 -53 377 -53 c 1,62,-1
 440 59 l 1,63,-1
 380 59 l 1,34,-1
EndSplineSet
EndChar

StartChar: Cacute
Encoding: 262 262 16
Width: 685
GlyphClass: 2
Flags: W
LayerCount: 2
Fore
SplineSet
130 350 m 0,0,1
 130 432 130 432 166.5 493.5 c 128,-1,2
 203 555 203 555 262 590 c 128,-1,3
 321 625 321 625 390 625 c 0,4,5
 440 625 440 625 481.5 612 c 128,-1,6
 523 599 523 599 557 575.5 c 128,-1,7
 591 552 591 552 615 521 c 1,8,-1
 615 633 l 1,9,10
 571 672 571 672 519 691 c 128,-1,11
 467 710 467 710 390 710 c 0,12,13
 317 710 317 710 253.5 683.5 c 128,-1,14
 190 657 190 657 142 608.5 c 128,-1,15
 94 560 94 560 67 494 c 128,-1,16
 40 428 40 428 40 350 c 256,17,18
 40 272 40 272 67 206 c 128,-1,19
 94 140 94 140 142 91.5 c 128,-1,20
 190 43 190 43 253.5 16.5 c 128,-1,21
 317 -10 317 -10 390 -10 c 0,22,23
 467 -10 467 -10 519 9 c 128,-1,24
 571 28 571 28 615 67 c 1,25,-1
 615 179 l 1,26,27
 591 148 591 148 557 124.5 c 128,-1,28
 523 101 523 101 481.5 88 c 128,-1,29
 440 75 440 75 390 75 c 0,30,31
 321 75 321 75 262 110 c 128,-1,32
 203 145 203 145 166.5 207 c 128,-1,33
 130 269 130 269 130 350 c 0,0,1
520 920 m 1,34,-1
 445 960 l 1,35,-1
 295 800 l 1,36,-1
 340 770 l 1,37,-1
 520 920 l 1,34,-1
EndSplineSet
EndChar

StartChar: Ccircumflex
Encoding: 264 264 17
Width: 685
GlyphClass: 2
Flags: W
LayerCount: 2
Fore
SplineSet
130 350 m 0,0,1
 130 432 130 432 166.5 493.5 c 128,-1,2
 203 555 203 555 262 590 c 128,-1,3
 321 625 321 625 390 625 c 0,4,5
 440 625 440 625 481.5 612 c 128,-1,6
 523 599 523 599 557 575.5 c 128,-1,7
 591 552 591 552 615 521 c 1,8,-1
 615 633 l 1,9,10
 571 672 571 672 519 691 c 128,-1,11
 467 710 467 710 390 710 c 0,12,13
 317 710 317 710 253.5 683.5 c 128,-1,14
 190 657 190 657 142 608.5 c 128,-1,15
 94 560 94 560 67 494 c 128,-1,16
 40 428 40 428 40 350 c 256,17,18
 40 272 40 272 67 206 c 128,-1,19
 94 140 94 140 142 91.5 c 128,-1,20
 190 43 190 43 253.5 16.5 c 128,-1,21
 317 -10 317 -10 390 -10 c 0,22,23
 467 -10 467 -10 519 9 c 128,-1,24
 571 28 571 28 615 67 c 1,25,-1
 615 179 l 1,26,27
 591 148 591 148 557 124.5 c 128,-1,28
 523 101 523 101 481.5 88 c 128,-1,29
 440 75 440 75 390 75 c 0,30,31
 321 75 321 75 262 110 c 128,-1,32
 203 145 203 145 166.5 207 c 128,-1,33
 130 269 130 269 130 350 c 0,0,1
390 865 m 1,34,-1
 500 770 l 1,35,-1
 550 810 l 1,36,-1
 390 950 l 1,37,-1
 230 810 l 1,38,-1
 280 770 l 1,39,-1
 390 865 l 1,34,-1
EndSplineSet
EndChar

StartChar: Cdotaccent
Encoding: 266 266 18
Width: 685
GlyphClass: 2
Flags: W
LayerCount: 2
Fore
SplineSet
130 350 m 0,0,1
 130 432 130 432 166.5 493.5 c 128,-1,2
 203 555 203 555 262 590 c 128,-1,3
 321 625 321 625 390 625 c 0,4,5
 440 625 440 625 481.5 612 c 128,-1,6
 523 599 523 599 557 575.5 c 128,-1,7
 591 552 591 552 615 521 c 1,8,-1
 615 633 l 1,9,10
 571 672 571 672 519 691 c 128,-1,11
 467 710 467 710 390 710 c 0,12,13
 317 710 317 710 253.5 683.5 c 128,-1,14
 190 657 190 657 142 608.5 c 128,-1,15
 94 560 94 560 67 494 c 128,-1,16
 40 428 40 428 40 350 c 256,17,18
 40 272 40 272 67 206 c 128,-1,19
 94 140 94 140 142 91.5 c 128,-1,20
 190 43 190 43 253.5 16.5 c 128,-1,21
 317 -10 317 -10 390 -10 c 0,22,23
 467 -10 467 -10 519 9 c 128,-1,24
 571 28 571 28 615 67 c 1,25,-1
 615 179 l 1,26,27
 591 148 591 148 557 124.5 c 128,-1,28
 523 101 523 101 481.5 88 c 128,-1,29
 440 75 440 75 390 75 c 0,30,31
 321 75 321 75 262 110 c 128,-1,32
 203 145 203 145 166.5 207 c 128,-1,33
 130 269 130 269 130 350 c 0,0,1
335 825 m 0,34,35
 335 803 335 803 351.5 786.5 c 128,-1,36
 368 770 368 770 390 770 c 0,37,38
 413 770 413 770 429 786.5 c 128,-1,39
 445 803 445 803 445 825 c 0,40,41
 445 848 445 848 429 864 c 128,-1,42
 413 880 413 880 390 880 c 0,43,44
 368 880 368 880 351.5 864 c 128,-1,45
 335 848 335 848 335 825 c 0,34,35
EndSplineSet
EndChar

StartChar: Ccaron
Encoding: 268 268 19
Width: 685
GlyphClass: 2
Flags: W
LayerCount: 2
Fore
SplineSet
130 350 m 0,0,1
 130 432 130 432 166.5 493.5 c 128,-1,2
 203 555 203 555 262 590 c 128,-1,3
 321 625 321 625 390 625 c 0,4,5
 440 625 440 625 481.5 612 c 128,-1,6
 523 599 523 599 557 575.5 c 128,-1,7
 591 552 591 552 615 521 c 1,8,-1
 615 633 l 1,9,10
 571 672 571 672 519 691 c 128,-1,11
 467 710 467 710 390 710 c 0,12,13
 317 710 317 710 253.5 683.5 c 128,-1,14
 190 657 190 657 142 608.5 c 128,-1,15
 94 560 94 560 67 494 c 128,-1,16
 40 428 40 428 40 350 c 256,17,18
 40 272 40 272 67 206 c 128,-1,19
 94 140 94 140 142 91.5 c 128,-1,20
 190 43 190 43 253.5 16.5 c 128,-1,21
 317 -10 317 -10 390 -10 c 0,22,23
 467 -10 467 -10 519 9 c 128,-1,24
 571 28 571 28 615 67 c 1,25,-1
 615 179 l 1,26,27
 591 148 591 148 557 124.5 c 128,-1,28
 523 101 523 101 481.5 88 c 128,-1,29
 440 75 440 75 390 75 c 0,30,31
 321 75 321 75 262 110 c 128,-1,32
 203 145 203 145 166.5 207 c 128,-1,33
 130 269 130 269 130 350 c 0,0,1
390 855 m 1,34,-1
 280 950 l 1,35,-1
 230 910 l 1,36,-1
 390 770 l 1,37,-1
 550 910 l 1,38,-1
 500 950 l 1,39,-1
 390 855 l 1,34,-1
EndSplineSet
EndChar

StartChar: D
Encoding: 68 68 20
Width: 680
GlyphClass: 2
Flags: W
LayerCount: 2
Fore
SplineSet
80 700 m 1,0,-1
 80 0 l 1,1,-1
 165 0 l 1,2,-1
 165 700 l 1,3,-1
 80 700 l 1,0,-1
290 0 m 2,4,5
 392 0 392 0 471 44 c 128,-1,6
 550 88 550 88 595 166.5 c 128,-1,7
 640 245 640 245 640 350 c 256,8,9
 640 455 640 455 595 533.5 c 128,-1,10
 550 612 550 612 471 656 c 128,-1,11
 392 700 392 700 290 700 c 2,12,-1
 127 700 l 1,13,-1
 127 615 l 1,14,-1
 290 615 l 2,15,16
 349 615 349 615 398 596.5 c 128,-1,17
 447 578 447 578 482 543.5 c 128,-1,18
 517 509 517 509 536 460 c 128,-1,19
 555 411 555 411 555 350 c 256,20,21
 555 289 555 289 536 240 c 128,-1,22
 517 191 517 191 482 156.5 c 128,-1,23
 447 122 447 122 398 103.5 c 128,-1,24
 349 85 349 85 290 85 c 2,25,-1
 127 85 l 1,26,-1
 127 0 l 1,27,-1
 290 0 l 2,4,5
EndSplineSet
EndChar

StartChar: Dcaron
Encoding: 270 270 21
Width: 680
GlyphClass: 2
Flags: W
LayerCount: 2
Fore
SplineSet
80 700 m 1,0,-1
 80 0 l 1,1,-1
 165 0 l 1,2,-1
 165 700 l 1,3,-1
 80 700 l 1,0,-1
290 0 m 2,4,5
 392 0 392 0 471 44 c 128,-1,6
 550 88 550 88 595 166.5 c 128,-1,7
 640 245 640 245 640 350 c 256,8,9
 640 455 640 455 595 533.5 c 128,-1,10
 550 612 550 612 471 656 c 128,-1,11
 392 700 392 700 290 700 c 2,12,-1
 127 700 l 1,13,-1
 127 615 l 1,14,-1
 290 615 l 2,15,16
 349 615 349 615 398 596.5 c 128,-1,17
 447 578 447 578 482 543.5 c 128,-1,18
 517 509 517 509 536 460 c 128,-1,19
 555 411 555 411 555 350 c 256,20,21
 555 289 555 289 536 240 c 128,-1,22
 517 191 517 191 482 156.5 c 128,-1,23
 447 122 447 122 398 103.5 c 128,-1,24
 349 85 349 85 290 85 c 2,25,-1
 127 85 l 1,26,-1
 127 0 l 1,27,-1
 290 0 l 2,4,5
330 855 m 1,28,-1
 220 950 l 1,29,-1
 170 910 l 1,30,-1
 330 770 l 1,31,-1
 490 910 l 1,32,-1
 440 950 l 1,33,-1
 330 855 l 1,28,-1
EndSplineSet
EndChar

StartChar: E
Encoding: 69 69 22
Width: 550
GlyphClass: 2
Flags: W
LayerCount: 2
Fore
SplineSet
127 0 m 1,0,-1
 480 0 l 1,1,-1
 480 80 l 1,2,-1
 127 80 l 1,3,-1
 127 0 l 1,0,-1
127 620 m 1,4,-1
 480 620 l 1,5,-1
 480 700 l 1,6,-1
 127 700 l 1,7,-1
 127 620 l 1,4,-1
127 340 m 1,8,-1
 460 340 l 1,9,-1
 460 420 l 1,10,-1
 127 420 l 1,11,-1
 127 340 l 1,8,-1
80 700 m 1,12,-1
 80 0 l 1,13,-1
 165 0 l 1,14,-1
 165 700 l 1,15,-1
 80 700 l 1,12,-1
EndSplineSet
EndChar

StartChar: Egrave
Encoding: 200 200 23
Width: 550
GlyphClass: 2
Flags: W
LayerCount: 2
Fore
SplineSet
127 0 m 1,0,-1
 480 0 l 1,1,-1
 480 80 l 1,2,-1
 127 80 l 1,3,-1
 127 0 l 1,0,-1
127 620 m 1,4,-1
 480 620 l 1,5,-1
 480 700 l 1,6,-1
 127 700 l 1,7,-1
 127 620 l 1,4,-1
127 340 m 1,8,-1
 460 340 l 1,9,-1
 460 420 l 1,10,-1
 127 420 l 1,11,-1
 127 340 l 1,8,-1
80 700 m 1,12,-1
 80 0 l 1,13,-1
 165 0 l 1,14,-1
 165 700 l 1,15,-1
 80 700 l 1,12,-1
150 920 m 1,16,-1
 330 770 l 1,17,-1
 375 800 l 1,18,-1
 225 960 l 1,19,-1
 150 920 l 1,16,-1
EndSplineSet
EndChar

StartChar: Eacute
Encoding: 201 201 24
Width: 550
GlyphClass: 2
Flags: W
LayerCount: 2
Fore
SplineSet
127 0 m 1,0,-1
 480 0 l 1,1,-1
 480 80 l 1,2,-1
 127 80 l 1,3,-1
 127 0 l 1,0,-1
127 620 m 1,4,-1
 480 620 l 1,5,-1
 480 700 l 1,6,-1
 127 700 l 1,7,-1
 127 620 l 1,4,-1
127 340 m 1,8,-1
 460 340 l 1,9,-1
 460 420 l 1,10,-1
 127 420 l 1,11,-1
 127 340 l 1,8,-1
80 700 m 1,12,-1
 80 0 l 1,13,-1
 165 0 l 1,14,-1
 165 700 l 1,15,-1
 80 700 l 1,12,-1
410 920 m 1,16,-1
 335 960 l 1,17,-1
 185 800 l 1,18,-1
 230 770 l 1,19,-1
 410 920 l 1,16,-1
EndSplineSet
EndChar

StartChar: Ecircumflex
Encoding: 202 202 25
Width: 550
GlyphClass: 2
Flags: W
LayerCount: 2
Fore
SplineSet
127 0 m 1,0,-1
 480 0 l 1,1,-1
 480 80 l 1,2,-1
 127 80 l 1,3,-1
 127 0 l 1,0,-1
127 620 m 1,4,-1
 480 620 l 1,5,-1
 480 700 l 1,6,-1
 127 700 l 1,7,-1
 127 620 l 1,4,-1
127 340 m 1,8,-1
 460 340 l 1,9,-1
 460 420 l 1,10,-1
 127 420 l 1,11,-1
 127 340 l 1,8,-1
80 700 m 1,12,-1
 80 0 l 1,13,-1
 165 0 l 1,14,-1
 165 700 l 1,15,-1
 80 700 l 1,12,-1
290 865 m 1,16,-1
 400 770 l 1,17,-1
 450 810 l 1,18,-1
 290 950 l 1,19,-1
 130 810 l 1,20,-1
 180 770 l 1,21,-1
 290 865 l 1,16,-1
EndSplineSet
EndChar

StartChar: Edieresis
Encoding: 203 203 26
Width: 550
GlyphClass: 2
Flags: W
LayerCount: 2
Fore
SplineSet
127 0 m 1,0,-1
 480 0 l 1,1,-1
 480 80 l 1,2,-1
 127 80 l 1,3,-1
 127 0 l 1,0,-1
127 620 m 1,4,-1
 480 620 l 1,5,-1
 480 700 l 1,6,-1
 127 700 l 1,7,-1
 127 620 l 1,4,-1
127 340 m 1,8,-1
 460 340 l 1,9,-1
 460 420 l 1,10,-1
 127 420 l 1,11,-1
 127 340 l 1,8,-1
80 700 m 1,12,-1
 80 0 l 1,13,-1
 165 0 l 1,14,-1
 165 700 l 1,15,-1
 80 700 l 1,12,-1
335 845 m 0,16,17
 335 823 335 823 351.5 806.5 c 128,-1,18
 368 790 368 790 390 790 c 0,19,20
 413 790 413 790 429 806.5 c 128,-1,21
 445 823 445 823 445 845 c 0,22,23
 445 868 445 868 429 884 c 128,-1,24
 413 900 413 900 390 900 c 0,25,26
 368 900 368 900 351.5 884 c 128,-1,27
 335 868 335 868 335 845 c 0,16,17
135 845 m 0,28,29
 135 823 135 823 151.5 806.5 c 128,-1,30
 168 790 168 790 190 790 c 0,31,32
 213 790 213 790 229 806.5 c 128,-1,33
 245 823 245 823 245 845 c 0,34,35
 245 868 245 868 229 884 c 128,-1,36
 213 900 213 900 190 900 c 0,37,38
 168 900 168 900 151.5 884 c 128,-1,39
 135 868 135 868 135 845 c 0,28,29
EndSplineSet
EndChar

StartChar: Emacron
Encoding: 274 274 27
Width: 550
GlyphClass: 2
Flags: W
LayerCount: 2
Fore
SplineSet
127 0 m 1,0,-1
 480 0 l 1,1,-1
 480 80 l 1,2,-1
 127 80 l 1,3,-1
 127 0 l 1,0,-1
127 620 m 1,4,-1
 480 620 l 1,5,-1
 480 700 l 1,6,-1
 127 700 l 1,7,-1
 127 620 l 1,4,-1
127 340 m 1,8,-1
 460 340 l 1,9,-1
 460 420 l 1,10,-1
 127 420 l 1,11,-1
 127 340 l 1,8,-1
80 700 m 1,12,-1
 80 0 l 1,13,-1
 165 0 l 1,14,-1
 165 700 l 1,15,-1
 80 700 l 1,12,-1
105 770 m 1,16,-1
 455 770 l 1,17,-1
 455 845 l 1,18,-1
 105 845 l 1,19,-1
 105 770 l 1,16,-1
EndSplineSet
EndChar

StartChar: Ebreve
Encoding: 276 276 28
Width: 550
GlyphClass: 2
Flags: W
LayerCount: 2
Fore
SplineSet
127 0 m 1,0,-1
 480 0 l 1,1,-1
 480 80 l 1,2,-1
 127 80 l 1,3,-1
 127 0 l 1,0,-1
127 620 m 1,4,-1
 480 620 l 1,5,-1
 480 700 l 1,6,-1
 127 700 l 1,7,-1
 127 620 l 1,4,-1
127 340 m 1,8,-1
 460 340 l 1,9,-1
 460 420 l 1,10,-1
 127 420 l 1,11,-1
 127 340 l 1,8,-1
80 700 m 1,12,-1
 80 0 l 1,13,-1
 165 0 l 1,14,-1
 165 700 l 1,15,-1
 80 700 l 1,12,-1
122 910 m 1,16,17
 122 876 122 876 139.5 843.5 c 128,-1,18
 157 811 157 811 192.5 790.5 c 128,-1,19
 228 770 228 770 280 770 c 0,20,21
 333 770 333 770 368 790.5 c 128,-1,22
 403 811 403 811 420.5 843.5 c 128,-1,23
 438 876 438 876 438 910 c 1,24,-1
 367 910 l 1,25,26
 367 897 367 897 360 879.5 c 128,-1,27
 353 862 353 862 334 848.5 c 128,-1,28
 315 835 315 835 280 835 c 256,29,30
 245 835 245 835 226 848.5 c 128,-1,31
 207 862 207 862 200 879.5 c 128,-1,32
 193 897 193 897 193 910 c 1,33,-1
 122 910 l 1,16,17
EndSplineSet
EndChar

StartChar: Edotaccent
Encoding: 278 278 29
Width: 550
GlyphClass: 2
Flags: W
LayerCount: 2
Fore
SplineSet
127 0 m 1,0,-1
 480 0 l 1,1,-1
 480 80 l 1,2,-1
 127 80 l 1,3,-1
 127 0 l 1,0,-1
127 620 m 1,4,-1
 480 620 l 1,5,-1
 480 700 l 1,6,-1
 127 700 l 1,7,-1
 127 620 l 1,4,-1
127 340 m 1,8,-1
 460 340 l 1,9,-1
 460 420 l 1,10,-1
 127 420 l 1,11,-1
 127 340 l 1,8,-1
80 700 m 1,12,-1
 80 0 l 1,13,-1
 165 0 l 1,14,-1
 165 700 l 1,15,-1
 80 700 l 1,12,-1
225 825 m 0,16,17
 225 803 225 803 241.5 786.5 c 128,-1,18
 258 770 258 770 280 770 c 0,19,20
 303 770 303 770 319 786.5 c 128,-1,21
 335 803 335 803 335 825 c 0,22,23
 335 848 335 848 319 864 c 128,-1,24
 303 880 303 880 280 880 c 0,25,26
 258 880 258 880 241.5 864 c 128,-1,27
 225 848 225 848 225 825 c 0,16,17
EndSplineSet
EndChar

StartChar: Eogonek
Encoding: 280 280 30
Width: 550
GlyphClass: 2
Flags: W
LayerCount: 2
Fore
SplineSet
127 0 m 1,0,-1
 480 0 l 1,1,-1
 480 80 l 1,2,-1
 127 80 l 1,3,-1
 127 0 l 1,0,-1
127 620 m 1,4,-1
 480 620 l 1,5,-1
 480 700 l 1,6,-1
 127 700 l 1,7,-1
 127 620 l 1,4,-1
127 340 m 1,8,-1
 460 340 l 1,9,-1
 460 420 l 1,10,-1
 127 420 l 1,11,-1
 127 340 l 1,8,-1
80 700 m 1,12,-1
 80 0 l 1,13,-1
 165 0 l 1,14,-1
 165 700 l 1,15,-1
 80 700 l 1,12,-1
365 -130 m 1,16,17
 355 -140 355 -140 345 -145 c 128,-1,18
 335 -150 335 -150 315 -150 c 0,19,20
 293 -150 293 -150 280 -138.5 c 128,-1,21
 267 -127 267 -127 267 -100 c 0,22,23
 267 -81 267 -81 279.5 -62.5 c 128,-1,24
 292 -44 292 -44 313 -27.5 c 128,-1,25
 334 -11 334 -11 360 0 c 1,26,-1
 319 25 l 1,27,28
 284 7 284 7 254 -15.5 c 128,-1,29
 224 -38 224 -38 205.5 -64 c 128,-1,30
 187 -90 187 -90 187 -120 c 0,31,32
 187 -149 187 -149 200.5 -172 c 128,-1,33
 214 -195 214 -195 241 -207.5 c 128,-1,34
 268 -220 268 -220 310 -220 c 0,35,36
 342 -220 342 -220 364.5 -207.5 c 128,-1,37
 387 -195 387 -195 398 -180 c 1,38,-1
 365 -130 l 1,16,17
EndSplineSet
EndChar

StartChar: Ecaron
Encoding: 282 282 31
Width: 550
GlyphClass: 2
Flags: W
LayerCount: 2
Fore
SplineSet
127 0 m 1,0,-1
 480 0 l 1,1,-1
 480 80 l 1,2,-1
 127 80 l 1,3,-1
 127 0 l 1,0,-1
127 620 m 1,4,-1
 480 620 l 1,5,-1
 480 700 l 1,6,-1
 127 700 l 1,7,-1
 127 620 l 1,4,-1
127 340 m 1,8,-1
 460 340 l 1,9,-1
 460 420 l 1,10,-1
 127 420 l 1,11,-1
 127 340 l 1,8,-1
80 700 m 1,12,-1
 80 0 l 1,13,-1
 165 0 l 1,14,-1
 165 700 l 1,15,-1
 80 700 l 1,12,-1
280 855 m 1,16,-1
 170 950 l 1,17,-1
 120 910 l 1,18,-1
 280 770 l 1,19,-1
 440 910 l 1,20,-1
 390 950 l 1,21,-1
 280 855 l 1,16,-1
EndSplineSet
EndChar

StartChar: F
Encoding: 70 70 32
Width: 500
GlyphClass: 2
Flags: W
LayerCount: 2
Fore
SplineSet
127 620 m 1,0,-1
 440 620 l 1,1,-1
 440 700 l 1,2,-1
 127 700 l 1,3,-1
 127 620 l 1,0,-1
127 340 m 1,4,-1
 430 340 l 1,5,-1
 430 420 l 1,6,-1
 127 420 l 1,7,-1
 127 340 l 1,4,-1
80 700 m 1,8,-1
 80 0 l 1,9,-1
 165 0 l 1,10,-1
 165 700 l 1,11,-1
 80 700 l 1,8,-1
EndSplineSet
EndChar

StartChar: G
Encoding: 71 71 33
Width: 775
GlyphClass: 2
Flags: W
LayerCount: 2
Fore
SplineSet
405 275 m 1,0,-1
 638 275 l 1,1,2
 629 234 629 234 609.5 198 c 128,-1,3
 590 162 590 162 560 134 c 128,-1,4
 530 106 530 106 488.5 90.5 c 128,-1,5
 447 75 447 75 395 75 c 0,6,7
 321 75 321 75 261 110 c 128,-1,8
 201 145 201 145 165.5 207 c 128,-1,9
 130 269 130 269 130 350 c 0,10,11
 130 432 130 432 165.5 493.5 c 128,-1,12
 201 555 201 555 261 590 c 128,-1,13
 321 625 321 625 395 625 c 0,14,15
 475 625 475 625 534 593.5 c 128,-1,16
 593 562 593 562 626 506 c 1,17,-1
 686 561 l 1,18,19
 656 610 656 610 612.5 643 c 128,-1,20
 569 676 569 676 514.5 693 c 128,-1,21
 460 710 460 710 395 710 c 0,22,23
 319 710 319 710 254 683.5 c 128,-1,24
 189 657 189 657 141 608.5 c 128,-1,25
 93 560 93 560 66.5 494 c 128,-1,26
 40 428 40 428 40 350 c 256,27,28
 40 272 40 272 66.5 206 c 128,-1,29
 93 140 93 140 141 91.5 c 128,-1,30
 189 43 189 43 254 16.5 c 128,-1,31
 319 -10 319 -10 395 -10 c 0,32,33
 475 -10 475 -10 537.5 19.5 c 128,-1,34
 600 49 600 49 643 100 c 128,-1,35
 686 151 686 151 708 216.5 c 128,-1,36
 730 282 730 282 730 355 c 1,37,-1
 405 355 l 1,38,-1
 405 275 l 1,0,-1
EndSplineSet
EndChar

StartChar: Gcircumflex
Encoding: 284 284 34
Width: 775
GlyphClass: 2
Flags: W
LayerCount: 2
Fore
SplineSet
405 275 m 1,0,-1
 638 275 l 1,1,2
 629 234 629 234 609.5 198 c 128,-1,3
 590 162 590 162 560 134 c 128,-1,4
 530 106 530 106 488.5 90.5 c 128,-1,5
 447 75 447 75 395 75 c 0,6,7
 321 75 321 75 261 110 c 128,-1,8
 201 145 201 145 165.5 207 c 128,-1,9
 130 269 130 269 130 350 c 0,10,11
 130 432 130 432 165.5 493.5 c 128,-1,12
 201 555 201 555 261 590 c 128,-1,13
 321 625 321 625 395 625 c 0,14,15
 475 625 475 625 534 593.5 c 128,-1,16
 593 562 593 562 626 506 c 1,17,-1
 686 561 l 1,18,19
 656 610 656 610 612.5 643 c 128,-1,20
 569 676 569 676 514.5 693 c 128,-1,21
 460 710 460 710 395 710 c 0,22,23
 319 710 319 710 254 683.5 c 128,-1,24
 189 657 189 657 141 608.5 c 128,-1,25
 93 560 93 560 66.5 494 c 128,-1,26
 40 428 40 428 40 350 c 256,27,28
 40 272 40 272 66.5 206 c 128,-1,29
 93 140 93 140 141 91.5 c 128,-1,30
 189 43 189 43 254 16.5 c 128,-1,31
 319 -10 319 -10 395 -10 c 0,32,33
 475 -10 475 -10 537.5 19.5 c 128,-1,34
 600 49 600 49 643 100 c 128,-1,35
 686 151 686 151 708 216.5 c 128,-1,36
 730 282 730 282 730 355 c 1,37,-1
 405 355 l 1,38,-1
 405 275 l 1,0,-1
395 865 m 1,39,-1
 505 770 l 1,40,-1
 555 810 l 1,41,-1
 395 950 l 1,42,-1
 235 810 l 1,43,-1
 285 770 l 1,44,-1
 395 865 l 1,39,-1
EndSplineSet
EndChar

StartChar: Gbreve
Encoding: 286 286 35
Width: 775
GlyphClass: 2
Flags: W
LayerCount: 2
Fore
SplineSet
405 275 m 1,0,-1
 638 275 l 1,1,2
 629 234 629 234 609.5 198 c 128,-1,3
 590 162 590 162 560 134 c 128,-1,4
 530 106 530 106 488.5 90.5 c 128,-1,5
 447 75 447 75 395 75 c 0,6,7
 321 75 321 75 261 110 c 128,-1,8
 201 145 201 145 165.5 207 c 128,-1,9
 130 269 130 269 130 350 c 0,10,11
 130 432 130 432 165.5 493.5 c 128,-1,12
 201 555 201 555 261 590 c 128,-1,13
 321 625 321 625 395 625 c 0,14,15
 475 625 475 625 534 593.5 c 128,-1,16
 593 562 593 562 626 506 c 1,17,-1
 686 561 l 1,18,19
 656 610 656 610 612.5 643 c 128,-1,20
 569 676 569 676 514.5 693 c 128,-1,21
 460 710 460 710 395 710 c 0,22,23
 319 710 319 710 254 683.5 c 128,-1,24
 189 657 189 657 141 608.5 c 128,-1,25
 93 560 93 560 66.5 494 c 128,-1,26
 40 428 40 428 40 350 c 256,27,28
 40 272 40 272 66.5 206 c 128,-1,29
 93 140 93 140 141 91.5 c 128,-1,30
 189 43 189 43 254 16.5 c 128,-1,31
 319 -10 319 -10 395 -10 c 0,32,33
 475 -10 475 -10 537.5 19.5 c 128,-1,34
 600 49 600 49 643 100 c 128,-1,35
 686 151 686 151 708 216.5 c 128,-1,36
 730 282 730 282 730 355 c 1,37,-1
 405 355 l 1,38,-1
 405 275 l 1,0,-1
237 910 m 1,39,40
 237 876 237 876 254.5 843.5 c 128,-1,41
 272 811 272 811 307.5 790.5 c 128,-1,42
 343 770 343 770 395 770 c 0,43,44
 448 770 448 770 483 790.5 c 128,-1,45
 518 811 518 811 535.5 843.5 c 128,-1,46
 553 876 553 876 553 910 c 1,47,-1
 482 910 l 1,48,49
 482 897 482 897 475 879.5 c 128,-1,50
 468 862 468 862 449 848.5 c 128,-1,51
 430 835 430 835 395 835 c 256,52,53
 360 835 360 835 341 848.5 c 128,-1,54
 322 862 322 862 315 879.5 c 128,-1,55
 308 897 308 897 308 910 c 1,56,-1
 237 910 l 1,39,40
EndSplineSet
EndChar

StartChar: Gdotaccent
Encoding: 288 288 36
Width: 775
GlyphClass: 2
Flags: W
LayerCount: 2
Fore
SplineSet
405 275 m 1,0,-1
 638 275 l 1,1,2
 629 234 629 234 609.5 198 c 128,-1,3
 590 162 590 162 560 134 c 128,-1,4
 530 106 530 106 488.5 90.5 c 128,-1,5
 447 75 447 75 395 75 c 0,6,7
 321 75 321 75 261 110 c 128,-1,8
 201 145 201 145 165.5 207 c 128,-1,9
 130 269 130 269 130 350 c 0,10,11
 130 432 130 432 165.5 493.5 c 128,-1,12
 201 555 201 555 261 590 c 128,-1,13
 321 625 321 625 395 625 c 0,14,15
 475 625 475 625 534 593.5 c 128,-1,16
 593 562 593 562 626 506 c 1,17,-1
 686 561 l 1,18,19
 656 610 656 610 612.5 643 c 128,-1,20
 569 676 569 676 514.5 693 c 128,-1,21
 460 710 460 710 395 710 c 0,22,23
 319 710 319 710 254 683.5 c 128,-1,24
 189 657 189 657 141 608.5 c 128,-1,25
 93 560 93 560 66.5 494 c 128,-1,26
 40 428 40 428 40 350 c 256,27,28
 40 272 40 272 66.5 206 c 128,-1,29
 93 140 93 140 141 91.5 c 128,-1,30
 189 43 189 43 254 16.5 c 128,-1,31
 319 -10 319 -10 395 -10 c 0,32,33
 475 -10 475 -10 537.5 19.5 c 128,-1,34
 600 49 600 49 643 100 c 128,-1,35
 686 151 686 151 708 216.5 c 128,-1,36
 730 282 730 282 730 355 c 1,37,-1
 405 355 l 1,38,-1
 405 275 l 1,0,-1
340 825 m 0,39,40
 340 803 340 803 356.5 786.5 c 128,-1,41
 373 770 373 770 395 770 c 0,42,43
 418 770 418 770 434 786.5 c 128,-1,44
 450 803 450 803 450 825 c 0,45,46
 450 848 450 848 434 864 c 128,-1,47
 418 880 418 880 395 880 c 0,48,49
 373 880 373 880 356.5 864 c 128,-1,50
 340 848 340 848 340 825 c 0,39,40
EndSplineSet
EndChar

StartChar: uni0122
Encoding: 290 290 37
Width: 775
GlyphClass: 2
Flags: W
LayerCount: 2
Fore
SplineSet
405 275 m 1,0,-1
 638 275 l 1,1,2
 629 234 629 234 609.5 198 c 128,-1,3
 590 162 590 162 560 134 c 128,-1,4
 530 106 530 106 488.5 90.5 c 128,-1,5
 447 75 447 75 395 75 c 0,6,7
 321 75 321 75 261 110 c 128,-1,8
 201 145 201 145 165.5 207 c 128,-1,9
 130 269 130 269 130 350 c 0,10,11
 130 432 130 432 165.5 493.5 c 128,-1,12
 201 555 201 555 261 590 c 128,-1,13
 321 625 321 625 395 625 c 0,14,15
 475 625 475 625 534 593.5 c 128,-1,16
 593 562 593 562 626 506 c 1,17,-1
 686 561 l 1,18,19
 656 610 656 610 612.5 643 c 128,-1,20
 569 676 569 676 514.5 693 c 128,-1,21
 460 710 460 710 395 710 c 0,22,23
 319 710 319 710 254 683.5 c 128,-1,24
 189 657 189 657 141 608.5 c 128,-1,25
 93 560 93 560 66.5 494 c 128,-1,26
 40 428 40 428 40 350 c 256,27,28
 40 272 40 272 66.5 206 c 128,-1,29
 93 140 93 140 141 91.5 c 128,-1,30
 189 43 189 43 254 16.5 c 128,-1,31
 319 -10 319 -10 395 -10 c 0,32,33
 475 -10 475 -10 537.5 19.5 c 128,-1,34
 600 49 600 49 643 100 c 128,-1,35
 686 151 686 151 708 216.5 c 128,-1,36
 730 282 730 282 730 355 c 1,37,-1
 405 355 l 1,38,-1
 405 275 l 1,0,-1
399 -70 m 1,39,-1
 311 -329 l 1,40,-1
 369 -350 l 1,41,-1
 479 -100 l 1,42,-1
 399 -70 l 1,39,-1
EndSplineSet
EndChar

StartChar: H
Encoding: 72 72 38
Width: 715
GlyphClass: 2
Flags: W
LayerCount: 2
Fore
SplineSet
127 340 m 1,0,-1
 607 340 l 1,1,-1
 607 420 l 1,2,-1
 127 420 l 1,3,-1
 127 340 l 1,0,-1
550 700 m 1,4,-1
 550 0 l 1,5,-1
 635 0 l 1,6,-1
 635 700 l 1,7,-1
 550 700 l 1,4,-1
80 700 m 1,8,-1
 80 0 l 1,9,-1
 165 0 l 1,10,-1
 165 700 l 1,11,-1
 80 700 l 1,8,-1
EndSplineSet
EndChar

StartChar: Hcircumflex
Encoding: 292 292 39
Width: 715
GlyphClass: 2
Flags: W
LayerCount: 2
Fore
SplineSet
127 340 m 1,0,-1
 607 340 l 1,1,-1
 607 420 l 1,2,-1
 127 420 l 1,3,-1
 127 340 l 1,0,-1
550 700 m 1,4,-1
 550 0 l 1,5,-1
 635 0 l 1,6,-1
 635 700 l 1,7,-1
 550 700 l 1,4,-1
80 700 m 1,8,-1
 80 0 l 1,9,-1
 165 0 l 1,10,-1
 165 700 l 1,11,-1
 80 700 l 1,8,-1
358 865 m 1,12,-1
 468 770 l 1,13,-1
 518 810 l 1,14,-1
 358 950 l 1,15,-1
 198 810 l 1,16,-1
 248 770 l 1,17,-1
 358 865 l 1,12,-1
EndSplineSet
EndChar

StartChar: I
Encoding: 73 73 40
Width: 245
GlyphClass: 2
Flags: W
LayerCount: 2
Fore
SplineSet
80 700 m 1,0,-1
 80 0 l 1,1,-1
 165 0 l 1,2,-1
 165 700 l 1,3,-1
 80 700 l 1,0,-1
EndSplineSet
EndChar

StartChar: Igrave
Encoding: 204 204 41
Width: 245
GlyphClass: 2
Flags: W
LayerCount: 2
Fore
SplineSet
80 700 m 1,0,-1
 80 0 l 1,1,-1
 165 0 l 1,2,-1
 165 700 l 1,3,-1
 80 700 l 1,0,-1
-8 920 m 1,4,-1
 172 770 l 1,5,-1
 218 800 l 1,6,-1
 68 960 l 1,7,-1
 -8 920 l 1,4,-1
EndSplineSet
EndChar

StartChar: Iacute
Encoding: 205 205 42
Width: 245
GlyphClass: 2
Flags: W
LayerCount: 2
Fore
SplineSet
80 700 m 1,0,-1
 80 0 l 1,1,-1
 165 0 l 1,2,-1
 165 700 l 1,3,-1
 80 700 l 1,0,-1
252 920 m 1,4,-1
 178 960 l 1,5,-1
 28 800 l 1,6,-1
 72 770 l 1,7,-1
 252 920 l 1,4,-1
EndSplineSet
EndChar

StartChar: Icircumflex
Encoding: 206 206 43
Width: 245
GlyphClass: 2
Flags: W
LayerCount: 2
Fore
SplineSet
80 700 m 1,0,-1
 80 0 l 1,1,-1
 165 0 l 1,2,-1
 165 700 l 1,3,-1
 80 700 l 1,0,-1
122 865 m 1,4,-1
 232 770 l 1,5,-1
 282 810 l 1,6,-1
 122 950 l 1,7,-1
 -38 810 l 1,8,-1
 12 770 l 1,9,-1
 122 865 l 1,4,-1
EndSplineSet
EndChar

StartChar: Idieresis
Encoding: 207 207 44
Width: 245
GlyphClass: 2
Flags: W
LayerCount: 2
Fore
SplineSet
80 700 m 1,0,-1
 80 0 l 1,1,-1
 165 0 l 1,2,-1
 165 700 l 1,3,-1
 80 700 l 1,0,-1
168 825 m 0,4,5
 168 803 168 803 184 786.5 c 128,-1,6
 200 770 200 770 222 770 c 0,7,8
 245 770 245 770 261.5 786.5 c 128,-1,9
 278 803 278 803 278 825 c 0,10,11
 278 848 278 848 261.5 864 c 128,-1,12
 245 880 245 880 222 880 c 0,13,14
 200 880 200 880 184 864 c 128,-1,15
 168 848 168 848 168 825 c 0,4,5
-32 825 m 0,16,17
 -32 803 -32 803 -16 786.5 c 128,-1,18
 0 770 0 770 22 770 c 0,19,20
 45 770 45 770 61.5 786.5 c 128,-1,21
 78 803 78 803 78 825 c 0,22,23
 78 848 78 848 61.5 864 c 128,-1,24
 45 880 45 880 22 880 c 0,25,26
 0 880 0 880 -16 864 c 128,-1,27
 -32 848 -32 848 -32 825 c 0,16,17
EndSplineSet
EndChar

StartChar: Itilde
Encoding: 296 296 45
Width: 245
GlyphClass: 2
Flags: W
LayerCount: 2
Fore
SplineSet
80 700 m 1,0,-1
 80 0 l 1,1,-1
 165 0 l 1,2,-1
 165 700 l 1,3,-1
 80 700 l 1,0,-1
-42 807 m 1,4,-1
 11 770 l 1,5,6
 11 778 11 778 15 790 c 128,-1,7
 19 802 19 802 30 811.5 c 128,-1,8
 41 821 41 821 61 821 c 0,9,10
 84 821 84 821 100.5 809.5 c 128,-1,11
 117 798 117 798 136 786 c 128,-1,12
 155 774 155 774 182 774 c 0,13,14
 207 774 207 774 228 784.5 c 128,-1,15
 249 795 249 795 264.5 812 c 128,-1,16
 280 829 280 829 288 847 c 1,17,-1
 242 890 l 1,18,19
 227 866 227 866 213.5 854 c 128,-1,20
 200 842 200 842 186 842 c 0,21,22
 166 842 166 842 153 849 c 128,-1,23
 140 856 140 856 128.5 865.5 c 128,-1,24
 117 875 117 875 101.5 882 c 128,-1,25
 86 889 86 889 62 889 c 0,26,27
 40 889 40 889 17.5 878.5 c 128,-1,28
 -5 868 -5 868 -21 850 c 128,-1,29
 -37 832 -37 832 -42 807 c 1,4,-1
EndSplineSet
EndChar

StartChar: Imacron
Encoding: 298 298 46
Width: 245
GlyphClass: 2
Flags: W
LayerCount: 2
Fore
SplineSet
80 700 m 1,0,-1
 80 0 l 1,1,-1
 165 0 l 1,2,-1
 165 700 l 1,3,-1
 80 700 l 1,0,-1
-52 770 m 1,4,-1
 298 770 l 1,5,-1
 298 845 l 1,6,-1
 -52 845 l 1,7,-1
 -52 770 l 1,4,-1
EndSplineSet
EndChar

StartChar: Ibreve
Encoding: 300 300 47
Width: 245
GlyphClass: 2
Flags: W
LayerCount: 2
Fore
SplineSet
80 700 m 1,0,-1
 80 0 l 1,1,-1
 165 0 l 1,2,-1
 165 700 l 1,3,-1
 80 700 l 1,0,-1
-35 910 m 1,4,5
 -35 876 -35 876 -17.5 843.5 c 128,-1,6
 0 811 0 811 35.5 790.5 c 128,-1,7
 71 770 71 770 123 770 c 0,8,9
 176 770 176 770 211 790.5 c 128,-1,10
 246 811 246 811 263.5 843.5 c 128,-1,11
 281 876 281 876 281 910 c 1,12,-1
 210 910 l 1,13,14
 210 897 210 897 203 879.5 c 128,-1,15
 196 862 196 862 177 848.5 c 128,-1,16
 158 835 158 835 123 835 c 256,17,18
 88 835 88 835 69 848.5 c 128,-1,19
 50 862 50 862 43 879.5 c 128,-1,20
 36 897 36 897 36 910 c 1,21,-1
 -35 910 l 1,4,5
EndSplineSet
EndChar

StartChar: Iogonek
Encoding: 302 302 48
Width: 245
GlyphClass: 2
Flags: W
LayerCount: 2
Fore
SplineSet
80 700 m 1,0,-1
 80 0 l 1,1,-1
 165 0 l 1,2,-1
 165 700 l 1,3,-1
 80 700 l 1,0,-1
170 -130 m 1,4,5
 160 -140 160 -140 150 -145 c 128,-1,6
 140 -150 140 -150 120 -150 c 0,7,8
 98 -150 98 -150 85 -138.5 c 128,-1,9
 72 -127 72 -127 72 -100 c 0,10,11
 72 -81 72 -81 84.5 -62.5 c 128,-1,12
 97 -44 97 -44 118 -27.5 c 128,-1,13
 139 -11 139 -11 165 0 c 1,14,-1
 124 25 l 1,15,16
 89 7 89 7 59 -15.5 c 128,-1,17
 29 -38 29 -38 10.5 -64 c 128,-1,18
 -8 -90 -8 -90 -8 -120 c 0,19,20
 -8 -149 -8 -149 5.5 -172 c 128,-1,21
 19 -195 19 -195 46 -207.5 c 128,-1,22
 73 -220 73 -220 115 -220 c 0,23,24
 147 -220 147 -220 169.5 -207.5 c 128,-1,25
 192 -195 192 -195 203 -180 c 1,26,-1
 170 -130 l 1,4,5
EndSplineSet
EndChar

StartChar: Idotaccent
Encoding: 304 304 49
Width: 245
GlyphClass: 2
Flags: W
LayerCount: 2
Fore
SplineSet
80 700 m 1,0,-1
 80 0 l 1,1,-1
 165 0 l 1,2,-1
 165 700 l 1,3,-1
 80 700 l 1,0,-1
67 825 m 0,4,5
 67 803 67 803 83.5 786.5 c 128,-1,6
 100 770 100 770 122 770 c 0,7,8
 145 770 145 770 161 786.5 c 128,-1,9
 177 803 177 803 177 825 c 0,10,11
 177 848 177 848 161 864 c 128,-1,12
 145 880 145 880 122 880 c 0,13,14
 100 880 100 880 83.5 864 c 128,-1,15
 67 848 67 848 67 825 c 0,4,5
EndSplineSet
EndChar

StartChar: J
Encoding: 74 74 50
Width: 240
GlyphClass: 2
Flags: W
LayerCount: 2
Fore
SplineSet
-67 -104 m 1,0,-1
 -111 -170 l 1,1,2
 -103 -180 -103 -180 -85.5 -191.5 c 128,-1,3
 -68 -203 -68 -203 -43.5 -211.5 c 128,-1,4
 -19 -220 -19 -220 7 -220 c 0,5,6
 42 -220 42 -220 70.5 -210.5 c 128,-1,7
 99 -201 99 -201 119 -181 c 128,-1,8
 139 -161 139 -161 149.5 -131 c 128,-1,9
 160 -101 160 -101 160 -60 c 2,10,-1
 160 700 l 1,11,-1
 80 700 l 1,12,-1
 80 -50 l 2,13,14
 80 -99 80 -99 57.5 -119.5 c 128,-1,15
 35 -140 35 -140 12 -140 c 0,16,17
 -15 -140 -15 -140 -35.5 -130.5 c 128,-1,18
 -56 -121 -56 -121 -67 -104 c 1,0,-1
EndSplineSet
EndChar

StartChar: Jcircumflex
Encoding: 308 308 51
Width: 240
GlyphClass: 2
Flags: W
LayerCount: 2
Fore
SplineSet
-67 -104 m 1,0,-1
 -111 -170 l 1,1,2
 -103 -180 -103 -180 -85.5 -191.5 c 128,-1,3
 -68 -203 -68 -203 -43.5 -211.5 c 128,-1,4
 -19 -220 -19 -220 7 -220 c 0,5,6
 42 -220 42 -220 70.5 -210.5 c 128,-1,7
 99 -201 99 -201 119 -181 c 128,-1,8
 139 -161 139 -161 149.5 -131 c 128,-1,9
 160 -101 160 -101 160 -60 c 2,10,-1
 160 700 l 1,11,-1
 80 700 l 1,12,-1
 80 -50 l 2,13,14
 80 -99 80 -99 57.5 -119.5 c 128,-1,15
 35 -140 35 -140 12 -140 c 0,16,17
 -15 -140 -15 -140 -35.5 -130.5 c 128,-1,18
 -56 -121 -56 -121 -67 -104 c 1,0,-1
120 865 m 1,19,-1
 230 770 l 1,20,-1
 280 810 l 1,21,-1
 120 950 l 1,22,-1
 -40 810 l 1,23,-1
 10 770 l 1,24,-1
 120 865 l 1,19,-1
EndSplineSet
EndChar

StartChar: K
Encoding: 75 75 52
Width: 565
GlyphClass: 2
Flags: W
LayerCount: 2
Fore
SplineSet
80 700 m 1,0,-1
 80 0 l 1,1,-1
 165 0 l 1,2,-1
 165 700 l 1,3,-1
 80 700 l 1,0,-1
440 700 m 1,4,-1
 139 370 l 1,5,-1
 455 0 l 1,6,-1
 560 0 l 1,7,-1
 242 372 l 1,8,-1
 545 700 l 1,9,-1
 440 700 l 1,4,-1
EndSplineSet
EndChar

StartChar: uni0136
Encoding: 310 310 53
Width: 565
GlyphClass: 2
Flags: W
LayerCount: 2
Fore
SplineSet
80 700 m 1,0,-1
 80 0 l 1,1,-1
 165 0 l 1,2,-1
 165 700 l 1,3,-1
 80 700 l 1,0,-1
440 700 m 1,4,-1
 139 370 l 1,5,-1
 455 0 l 1,6,-1
 560 0 l 1,7,-1
 242 372 l 1,8,-1
 545 700 l 1,9,-1
 440 700 l 1,4,-1
324 -60 m 1,10,-1
 236 -319 l 1,11,-1
 294 -340 l 1,12,-1
 404 -90 l 1,13,-1
 324 -60 l 1,10,-1
EndSplineSet
EndChar

StartChar: L
Encoding: 76 76 54
Width: 450
GlyphClass: 2
Flags: W
LayerCount: 2
Fore
SplineSet
80 700 m 1,0,-1
 80 0 l 1,1,-1
 440 0 l 1,2,-1
 440 80 l 1,3,-1
 165 80 l 1,4,-1
 165 700 l 1,5,-1
 80 700 l 1,0,-1
EndSplineSet
EndChar

StartChar: Lacute
Encoding: 313 313 55
Width: 450
GlyphClass: 2
Flags: W
LayerCount: 2
Fore
SplineSet
80 700 m 1,0,-1
 80 0 l 1,1,-1
 440 0 l 1,2,-1
 440 80 l 1,3,-1
 165 80 l 1,4,-1
 165 700 l 1,5,-1
 80 700 l 1,0,-1
390 920 m 1,6,-1
 315 960 l 1,7,-1
 165 800 l 1,8,-1
 210 770 l 1,9,-1
 390 920 l 1,6,-1
EndSplineSet
EndChar

StartChar: uni013B
Encoding: 315 315 56
Width: 450
GlyphClass: 2
Flags: W
LayerCount: 2
Fore
SplineSet
80 700 m 1,0,-1
 80 0 l 1,1,-1
 440 0 l 1,2,-1
 440 80 l 1,3,-1
 165 80 l 1,4,-1
 165 700 l 1,5,-1
 80 700 l 1,0,-1
264 -60 m 1,6,-1
 176 -319 l 1,7,-1
 234 -340 l 1,8,-1
 344 -90 l 1,9,-1
 264 -60 l 1,6,-1
EndSplineSet
EndChar

StartChar: Lcaron
Encoding: 317 317 57
Width: 450
GlyphClass: 2
Flags: W
LayerCount: 2
Fore
SplineSet
80 700 m 1,0,-1
 80 0 l 1,1,-1
 440 0 l 1,2,-1
 440 80 l 1,3,-1
 165 80 l 1,4,-1
 165 700 l 1,5,-1
 80 700 l 1,0,-1
328 710 m 1,6,-1
 240 451 l 1,7,-1
 298 430 l 1,8,-1
 408 680 l 1,9,-1
 328 710 l 1,6,-1
EndSplineSet
EndChar

StartChar: M
Encoding: 77 77 58
Width: 810
GlyphClass: 2
Flags: W
LayerCount: 2
Fore
SplineSet
177 473 m 1,0,-1
 405 65 l 1,1,-1
 633 473 l 1,2,-1
 685 0 l 1,3,-1
 770 0 l 1,4,-1
 685 735 l 1,5,-1
 405 228 l 1,6,-1
 125 735 l 1,7,-1
 40 0 l 1,8,-1
 125 0 l 1,9,-1
 177 473 l 1,0,-1
EndSplineSet
EndChar

StartChar: N
Encoding: 78 78 59
Width: 775
GlyphClass: 2
Flags: W
LayerCount: 2
Fore
SplineSet
610 700 m 1,0,-1
 610 179 l 1,1,-1
 80 735 l 1,2,-1
 80 0 l 1,3,-1
 165 0 l 1,4,-1
 165 521 l 1,5,-1
 695 -35 l 1,6,-1
 695 700 l 1,7,-1
 610 700 l 1,0,-1
EndSplineSet
EndChar

StartChar: Ntilde
Encoding: 209 209 60
Width: 775
GlyphClass: 2
Flags: W
LayerCount: 2
Fore
SplineSet
610 700 m 1,0,-1
 610 179 l 1,1,-1
 80 735 l 1,2,-1
 80 0 l 1,3,-1
 165 0 l 1,4,-1
 165 521 l 1,5,-1
 695 -35 l 1,6,-1
 695 700 l 1,7,-1
 610 700 l 1,0,-1
215 792 m 1,8,-1
 268 755 l 1,9,10
 268 763 268 763 272 775 c 128,-1,11
 276 787 276 787 287 796.5 c 128,-1,12
 298 806 298 806 318 806 c 0,13,14
 341 806 341 806 357.5 794.5 c 128,-1,15
 374 783 374 783 393 771 c 128,-1,16
 412 759 412 759 439 759 c 0,17,18
 464 759 464 759 485 769.5 c 128,-1,19
 506 780 506 780 521.5 797 c 128,-1,20
 537 814 537 814 545 832 c 1,21,-1
 499 875 l 1,22,23
 484 851 484 851 470.5 839 c 128,-1,24
 457 827 457 827 443 827 c 0,25,26
 423 827 423 827 410 834 c 128,-1,27
 397 841 397 841 385.5 850.5 c 128,-1,28
 374 860 374 860 358.5 867 c 128,-1,29
 343 874 343 874 319 874 c 0,30,31
 297 874 297 874 274.5 863.5 c 128,-1,32
 252 853 252 853 236 835 c 128,-1,33
 220 817 220 817 215 792 c 1,8,-1
EndSplineSet
EndChar

StartChar: Nacute
Encoding: 323 323 61
Width: 775
GlyphClass: 2
Flags: W
LayerCount: 2
Fore
SplineSet
610 700 m 1,0,-1
 610 179 l 1,1,-1
 80 735 l 1,2,-1
 80 0 l 1,3,-1
 165 0 l 1,4,-1
 165 521 l 1,5,-1
 695 -35 l 1,6,-1
 695 700 l 1,7,-1
 610 700 l 1,0,-1
560 905 m 1,8,-1
 485 945 l 1,9,-1
 335 785 l 1,10,-1
 380 755 l 1,11,-1
 560 905 l 1,8,-1
EndSplineSet
EndChar

StartChar: uni0145
Encoding: 325 325 62
Width: 775
GlyphClass: 2
Flags: W
LayerCount: 2
Fore
SplineSet
399 -35 m 1,0,-1
 311 -294 l 1,1,-1
 369 -315 l 1,2,-1
 479 -65 l 1,3,-1
 399 -35 l 1,0,-1
610 700 m 1,4,-1
 610 179 l 1,5,-1
 80 735 l 1,6,-1
 80 0 l 1,7,-1
 165 0 l 1,8,-1
 165 521 l 1,9,-1
 695 -35 l 1,10,-1
 695 700 l 1,11,-1
 610 700 l 1,4,-1
EndSplineSet
EndChar

StartChar: Ncaron
Encoding: 327 327 63
Width: 775
GlyphClass: 2
Flags: W
LayerCount: 2
Fore
SplineSet
400 880 m 1,0,-1
 290 975 l 1,1,-1
 240 935 l 1,2,-1
 400 795 l 1,3,-1
 560 935 l 1,4,-1
 510 975 l 1,5,-1
 400 880 l 1,0,-1
610 700 m 1,6,-1
 610 179 l 1,7,-1
 80 735 l 1,8,-1
 80 0 l 1,9,-1
 165 0 l 1,10,-1
 165 521 l 1,11,-1
 695 -35 l 1,12,-1
 695 700 l 1,13,-1
 610 700 l 1,6,-1
EndSplineSet
EndChar

StartChar: O
Encoding: 79 79 64
Width: 790
GlyphClass: 2
Flags: W
LayerCount: 2
Fore
SplineSet
130 350 m 256,0,1
 130 429 130 429 164.5 491 c 128,-1,2
 199 553 199 553 259 589 c 128,-1,3
 319 625 319 625 395 625 c 0,4,5
 472 625 472 625 531.5 589 c 128,-1,6
 591 553 591 553 625.5 491 c 128,-1,7
 660 429 660 429 660 350 c 256,8,9
 660 271 660 271 625.5 209 c 128,-1,10
 591 147 591 147 531.5 111 c 128,-1,11
 472 75 472 75 395 75 c 0,12,13
 319 75 319 75 259 111 c 128,-1,14
 199 147 199 147 164.5 209 c 128,-1,15
 130 271 130 271 130 350 c 256,0,1
40 350 m 0,16,17
 40 274 40 274 66.5 208 c 128,-1,18
 93 142 93 142 141 93.5 c 128,-1,19
 189 45 189 45 254 17.5 c 128,-1,20
 319 -10 319 -10 395 -10 c 0,21,22
 472 -10 472 -10 536.5 17.5 c 128,-1,23
 601 45 601 45 649 93.5 c 128,-1,24
 697 142 697 142 723.5 208 c 128,-1,25
 750 274 750 274 750 350 c 0,26,27
 750 427 750 427 723.5 492.5 c 128,-1,28
 697 558 697 558 649 606.5 c 128,-1,29
 601 655 601 655 536.5 682.5 c 128,-1,30
 472 710 472 710 395 710 c 0,31,32
 319 710 319 710 254 682.5 c 128,-1,33
 189 655 189 655 141 606.5 c 128,-1,34
 93 558 93 558 66.5 492.5 c 128,-1,35
 40 427 40 427 40 350 c 0,16,17
EndSplineSet
EndChar

StartChar: Ograve
Encoding: 210 210 65
Width: 790
GlyphClass: 2
Flags: W
LayerCount: 2
Fore
SplineSet
130 350 m 256,0,1
 130 429 130 429 164.5 491 c 128,-1,2
 199 553 199 553 259 589 c 128,-1,3
 319 625 319 625 395 625 c 0,4,5
 472 625 472 625 531.5 589 c 128,-1,6
 591 553 591 553 625.5 491 c 128,-1,7
 660 429 660 429 660 350 c 256,8,9
 660 271 660 271 625.5 209 c 128,-1,10
 591 147 591 147 531.5 111 c 128,-1,11
 472 75 472 75 395 75 c 0,12,13
 319 75 319 75 259 111 c 128,-1,14
 199 147 199 147 164.5 209 c 128,-1,15
 130 271 130 271 130 350 c 256,0,1
40 350 m 0,16,17
 40 274 40 274 66.5 208 c 128,-1,18
 93 142 93 142 141 93.5 c 128,-1,19
 189 45 189 45 254 17.5 c 128,-1,20
 319 -10 319 -10 395 -10 c 0,21,22
 472 -10 472 -10 536.5 17.5 c 128,-1,23
 601 45 601 45 649 93.5 c 128,-1,24
 697 142 697 142 723.5 208 c 128,-1,25
 750 274 750 274 750 350 c 0,26,27
 750 427 750 427 723.5 492.5 c 128,-1,28
 697 558 697 558 649 606.5 c 128,-1,29
 601 655 601 655 536.5 682.5 c 128,-1,30
 472 710 472 710 395 710 c 0,31,32
 319 710 319 710 254 682.5 c 128,-1,33
 189 655 189 655 141 606.5 c 128,-1,34
 93 558 93 558 66.5 492.5 c 128,-1,35
 40 427 40 427 40 350 c 0,16,17
275 920 m 1,36,-1
 455 770 l 1,37,-1
 500 800 l 1,38,-1
 350 960 l 1,39,-1
 275 920 l 1,36,-1
EndSplineSet
EndChar

StartChar: Oacute
Encoding: 211 211 66
Width: 790
GlyphClass: 2
Flags: W
LayerCount: 2
Fore
SplineSet
130 350 m 256,0,1
 130 429 130 429 164.5 491 c 128,-1,2
 199 553 199 553 259 589 c 128,-1,3
 319 625 319 625 395 625 c 0,4,5
 472 625 472 625 531.5 589 c 128,-1,6
 591 553 591 553 625.5 491 c 128,-1,7
 660 429 660 429 660 350 c 256,8,9
 660 271 660 271 625.5 209 c 128,-1,10
 591 147 591 147 531.5 111 c 128,-1,11
 472 75 472 75 395 75 c 0,12,13
 319 75 319 75 259 111 c 128,-1,14
 199 147 199 147 164.5 209 c 128,-1,15
 130 271 130 271 130 350 c 256,0,1
40 350 m 0,16,17
 40 274 40 274 66.5 208 c 128,-1,18
 93 142 93 142 141 93.5 c 128,-1,19
 189 45 189 45 254 17.5 c 128,-1,20
 319 -10 319 -10 395 -10 c 0,21,22
 472 -10 472 -10 536.5 17.5 c 128,-1,23
 601 45 601 45 649 93.5 c 128,-1,24
 697 142 697 142 723.5 208 c 128,-1,25
 750 274 750 274 750 350 c 0,26,27
 750 427 750 427 723.5 492.5 c 128,-1,28
 697 558 697 558 649 606.5 c 128,-1,29
 601 655 601 655 536.5 682.5 c 128,-1,30
 472 710 472 710 395 710 c 0,31,32
 319 710 319 710 254 682.5 c 128,-1,33
 189 655 189 655 141 606.5 c 128,-1,34
 93 558 93 558 66.5 492.5 c 128,-1,35
 40 427 40 427 40 350 c 0,16,17
515 920 m 1,36,-1
 440 960 l 1,37,-1
 290 800 l 1,38,-1
 335 770 l 1,39,-1
 515 920 l 1,36,-1
EndSplineSet
EndChar

StartChar: Ocircumflex
Encoding: 212 212 67
Width: 790
GlyphClass: 2
Flags: W
LayerCount: 2
Fore
SplineSet
130 350 m 256,0,1
 130 429 130 429 164.5 491 c 128,-1,2
 199 553 199 553 259 589 c 128,-1,3
 319 625 319 625 395 625 c 0,4,5
 472 625 472 625 531.5 589 c 128,-1,6
 591 553 591 553 625.5 491 c 128,-1,7
 660 429 660 429 660 350 c 256,8,9
 660 271 660 271 625.5 209 c 128,-1,10
 591 147 591 147 531.5 111 c 128,-1,11
 472 75 472 75 395 75 c 0,12,13
 319 75 319 75 259 111 c 128,-1,14
 199 147 199 147 164.5 209 c 128,-1,15
 130 271 130 271 130 350 c 256,0,1
40 350 m 0,16,17
 40 274 40 274 66.5 208 c 128,-1,18
 93 142 93 142 141 93.5 c 128,-1,19
 189 45 189 45 254 17.5 c 128,-1,20
 319 -10 319 -10 395 -10 c 0,21,22
 472 -10 472 -10 536.5 17.5 c 128,-1,23
 601 45 601 45 649 93.5 c 128,-1,24
 697 142 697 142 723.5 208 c 128,-1,25
 750 274 750 274 750 350 c 0,26,27
 750 427 750 427 723.5 492.5 c 128,-1,28
 697 558 697 558 649 606.5 c 128,-1,29
 601 655 601 655 536.5 682.5 c 128,-1,30
 472 710 472 710 395 710 c 0,31,32
 319 710 319 710 254 682.5 c 128,-1,33
 189 655 189 655 141 606.5 c 128,-1,34
 93 558 93 558 66.5 492.5 c 128,-1,35
 40 427 40 427 40 350 c 0,16,17
395 865 m 1,36,-1
 505 770 l 1,37,-1
 555 810 l 1,38,-1
 395 950 l 1,39,-1
 235 810 l 1,40,-1
 285 770 l 1,41,-1
 395 865 l 1,36,-1
EndSplineSet
EndChar

StartChar: Otilde
Encoding: 213 213 68
Width: 790
GlyphClass: 2
Flags: W
LayerCount: 2
Fore
SplineSet
130 350 m 256,0,1
 130 429 130 429 164.5 491 c 128,-1,2
 199 553 199 553 259 589 c 128,-1,3
 319 625 319 625 395 625 c 0,4,5
 472 625 472 625 531.5 589 c 128,-1,6
 591 553 591 553 625.5 491 c 128,-1,7
 660 429 660 429 660 350 c 256,8,9
 660 271 660 271 625.5 209 c 128,-1,10
 591 147 591 147 531.5 111 c 128,-1,11
 472 75 472 75 395 75 c 0,12,13
 319 75 319 75 259 111 c 128,-1,14
 199 147 199 147 164.5 209 c 128,-1,15
 130 271 130 271 130 350 c 256,0,1
40 350 m 0,16,17
 40 274 40 274 66.5 208 c 128,-1,18
 93 142 93 142 141 93.5 c 128,-1,19
 189 45 189 45 254 17.5 c 128,-1,20
 319 -10 319 -10 395 -10 c 0,21,22
 472 -10 472 -10 536.5 17.5 c 128,-1,23
 601 45 601 45 649 93.5 c 128,-1,24
 697 142 697 142 723.5 208 c 128,-1,25
 750 274 750 274 750 350 c 0,26,27
 750 427 750 427 723.5 492.5 c 128,-1,28
 697 558 697 558 649 606.5 c 128,-1,29
 601 655 601 655 536.5 682.5 c 128,-1,30
 472 710 472 710 395 710 c 0,31,32
 319 710 319 710 254 682.5 c 128,-1,33
 189 655 189 655 141 606.5 c 128,-1,34
 93 558 93 558 66.5 492.5 c 128,-1,35
 40 427 40 427 40 350 c 0,16,17
230 807 m 1,36,-1
 283 770 l 1,37,38
 283 778 283 778 287 790 c 128,-1,39
 291 802 291 802 302 811.5 c 128,-1,40
 313 821 313 821 333 821 c 0,41,42
 356 821 356 821 372.5 809.5 c 128,-1,43
 389 798 389 798 408 786 c 128,-1,44
 427 774 427 774 454 774 c 0,45,46
 479 774 479 774 500 784.5 c 128,-1,47
 521 795 521 795 536.5 812 c 128,-1,48
 552 829 552 829 560 847 c 1,49,-1
 514 890 l 1,50,51
 499 866 499 866 485.5 854 c 128,-1,52
 472 842 472 842 458 842 c 0,53,54
 438 842 438 842 425 849 c 128,-1,55
 412 856 412 856 400.5 865.5 c 128,-1,56
 389 875 389 875 373.5 882 c 128,-1,57
 358 889 358 889 334 889 c 0,58,59
 312 889 312 889 289.5 878.5 c 128,-1,60
 267 868 267 868 251 850 c 128,-1,61
 235 832 235 832 230 807 c 1,36,-1
EndSplineSet
EndChar

StartChar: Odieresis
Encoding: 214 214 69
Width: 790
GlyphClass: 2
Flags: W
LayerCount: 2
Fore
SplineSet
130 350 m 256,0,1
 130 429 130 429 164.5 491 c 128,-1,2
 199 553 199 553 259 589 c 128,-1,3
 319 625 319 625 395 625 c 0,4,5
 472 625 472 625 531.5 589 c 128,-1,6
 591 553 591 553 625.5 491 c 128,-1,7
 660 429 660 429 660 350 c 256,8,9
 660 271 660 271 625.5 209 c 128,-1,10
 591 147 591 147 531.5 111 c 128,-1,11
 472 75 472 75 395 75 c 0,12,13
 319 75 319 75 259 111 c 128,-1,14
 199 147 199 147 164.5 209 c 128,-1,15
 130 271 130 271 130 350 c 256,0,1
40 350 m 0,16,17
 40 274 40 274 66.5 208 c 128,-1,18
 93 142 93 142 141 93.5 c 128,-1,19
 189 45 189 45 254 17.5 c 128,-1,20
 319 -10 319 -10 395 -10 c 0,21,22
 472 -10 472 -10 536.5 17.5 c 128,-1,23
 601 45 601 45 649 93.5 c 128,-1,24
 697 142 697 142 723.5 208 c 128,-1,25
 750 274 750 274 750 350 c 0,26,27
 750 427 750 427 723.5 492.5 c 128,-1,28
 697 558 697 558 649 606.5 c 128,-1,29
 601 655 601 655 536.5 682.5 c 128,-1,30
 472 710 472 710 395 710 c 0,31,32
 319 710 319 710 254 682.5 c 128,-1,33
 189 655 189 655 141 606.5 c 128,-1,34
 93 558 93 558 66.5 492.5 c 128,-1,35
 40 427 40 427 40 350 c 0,16,17
440 825 m 0,36,37
 440 803 440 803 456.5 786.5 c 128,-1,38
 473 770 473 770 495 770 c 0,39,40
 518 770 518 770 534 786.5 c 128,-1,41
 550 803 550 803 550 825 c 0,42,43
 550 848 550 848 534 864 c 128,-1,44
 518 880 518 880 495 880 c 0,45,46
 473 880 473 880 456.5 864 c 128,-1,47
 440 848 440 848 440 825 c 0,36,37
240 825 m 0,48,49
 240 803 240 803 256.5 786.5 c 128,-1,50
 273 770 273 770 295 770 c 0,51,52
 318 770 318 770 334 786.5 c 128,-1,53
 350 803 350 803 350 825 c 0,54,55
 350 848 350 848 334 864 c 128,-1,56
 318 880 318 880 295 880 c 0,57,58
 273 880 273 880 256.5 864 c 128,-1,59
 240 848 240 848 240 825 c 0,48,49
EndSplineSet
EndChar

StartChar: Omacron
Encoding: 332 332 70
Width: 790
GlyphClass: 2
Flags: W
LayerCount: 2
Fore
SplineSet
130 350 m 256,0,1
 130 429 130 429 164.5 491 c 128,-1,2
 199 553 199 553 259 589 c 128,-1,3
 319 625 319 625 395 625 c 0,4,5
 472 625 472 625 531.5 589 c 128,-1,6
 591 553 591 553 625.5 491 c 128,-1,7
 660 429 660 429 660 350 c 256,8,9
 660 271 660 271 625.5 209 c 128,-1,10
 591 147 591 147 531.5 111 c 128,-1,11
 472 75 472 75 395 75 c 0,12,13
 319 75 319 75 259 111 c 128,-1,14
 199 147 199 147 164.5 209 c 128,-1,15
 130 271 130 271 130 350 c 256,0,1
40 350 m 0,16,17
 40 274 40 274 66.5 208 c 128,-1,18
 93 142 93 142 141 93.5 c 128,-1,19
 189 45 189 45 254 17.5 c 128,-1,20
 319 -10 319 -10 395 -10 c 0,21,22
 472 -10 472 -10 536.5 17.5 c 128,-1,23
 601 45 601 45 649 93.5 c 128,-1,24
 697 142 697 142 723.5 208 c 128,-1,25
 750 274 750 274 750 350 c 0,26,27
 750 427 750 427 723.5 492.5 c 128,-1,28
 697 558 697 558 649 606.5 c 128,-1,29
 601 655 601 655 536.5 682.5 c 128,-1,30
 472 710 472 710 395 710 c 0,31,32
 319 710 319 710 254 682.5 c 128,-1,33
 189 655 189 655 141 606.5 c 128,-1,34
 93 558 93 558 66.5 492.5 c 128,-1,35
 40 427 40 427 40 350 c 0,16,17
220 770 m 1,36,-1
 570 770 l 1,37,-1
 570 845 l 1,38,-1
 220 845 l 1,39,-1
 220 770 l 1,36,-1
EndSplineSet
EndChar

StartChar: Obreve
Encoding: 334 334 71
Width: 790
GlyphClass: 2
Flags: W
LayerCount: 2
Fore
SplineSet
130 350 m 256,0,1
 130 429 130 429 164.5 491 c 128,-1,2
 199 553 199 553 259 589 c 128,-1,3
 319 625 319 625 395 625 c 0,4,5
 472 625 472 625 531.5 589 c 128,-1,6
 591 553 591 553 625.5 491 c 128,-1,7
 660 429 660 429 660 350 c 256,8,9
 660 271 660 271 625.5 209 c 128,-1,10
 591 147 591 147 531.5 111 c 128,-1,11
 472 75 472 75 395 75 c 0,12,13
 319 75 319 75 259 111 c 128,-1,14
 199 147 199 147 164.5 209 c 128,-1,15
 130 271 130 271 130 350 c 256,0,1
40 350 m 0,16,17
 40 274 40 274 66.5 208 c 128,-1,18
 93 142 93 142 141 93.5 c 128,-1,19
 189 45 189 45 254 17.5 c 128,-1,20
 319 -10 319 -10 395 -10 c 0,21,22
 472 -10 472 -10 536.5 17.5 c 128,-1,23
 601 45 601 45 649 93.5 c 128,-1,24
 697 142 697 142 723.5 208 c 128,-1,25
 750 274 750 274 750 350 c 0,26,27
 750 427 750 427 723.5 492.5 c 128,-1,28
 697 558 697 558 649 606.5 c 128,-1,29
 601 655 601 655 536.5 682.5 c 128,-1,30
 472 710 472 710 395 710 c 0,31,32
 319 710 319 710 254 682.5 c 128,-1,33
 189 655 189 655 141 606.5 c 128,-1,34
 93 558 93 558 66.5 492.5 c 128,-1,35
 40 427 40 427 40 350 c 0,16,17
237 910 m 1,36,37
 237 876 237 876 254.5 843.5 c 128,-1,38
 272 811 272 811 307.5 790.5 c 128,-1,39
 343 770 343 770 395 770 c 0,40,41
 448 770 448 770 483 790.5 c 128,-1,42
 518 811 518 811 535.5 843.5 c 128,-1,43
 553 876 553 876 553 910 c 1,44,-1
 482 910 l 1,45,46
 482 897 482 897 475 879.5 c 128,-1,47
 468 862 468 862 449 848.5 c 128,-1,48
 430 835 430 835 395 835 c 256,49,50
 360 835 360 835 341 848.5 c 128,-1,51
 322 862 322 862 315 879.5 c 128,-1,52
 308 897 308 897 308 910 c 1,53,-1
 237 910 l 1,36,37
EndSplineSet
EndChar

StartChar: P
Encoding: 80 80 73
Width: 548
GlyphClass: 2
Flags: W
LayerCount: 2
Fore
SplineSet
80 700 m 1,0,-1
 80 0 l 1,1,-1
 165 0 l 1,2,-1
 165 700 l 1,3,-1
 80 700 l 1,0,-1
127 620 m 1,4,-1
 270 620 l 2,5,6
 338 620 338 620 380.5 587.5 c 128,-1,7
 423 555 423 555 423 490 c 0,8,9
 423 426 423 426 380.5 393 c 128,-1,10
 338 360 338 360 270 360 c 2,11,-1
 127 360 l 1,12,-1
 127 280 l 1,13,-1
 270 280 l 2,14,15
 338 280 338 280 391.5 305.5 c 128,-1,16
 445 331 445 331 476.5 378.5 c 128,-1,17
 508 426 508 426 508 490 c 0,18,19
 508 555 508 555 476.5 602 c 128,-1,20
 445 649 445 649 391.5 674.5 c 128,-1,21
 338 700 338 700 270 700 c 2,22,-1
 127 700 l 1,23,-1
 127 620 l 1,4,-1
EndSplineSet
EndChar

StartChar: Q
Encoding: 81 81 74
Width: 790
GlyphClass: 2
Flags: W
LayerCount: 2
Fore
SplineSet
130 350 m 256,0,1
 130 429 130 429 164.5 491 c 128,-1,2
 199 553 199 553 259 589 c 128,-1,3
 319 625 319 625 395 625 c 0,4,5
 472 625 472 625 531.5 589 c 128,-1,6
 591 553 591 553 625.5 491 c 128,-1,7
 660 429 660 429 660 350 c 256,8,9
 660 271 660 271 625.5 209 c 128,-1,10
 591 147 591 147 531.5 111 c 128,-1,11
 472 75 472 75 395 75 c 0,12,13
 319 75 319 75 259 111 c 128,-1,14
 199 147 199 147 164.5 209 c 128,-1,15
 130 271 130 271 130 350 c 256,0,1
40 350 m 0,16,17
 40 274 40 274 66.5 208 c 128,-1,18
 93 142 93 142 141 93.5 c 128,-1,19
 189 45 189 45 254 17.5 c 128,-1,20
 319 -10 319 -10 395 -10 c 0,21,22
 472 -10 472 -10 536.5 17.5 c 128,-1,23
 601 45 601 45 649 93.5 c 128,-1,24
 697 142 697 142 723.5 208 c 128,-1,25
 750 274 750 274 750 350 c 0,26,27
 750 427 750 427 723.5 492.5 c 128,-1,28
 697 558 697 558 649 606.5 c 128,-1,29
 601 655 601 655 536.5 682.5 c 128,-1,30
 472 710 472 710 395 710 c 0,31,32
 319 710 319 710 254 682.5 c 128,-1,33
 189 655 189 655 141 606.5 c 128,-1,34
 93 558 93 558 66.5 492.5 c 128,-1,35
 40 427 40 427 40 350 c 0,16,17
379 300 m 1,36,-1
 679 0 l 1,37,-1
 789 0 l 1,38,-1
 489 300 l 1,39,-1
 379 300 l 1,36,-1
EndSplineSet
EndChar

StartChar: R
Encoding: 82 82 75
Width: 560
GlyphClass: 2
Flags: W
LayerCount: 2
Fore
SplineSet
205 345 m 1,0,-1
 445 0 l 1,1,-1
 550 0 l 1,2,-1
 300 345 l 1,3,-1
 205 345 l 1,0,-1
80 700 m 1,4,-1
 80 0 l 1,5,-1
 165 0 l 1,6,-1
 165 700 l 1,7,-1
 80 700 l 1,4,-1
127 625 m 1,8,-1
 270 625 l 2,9,10
 315 625 315 625 349.5 609 c 128,-1,11
 384 593 384 593 403.5 563 c 128,-1,12
 423 533 423 533 423 490 c 256,13,14
 423 447 423 447 403.5 417 c 128,-1,15
 384 387 384 387 349.5 371 c 128,-1,16
 315 355 315 355 270 355 c 2,17,-1
 127 355 l 1,18,-1
 127 280 l 1,19,-1
 270 280 l 2,20,21
 338 280 338 280 391.5 305.5 c 128,-1,22
 445 331 445 331 476.5 378.5 c 128,-1,23
 508 426 508 426 508 490 c 0,24,25
 508 555 508 555 476.5 602 c 128,-1,26
 445 649 445 649 391.5 674.5 c 128,-1,27
 338 700 338 700 270 700 c 2,28,-1
 127 700 l 1,29,-1
 127 625 l 1,8,-1
EndSplineSet
EndChar

StartChar: Racute
Encoding: 340 340 76
Width: 560
GlyphClass: 2
Flags: W
LayerCount: 2
Fore
SplineSet
205 345 m 1,0,-1
 445 0 l 1,1,-1
 550 0 l 1,2,-1
 300 345 l 1,3,-1
 205 345 l 1,0,-1
80 700 m 1,4,-1
 80 0 l 1,5,-1
 165 0 l 1,6,-1
 165 700 l 1,7,-1
 80 700 l 1,4,-1
127 625 m 1,8,-1
 270 625 l 2,9,10
 315 625 315 625 349.5 609 c 128,-1,11
 384 593 384 593 403.5 563 c 128,-1,12
 423 533 423 533 423 490 c 256,13,14
 423 447 423 447 403.5 417 c 128,-1,15
 384 387 384 387 349.5 371 c 128,-1,16
 315 355 315 355 270 355 c 2,17,-1
 127 355 l 1,18,-1
 127 280 l 1,19,-1
 270 280 l 2,20,21
 338 280 338 280 391.5 305.5 c 128,-1,22
 445 331 445 331 476.5 378.5 c 128,-1,23
 508 426 508 426 508 490 c 0,24,25
 508 555 508 555 476.5 602 c 128,-1,26
 445 649 445 649 391.5 674.5 c 128,-1,27
 338 700 338 700 270 700 c 2,28,-1
 127 700 l 1,29,-1
 127 625 l 1,8,-1
405 920 m 1,30,-1
 330 960 l 1,31,-1
 180 800 l 1,32,-1
 225 770 l 1,33,-1
 405 920 l 1,30,-1
EndSplineSet
EndChar

StartChar: uni0156
Encoding: 342 342 77
Width: 560
GlyphClass: 2
Flags: W
LayerCount: 2
Fore
SplineSet
205 345 m 1,0,-1
 445 0 l 1,1,-1
 550 0 l 1,2,-1
 300 345 l 1,3,-1
 205 345 l 1,0,-1
80 700 m 1,4,-1
 80 0 l 1,5,-1
 165 0 l 1,6,-1
 165 700 l 1,7,-1
 80 700 l 1,4,-1
127 625 m 1,8,-1
 270 625 l 2,9,10
 315 625 315 625 349.5 609 c 128,-1,11
 384 593 384 593 403.5 563 c 128,-1,12
 423 533 423 533 423 490 c 256,13,14
 423 447 423 447 403.5 417 c 128,-1,15
 384 387 384 387 349.5 371 c 128,-1,16
 315 355 315 355 270 355 c 2,17,-1
 127 355 l 1,18,-1
 127 280 l 1,19,-1
 270 280 l 2,20,21
 338 280 338 280 391.5 305.5 c 128,-1,22
 445 331 445 331 476.5 378.5 c 128,-1,23
 508 426 508 426 508 490 c 0,24,25
 508 555 508 555 476.5 602 c 128,-1,26
 445 649 445 649 391.5 674.5 c 128,-1,27
 338 700 338 700 270 700 c 2,28,-1
 127 700 l 1,29,-1
 127 625 l 1,8,-1
319 -60 m 1,30,-1
 231 -319 l 1,31,-1
 289 -340 l 1,32,-1
 399 -90 l 1,33,-1
 319 -60 l 1,30,-1
EndSplineSet
EndChar

StartChar: Rcaron
Encoding: 344 344 78
Width: 560
GlyphClass: 2
Flags: W
LayerCount: 2
Fore
SplineSet
205 345 m 1,0,-1
 445 0 l 1,1,-1
 550 0 l 1,2,-1
 300 345 l 1,3,-1
 205 345 l 1,0,-1
80 700 m 1,4,-1
 80 0 l 1,5,-1
 165 0 l 1,6,-1
 165 700 l 1,7,-1
 80 700 l 1,4,-1
127 625 m 1,8,-1
 270 625 l 2,9,10
 315 625 315 625 349.5 609 c 128,-1,11
 384 593 384 593 403.5 563 c 128,-1,12
 423 533 423 533 423 490 c 256,13,14
 423 447 423 447 403.5 417 c 128,-1,15
 384 387 384 387 349.5 371 c 128,-1,16
 315 355 315 355 270 355 c 2,17,-1
 127 355 l 1,18,-1
 127 280 l 1,19,-1
 270 280 l 2,20,21
 338 280 338 280 391.5 305.5 c 128,-1,22
 445 331 445 331 476.5 378.5 c 128,-1,23
 508 426 508 426 508 490 c 0,24,25
 508 555 508 555 476.5 602 c 128,-1,26
 445 649 445 649 391.5 674.5 c 128,-1,27
 338 700 338 700 270 700 c 2,28,-1
 127 700 l 1,29,-1
 127 625 l 1,8,-1
255 855 m 1,30,-1
 145 950 l 1,31,-1
 95 910 l 1,32,-1
 255 770 l 1,33,-1
 415 910 l 1,34,-1
 365 950 l 1,35,-1
 255 855 l 1,30,-1
EndSplineSet
EndChar

StartChar: uni0212
Encoding: 530 530 79
Width: 560
GlyphClass: 2
Flags: W
LayerCount: 2
Fore
SplineSet
205 345 m 1,0,-1
 445 0 l 1,1,-1
 550 0 l 1,2,-1
 300 345 l 1,3,-1
 205 345 l 1,0,-1
80 700 m 1,4,-1
 80 0 l 1,5,-1
 165 0 l 1,6,-1
 165 700 l 1,7,-1
 80 700 l 1,4,-1
127 625 m 1,8,-1
 270 625 l 2,9,10
 315 625 315 625 349.5 609 c 128,-1,11
 384 593 384 593 403.5 563 c 128,-1,12
 423 533 423 533 423 490 c 256,13,14
 423 447 423 447 403.5 417 c 128,-1,15
 384 387 384 387 349.5 371 c 128,-1,16
 315 355 315 355 270 355 c 2,17,-1
 127 355 l 1,18,-1
 127 280 l 1,19,-1
 270 280 l 2,20,21
 338 280 338 280 391.5 305.5 c 128,-1,22
 445 331 445 331 476.5 378.5 c 128,-1,23
 508 426 508 426 508 490 c 0,24,25
 508 555 508 555 476.5 602 c 128,-1,26
 445 649 445 649 391.5 674.5 c 128,-1,27
 338 700 338 700 270 700 c 2,28,-1
 127 700 l 1,29,-1
 127 625 l 1,8,-1
117 770 m 1,30,31
 117 805 117 805 134.5 837 c 128,-1,32
 152 869 152 869 187.5 889.5 c 128,-1,33
 223 910 223 910 275 910 c 0,34,35
 328 910 328 910 363 889.5 c 128,-1,36
 398 869 398 869 415.5 837 c 128,-1,37
 433 805 433 805 433 770 c 1,38,-1
 362 770 l 1,39,40
 362 783 362 783 355 800.5 c 128,-1,41
 348 818 348 818 329 831.5 c 128,-1,42
 310 845 310 845 275 845 c 256,43,44
 240 845 240 845 221 831.5 c 128,-1,45
 202 818 202 818 195 800.5 c 128,-1,46
 188 783 188 783 188 770 c 1,47,-1
 117 770 l 1,30,31
EndSplineSet
EndChar

StartChar: S
Encoding: 83 83 80
Width: 548
GlyphClass: 2
Flags: W
LayerCount: 2
Fore
SplineSet
106 212 m 1,0,-1
 38 166 l 1,1,2
 61 120 61 120 97.5 79.5 c 128,-1,3
 134 39 134 39 182.5 14.5 c 128,-1,4
 231 -10 231 -10 288 -10 c 0,5,6
 330 -10 330 -10 368.5 4 c 128,-1,7
 407 18 407 18 437.5 44 c 128,-1,8
 468 70 468 70 485.5 107 c 128,-1,9
 503 144 503 144 503 190 c 0,10,11
 503 238 503 238 486 272.5 c 128,-1,12
 469 307 469 307 442.5 331.5 c 128,-1,13
 416 356 416 356 385 372 c 128,-1,14
 354 388 354 388 326 398 c 0,15,16
 265 419 265 419 229.5 440.5 c 128,-1,17
 194 462 194 462 179 486.5 c 128,-1,18
 164 511 164 511 164 540 c 0,19,20
 164 574 164 574 190 601.5 c 128,-1,21
 216 629 216 629 273 629 c 0,22,23
 314 629 314 629 342.5 613 c 128,-1,24
 371 597 371 597 391 572 c 128,-1,25
 411 547 411 547 424 521 c 1,26,-1
 497 563 l 1,27,28
 480 600 480 600 450 633.5 c 128,-1,29
 420 667 420 667 377.5 688.5 c 128,-1,30
 335 710 335 710 278 710 c 0,31,32
 219 710 219 710 173 686.5 c 128,-1,33
 127 663 127 663 101 622 c 128,-1,34
 75 581 75 581 75 529 c 0,35,36
 75 481 75 481 93.5 448 c 128,-1,37
 112 415 112 415 141 392.5 c 128,-1,38
 170 370 170 370 202 355.5 c 128,-1,39
 234 341 234 341 260 332 c 0,40,41
 300 318 300 318 335.5 300.5 c 128,-1,42
 371 283 371 283 393 255 c 128,-1,43
 415 227 415 227 415 180 c 0,44,45
 415 132 415 132 381 101 c 128,-1,46
 347 70 347 70 291 70 c 0,47,48
 249 70 249 70 216 88 c 128,-1,49
 183 106 183 106 156.5 138 c 128,-1,50
 130 170 130 170 106 212 c 1,0,-1
EndSplineSet
EndChar

StartChar: Sacute
Encoding: 346 346 81
Width: 548
GlyphClass: 2
Flags: W
LayerCount: 2
Fore
SplineSet
112 226 m 1,0,-1
 40 183 l 1,1,2
 62 125 62 125 98.5 82 c 128,-1,3
 135 39 135 39 184 14.5 c 128,-1,4
 233 -10 233 -10 290 -10 c 0,5,6
 360 -10 360 -10 407 15 c 128,-1,7
 454 40 454 40 478.5 85.5 c 128,-1,8
 503 131 503 131 503 190 c 0,9,10
 503 238 503 238 486 272.5 c 128,-1,11
 469 307 469 307 442 330.5 c 128,-1,12
 415 354 415 354 384 370 c 128,-1,13
 353 386 353 386 326 396 c 0,14,15
 284 412 284 412 247 430 c 128,-1,16
 210 448 210 448 187 471.5 c 128,-1,17
 164 495 164 495 164 529 c 0,18,19
 164 560 164 560 178 582 c 128,-1,20
 192 604 192 604 218 616.5 c 128,-1,21
 244 629 244 629 279 629 c 0,22,23
 318 629 318 629 345 612.5 c 128,-1,24
 372 596 372 596 391 569.5 c 128,-1,25
 410 543 410 543 425 514 c 1,26,-1
 494 560 l 1,27,28
 480 596 480 596 450.5 630.5 c 128,-1,29
 421 665 421 665 378 687.5 c 128,-1,30
 335 710 335 710 278 710 c 256,31,32
 221 710 221 710 175 688.5 c 128,-1,33
 129 667 129 667 102 627.5 c 128,-1,34
 75 588 75 588 75 535 c 0,35,36
 75 490 75 490 92.5 457 c 128,-1,37
 110 424 110 424 137 401 c 128,-1,38
 164 378 164 378 194.5 362.5 c 128,-1,39
 225 347 225 347 251 338 c 0,40,41
 291 324 291 324 328.5 305 c 128,-1,42
 366 286 366 286 390.5 257 c 128,-1,43
 415 228 415 228 415 183 c 0,44,45
 415 148 415 148 401.5 122.5 c 128,-1,46
 388 97 388 97 361.5 83.5 c 128,-1,47
 335 70 335 70 295 70 c 0,48,49
 262 70 262 70 235.5 81 c 128,-1,50
 209 92 209 92 187 112 c 128,-1,51
 165 132 165 132 146.5 161 c 128,-1,52
 128 190 128 190 112 226 c 1,0,-1
458 920 m 1,53,-1
 383 960 l 1,54,-1
 233 800 l 1,55,-1
 278 770 l 1,56,-1
 458 920 l 1,53,-1
EndSplineSet
EndChar

StartChar: Scircumflex
Encoding: 348 348 82
Width: 548
GlyphClass: 2
Flags: W
LayerCount: 2
Fore
SplineSet
112 226 m 1,0,-1
 40 183 l 1,1,2
 62 125 62 125 98.5 82 c 128,-1,3
 135 39 135 39 184 14.5 c 128,-1,4
 233 -10 233 -10 290 -10 c 0,5,6
 360 -10 360 -10 407 15 c 128,-1,7
 454 40 454 40 478.5 85.5 c 128,-1,8
 503 131 503 131 503 190 c 0,9,10
 503 238 503 238 486 272.5 c 128,-1,11
 469 307 469 307 442 330.5 c 128,-1,12
 415 354 415 354 384 370 c 128,-1,13
 353 386 353 386 326 396 c 0,14,15
 284 412 284 412 247 430 c 128,-1,16
 210 448 210 448 187 471.5 c 128,-1,17
 164 495 164 495 164 529 c 0,18,19
 164 560 164 560 178 582 c 128,-1,20
 192 604 192 604 218 616.5 c 128,-1,21
 244 629 244 629 279 629 c 0,22,23
 318 629 318 629 345 612.5 c 128,-1,24
 372 596 372 596 391 569.5 c 128,-1,25
 410 543 410 543 425 514 c 1,26,-1
 494 560 l 1,27,28
 480 596 480 596 450.5 630.5 c 128,-1,29
 421 665 421 665 378 687.5 c 128,-1,30
 335 710 335 710 278 710 c 256,31,32
 221 710 221 710 175 688.5 c 128,-1,33
 129 667 129 667 102 627.5 c 128,-1,34
 75 588 75 588 75 535 c 0,35,36
 75 490 75 490 92.5 457 c 128,-1,37
 110 424 110 424 137 401 c 128,-1,38
 164 378 164 378 194.5 362.5 c 128,-1,39
 225 347 225 347 251 338 c 0,40,41
 291 324 291 324 328.5 305 c 128,-1,42
 366 286 366 286 390.5 257 c 128,-1,43
 415 228 415 228 415 183 c 0,44,45
 415 148 415 148 401.5 122.5 c 128,-1,46
 388 97 388 97 361.5 83.5 c 128,-1,47
 335 70 335 70 295 70 c 0,48,49
 262 70 262 70 235.5 81 c 128,-1,50
 209 92 209 92 187 112 c 128,-1,51
 165 132 165 132 146.5 161 c 128,-1,52
 128 190 128 190 112 226 c 1,0,-1
278 865 m 1,53,-1
 388 770 l 1,54,-1
 438 810 l 1,55,-1
 278 950 l 1,56,-1
 118 810 l 1,57,-1
 168 770 l 1,58,-1
 278 865 l 1,53,-1
EndSplineSet
EndChar

StartChar: Scedilla
Encoding: 350 350 83
Width: 548
GlyphClass: 2
Flags: W
LayerCount: 2
Fore
SplineSet
112 226 m 1,0,-1
 40 183 l 1,1,2
 62 125 62 125 98.5 82 c 128,-1,3
 135 39 135 39 184 14.5 c 128,-1,4
 233 -10 233 -10 290 -10 c 0,5,6
 355 -10 355 -10 402.5 15 c 128,-1,7
 450 40 450 40 476.5 85.5 c 128,-1,8
 503 131 503 131 503 190 c 0,9,10
 503 238 503 238 486 272.5 c 128,-1,11
 469 307 469 307 442 330.5 c 128,-1,12
 415 354 415 354 384 370 c 128,-1,13
 353 386 353 386 326 396 c 0,14,15
 284 412 284 412 247 430 c 128,-1,16
 210 448 210 448 187 471.5 c 128,-1,17
 164 495 164 495 164 529 c 0,18,19
 164 560 164 560 175.5 582 c 128,-1,20
 187 604 187 604 210.5 616.5 c 128,-1,21
 234 629 234 629 269 629 c 0,22,23
 308 629 308 629 337.5 612.5 c 128,-1,24
 367 596 367 596 388.5 569.5 c 128,-1,25
 410 543 410 543 425 514 c 1,26,-1
 494 560 l 1,27,28
 476 601 476 601 447 635 c 128,-1,29
 418 669 418 669 376.5 689.5 c 128,-1,30
 335 710 335 710 278 710 c 0,31,32
 216 710 216 710 170.5 687 c 128,-1,33
 125 664 125 664 100 623.5 c 128,-1,34
 75 583 75 583 75 530 c 0,35,36
 75 482 75 482 92.5 449 c 128,-1,37
 110 416 110 416 137 395 c 128,-1,38
 164 374 164 374 194.5 360.5 c 128,-1,39
 225 347 225 347 251 338 c 0,40,41
 291 324 291 324 328.5 305 c 128,-1,42
 366 286 366 286 390.5 257 c 128,-1,43
 415 228 415 228 415 183 c 0,44,45
 415 148 415 148 401.5 122.5 c 128,-1,46
 388 97 388 97 361.5 83.5 c 128,-1,47
 335 70 335 70 295 70 c 0,48,49
 262 70 262 70 235.5 81 c 128,-1,50
 209 92 209 92 187 112 c 128,-1,51
 165 132 165 132 146.5 161 c 128,-1,52
 128 190 128 190 112 226 c 1,0,-1
300 59 m 1,53,-1
 214 -109 l 1,54,55
 230 -98 230 -98 247.5 -94.5 c 128,-1,56
 265 -91 265 -91 272 -91 c 0,57,58
 298 -91 298 -91 310 -100 c 128,-1,59
 322 -109 322 -109 322 -127 c 256,60,61
 322 -145 322 -145 310 -156 c 128,-1,62
 298 -167 298 -167 272 -167 c 0,63,64
 253 -167 253 -167 241.5 -161 c 128,-1,65
 230 -155 230 -155 216 -143 c 1,66,-1
 182 -183 l 1,67,68
 203 -204 203 -204 223.5 -212.5 c 128,-1,69
 244 -221 244 -221 272 -221 c 256,70,71
 300 -221 300 -221 324 -210 c 128,-1,72
 348 -199 348 -199 363 -178 c 128,-1,73
 378 -157 378 -157 378 -127 c 0,74,75
 378 -102 378 -102 367 -86 c 128,-1,76
 356 -70 356 -70 339.5 -61.5 c 128,-1,77
 323 -53 323 -53 306 -53 c 0,78,79
 304 -53 304 -53 301.5 -53 c 128,-1,80
 299 -53 299 -53 297 -53 c 1,81,-1
 360 59 l 1,82,-1
 300 59 l 1,53,-1
EndSplineSet
EndChar

StartChar: Scaron
Encoding: 352 352 84
Width: 548
GlyphClass: 2
Flags: W
LayerCount: 2
Fore
SplineSet
112 226 m 1,0,-1
 40 183 l 1,1,2
 62 125 62 125 98.5 82 c 128,-1,3
 135 39 135 39 184 14.5 c 128,-1,4
 233 -10 233 -10 290 -10 c 0,5,6
 360 -10 360 -10 407 15 c 128,-1,7
 454 40 454 40 478.5 85.5 c 128,-1,8
 503 131 503 131 503 190 c 0,9,10
 503 238 503 238 486 272.5 c 128,-1,11
 469 307 469 307 442 330.5 c 128,-1,12
 415 354 415 354 384 370 c 128,-1,13
 353 386 353 386 326 396 c 0,14,15
 284 412 284 412 247 430 c 128,-1,16
 210 448 210 448 187 471.5 c 128,-1,17
 164 495 164 495 164 529 c 0,18,19
 164 560 164 560 178 582 c 128,-1,20
 192 604 192 604 218 616.5 c 128,-1,21
 244 629 244 629 279 629 c 0,22,23
 318 629 318 629 345 612.5 c 128,-1,24
 372 596 372 596 391 569.5 c 128,-1,25
 410 543 410 543 425 514 c 1,26,-1
 494 560 l 1,27,28
 480 596 480 596 450.5 630.5 c 128,-1,29
 421 665 421 665 378 687.5 c 128,-1,30
 335 710 335 710 278 710 c 256,31,32
 221 710 221 710 175 688.5 c 128,-1,33
 129 667 129 667 102 627.5 c 128,-1,34
 75 588 75 588 75 535 c 0,35,36
 75 490 75 490 92.5 457 c 128,-1,37
 110 424 110 424 137 401 c 128,-1,38
 164 378 164 378 194.5 362.5 c 128,-1,39
 225 347 225 347 251 338 c 0,40,41
 291 324 291 324 328.5 305 c 128,-1,42
 366 286 366 286 390.5 257 c 128,-1,43
 415 228 415 228 415 183 c 0,44,45
 415 148 415 148 401.5 122.5 c 128,-1,46
 388 97 388 97 361.5 83.5 c 128,-1,47
 335 70 335 70 295 70 c 0,48,49
 262 70 262 70 235.5 81 c 128,-1,50
 209 92 209 92 187 112 c 128,-1,51
 165 132 165 132 146.5 161 c 128,-1,52
 128 190 128 190 112 226 c 1,0,-1
278 855 m 1,53,-1
 168 950 l 1,54,-1
 118 910 l 1,55,-1
 278 770 l 1,56,-1
 438 910 l 1,57,-1
 388 950 l 1,58,-1
 278 855 l 1,53,-1
EndSplineSet
EndChar

StartChar: uni0218
Encoding: 536 536 85
Width: 548
GlyphClass: 2
Flags: W
LayerCount: 2
Fore
SplineSet
112 226 m 1,0,-1
 40 183 l 1,1,2
 62 125 62 125 98.5 82 c 128,-1,3
 135 39 135 39 184 14.5 c 128,-1,4
 233 -10 233 -10 290 -10 c 0,5,6
 360 -10 360 -10 407 15 c 128,-1,7
 454 40 454 40 478.5 85.5 c 128,-1,8
 503 131 503 131 503 190 c 0,9,10
 503 238 503 238 486 272.5 c 128,-1,11
 469 307 469 307 442 330.5 c 128,-1,12
 415 354 415 354 384 370 c 128,-1,13
 353 386 353 386 326 396 c 0,14,15
 284 412 284 412 247 430 c 128,-1,16
 210 448 210 448 187 471.5 c 128,-1,17
 164 495 164 495 164 529 c 0,18,19
 164 560 164 560 178 582 c 128,-1,20
 192 604 192 604 218 616.5 c 128,-1,21
 244 629 244 629 279 629 c 0,22,23
 318 629 318 629 345 612.5 c 128,-1,24
 372 596 372 596 391 569.5 c 128,-1,25
 410 543 410 543 425 514 c 1,26,-1
 494 560 l 1,27,28
 480 596 480 596 450.5 630.5 c 128,-1,29
 421 665 421 665 378 687.5 c 128,-1,30
 335 710 335 710 278 710 c 256,31,32
 221 710 221 710 175 688.5 c 128,-1,33
 129 667 129 667 102 627.5 c 128,-1,34
 75 588 75 588 75 535 c 0,35,36
 75 490 75 490 92.5 457 c 128,-1,37
 110 424 110 424 137 401 c 128,-1,38
 164 378 164 378 194.5 362.5 c 128,-1,39
 225 347 225 347 251 338 c 0,40,41
 291 324 291 324 328.5 305 c 128,-1,42
 366 286 366 286 390.5 257 c 128,-1,43
 415 228 415 228 415 183 c 0,44,45
 415 148 415 148 401.5 122.5 c 128,-1,46
 388 97 388 97 361.5 83.5 c 128,-1,47
 335 70 335 70 295 70 c 0,48,49
 262 70 262 70 235.5 81 c 128,-1,50
 209 92 209 92 187 112 c 128,-1,51
 165 132 165 132 146.5 161 c 128,-1,52
 128 190 128 190 112 226 c 1,0,-1
294 -70 m 1,53,-1
 206 -329 l 1,54,-1
 264 -350 l 1,55,-1
 374 -100 l 1,56,-1
 294 -70 l 1,53,-1
EndSplineSet
EndChar

StartChar: T
Encoding: 84 84 86
Width: 465
GlyphClass: 2
Flags: W
LayerCount: 2
Fore
SplineSet
10 620 m 1,0,-1
 190 620 l 1,1,-1
 190 0 l 1,2,-1
 275 0 l 1,3,-1
 275 620 l 1,4,-1
 455 620 l 1,5,-1
 455 700 l 1,6,-1
 10 700 l 1,7,-1
 10 620 l 1,0,-1
EndSplineSet
EndChar

StartChar: Tcaron
Encoding: 356 356 88
Width: 465
GlyphClass: 2
Flags: W
LayerCount: 2
Fore
SplineSet
10 620 m 1,0,-1
 190 620 l 1,1,-1
 190 0 l 1,2,-1
 275 0 l 1,3,-1
 275 620 l 1,4,-1
 455 620 l 1,5,-1
 455 700 l 1,6,-1
 10 700 l 1,7,-1
 10 620 l 1,0,-1
233 855 m 1,8,-1
 123 950 l 1,9,-1
 73 910 l 1,10,-1
 233 770 l 1,11,-1
 393 910 l 1,12,-1
 343 950 l 1,13,-1
 233 855 l 1,8,-1
EndSplineSet
EndChar

StartChar: uni021A
Encoding: 538 538 89
Width: 465
GlyphClass: 2
Flags: W
LayerCount: 2
Fore
SplineSet
10 620 m 1,0,-1
 190 620 l 1,1,-1
 190 0 l 1,2,-1
 275 0 l 1,3,-1
 275 620 l 1,4,-1
 455 620 l 1,5,-1
 455 700 l 1,6,-1
 10 700 l 1,7,-1
 10 620 l 1,0,-1
237 -60 m 1,8,-1
 149 -319 l 1,9,-1
 207 -340 l 1,10,-1
 317 -90 l 1,11,-1
 237 -60 l 1,8,-1
EndSplineSet
EndChar

StartChar: U
Encoding: 85 85 90
Width: 626
GlyphClass: 2
Flags: W
LayerCount: 2
Fore
SplineSet
75 700 m 1,0,-1
 75 230 l 2,1,2
 75 178 75 178 91.5 134 c 128,-1,3
 108 90 108 90 139.5 58 c 128,-1,4
 171 26 171 26 215 8 c 128,-1,5
 259 -10 259 -10 313 -10 c 256,6,7
 367 -10 367 -10 411 8 c 128,-1,8
 455 26 455 26 486.5 58 c 128,-1,9
 518 90 518 90 534.5 134 c 128,-1,10
 551 178 551 178 551 230 c 2,11,-1
 551 700 l 1,12,-1
 466 700 l 1,13,-1
 466 230 l 2,14,15
 466 158 466 158 427 114 c 128,-1,16
 388 70 388 70 313 70 c 256,17,18
 238 70 238 70 199 114 c 128,-1,19
 160 158 160 158 160 230 c 2,20,-1
 160 700 l 1,21,-1
 75 700 l 1,0,-1
EndSplineSet
EndChar

StartChar: Ugrave
Encoding: 217 217 91
Width: 626
GlyphClass: 2
Flags: W
LayerCount: 2
Fore
SplineSet
75 700 m 1,0,-1
 75 230 l 2,1,2
 75 178 75 178 91.5 134 c 128,-1,3
 108 90 108 90 139.5 58 c 128,-1,4
 171 26 171 26 215 8 c 128,-1,5
 259 -10 259 -10 313 -10 c 256,6,7
 367 -10 367 -10 411 8 c 128,-1,8
 455 26 455 26 486.5 58 c 128,-1,9
 518 90 518 90 534.5 134 c 128,-1,10
 551 178 551 178 551 230 c 2,11,-1
 551 700 l 1,12,-1
 466 700 l 1,13,-1
 466 230 l 2,14,15
 466 158 466 158 427 114 c 128,-1,16
 388 70 388 70 313 70 c 256,17,18
 238 70 238 70 199 114 c 128,-1,19
 160 158 160 158 160 230 c 2,20,-1
 160 700 l 1,21,-1
 75 700 l 1,0,-1
183 920 m 1,22,-1
 363 770 l 1,23,-1
 408 800 l 1,24,-1
 258 960 l 1,25,-1
 183 920 l 1,22,-1
EndSplineSet
EndChar

StartChar: Uacute
Encoding: 218 218 92
Width: 626
GlyphClass: 2
Flags: W
LayerCount: 2
Fore
SplineSet
75 700 m 1,0,-1
 75 230 l 2,1,2
 75 178 75 178 91.5 134 c 128,-1,3
 108 90 108 90 139.5 58 c 128,-1,4
 171 26 171 26 215 8 c 128,-1,5
 259 -10 259 -10 313 -10 c 256,6,7
 367 -10 367 -10 411 8 c 128,-1,8
 455 26 455 26 486.5 58 c 128,-1,9
 518 90 518 90 534.5 134 c 128,-1,10
 551 178 551 178 551 230 c 2,11,-1
 551 700 l 1,12,-1
 466 700 l 1,13,-1
 466 230 l 2,14,15
 466 158 466 158 427 114 c 128,-1,16
 388 70 388 70 313 70 c 256,17,18
 238 70 238 70 199 114 c 128,-1,19
 160 158 160 158 160 230 c 2,20,-1
 160 700 l 1,21,-1
 75 700 l 1,0,-1
443 920 m 1,22,-1
 368 960 l 1,23,-1
 218 800 l 1,24,-1
 263 770 l 1,25,-1
 443 920 l 1,22,-1
EndSplineSet
EndChar

StartChar: Ucircumflex
Encoding: 219 219 93
Width: 626
GlyphClass: 2
Flags: W
LayerCount: 2
Fore
SplineSet
75 700 m 1,0,-1
 75 230 l 2,1,2
 75 178 75 178 91.5 134 c 128,-1,3
 108 90 108 90 139.5 58 c 128,-1,4
 171 26 171 26 215 8 c 128,-1,5
 259 -10 259 -10 313 -10 c 256,6,7
 367 -10 367 -10 411 8 c 128,-1,8
 455 26 455 26 486.5 58 c 128,-1,9
 518 90 518 90 534.5 134 c 128,-1,10
 551 178 551 178 551 230 c 2,11,-1
 551 700 l 1,12,-1
 466 700 l 1,13,-1
 466 230 l 2,14,15
 466 158 466 158 427 114 c 128,-1,16
 388 70 388 70 313 70 c 256,17,18
 238 70 238 70 199 114 c 128,-1,19
 160 158 160 158 160 230 c 2,20,-1
 160 700 l 1,21,-1
 75 700 l 1,0,-1
313 865 m 1,22,-1
 423 770 l 1,23,-1
 473 810 l 1,24,-1
 313 950 l 1,25,-1
 153 810 l 1,26,-1
 203 770 l 1,27,-1
 313 865 l 1,22,-1
EndSplineSet
EndChar

StartChar: Udieresis
Encoding: 220 220 94
Width: 626
GlyphClass: 2
Flags: W
LayerCount: 2
Fore
SplineSet
75 700 m 1,0,-1
 75 230 l 2,1,2
 75 178 75 178 91.5 134 c 128,-1,3
 108 90 108 90 139.5 58 c 128,-1,4
 171 26 171 26 215 8 c 128,-1,5
 259 -10 259 -10 313 -10 c 256,6,7
 367 -10 367 -10 411 8 c 128,-1,8
 455 26 455 26 486.5 58 c 128,-1,9
 518 90 518 90 534.5 134 c 128,-1,10
 551 178 551 178 551 230 c 2,11,-1
 551 700 l 1,12,-1
 466 700 l 1,13,-1
 466 230 l 2,14,15
 466 158 466 158 427 114 c 128,-1,16
 388 70 388 70 313 70 c 256,17,18
 238 70 238 70 199 114 c 128,-1,19
 160 158 160 158 160 230 c 2,20,-1
 160 700 l 1,21,-1
 75 700 l 1,0,-1
358 825 m 0,22,23
 358 803 358 803 374.5 786.5 c 128,-1,24
 391 770 391 770 413 770 c 0,25,26
 436 770 436 770 452 786.5 c 128,-1,27
 468 803 468 803 468 825 c 0,28,29
 468 848 468 848 452 864 c 128,-1,30
 436 880 436 880 413 880 c 0,31,32
 391 880 391 880 374.5 864 c 128,-1,33
 358 848 358 848 358 825 c 0,22,23
158 825 m 0,34,35
 158 803 158 803 174.5 786.5 c 128,-1,36
 191 770 191 770 213 770 c 0,37,38
 236 770 236 770 252 786.5 c 128,-1,39
 268 803 268 803 268 825 c 0,40,41
 268 848 268 848 252 864 c 128,-1,42
 236 880 236 880 213 880 c 0,43,44
 191 880 191 880 174.5 864 c 128,-1,45
 158 848 158 848 158 825 c 0,34,35
EndSplineSet
EndChar

StartChar: Utilde
Encoding: 360 360 95
Width: 626
GlyphClass: 2
Flags: W
LayerCount: 2
Fore
SplineSet
75 700 m 1,0,-1
 75 230 l 2,1,2
 75 178 75 178 91.5 134 c 128,-1,3
 108 90 108 90 139.5 58 c 128,-1,4
 171 26 171 26 215 8 c 128,-1,5
 259 -10 259 -10 313 -10 c 256,6,7
 367 -10 367 -10 411 8 c 128,-1,8
 455 26 455 26 486.5 58 c 128,-1,9
 518 90 518 90 534.5 134 c 128,-1,10
 551 178 551 178 551 230 c 2,11,-1
 551 700 l 1,12,-1
 466 700 l 1,13,-1
 466 230 l 2,14,15
 466 158 466 158 427 114 c 128,-1,16
 388 70 388 70 313 70 c 256,17,18
 238 70 238 70 199 114 c 128,-1,19
 160 158 160 158 160 230 c 2,20,-1
 160 700 l 1,21,-1
 75 700 l 1,0,-1
148 807 m 1,22,-1
 201 770 l 1,23,24
 201 778 201 778 205 790 c 128,-1,25
 209 802 209 802 220 811.5 c 128,-1,26
 231 821 231 821 251 821 c 0,27,28
 274 821 274 821 290.5 809.5 c 128,-1,29
 307 798 307 798 326 786 c 128,-1,30
 345 774 345 774 372 774 c 0,31,32
 397 774 397 774 418 784.5 c 128,-1,33
 439 795 439 795 454.5 812 c 128,-1,34
 470 829 470 829 478 847 c 1,35,-1
 432 890 l 1,36,37
 417 866 417 866 403.5 854 c 128,-1,38
 390 842 390 842 376 842 c 0,39,40
 356 842 356 842 343 849 c 128,-1,41
 330 856 330 856 318.5 865.5 c 128,-1,42
 307 875 307 875 291.5 882 c 128,-1,43
 276 889 276 889 252 889 c 0,44,45
 230 889 230 889 207.5 878.5 c 128,-1,46
 185 868 185 868 169 850 c 128,-1,47
 153 832 153 832 148 807 c 1,22,-1
EndSplineSet
EndChar

StartChar: Umacron
Encoding: 362 362 96
Width: 626
GlyphClass: 2
Flags: W
LayerCount: 2
Fore
SplineSet
75 700 m 1,0,-1
 75 230 l 2,1,2
 75 178 75 178 91.5 134 c 128,-1,3
 108 90 108 90 139.5 58 c 128,-1,4
 171 26 171 26 215 8 c 128,-1,5
 259 -10 259 -10 313 -10 c 256,6,7
 367 -10 367 -10 411 8 c 128,-1,8
 455 26 455 26 486.5 58 c 128,-1,9
 518 90 518 90 534.5 134 c 128,-1,10
 551 178 551 178 551 230 c 2,11,-1
 551 700 l 1,12,-1
 466 700 l 1,13,-1
 466 230 l 2,14,15
 466 158 466 158 427 114 c 128,-1,16
 388 70 388 70 313 70 c 256,17,18
 238 70 238 70 199 114 c 128,-1,19
 160 158 160 158 160 230 c 2,20,-1
 160 700 l 1,21,-1
 75 700 l 1,0,-1
138 770 m 1,22,-1
 488 770 l 1,23,-1
 488 845 l 1,24,-1
 138 845 l 1,25,-1
 138 770 l 1,22,-1
EndSplineSet
EndChar

StartChar: Ubreve
Encoding: 364 364 97
Width: 626
GlyphClass: 2
Flags: W
LayerCount: 2
Fore
SplineSet
75 700 m 1,0,-1
 75 230 l 2,1,2
 75 178 75 178 91.5 134 c 128,-1,3
 108 90 108 90 139.5 58 c 128,-1,4
 171 26 171 26 215 8 c 128,-1,5
 259 -10 259 -10 313 -10 c 256,6,7
 367 -10 367 -10 411 8 c 128,-1,8
 455 26 455 26 486.5 58 c 128,-1,9
 518 90 518 90 534.5 134 c 128,-1,10
 551 178 551 178 551 230 c 2,11,-1
 551 700 l 1,12,-1
 466 700 l 1,13,-1
 466 230 l 2,14,15
 466 158 466 158 427 114 c 128,-1,16
 388 70 388 70 313 70 c 256,17,18
 238 70 238 70 199 114 c 128,-1,19
 160 158 160 158 160 230 c 2,20,-1
 160 700 l 1,21,-1
 75 700 l 1,0,-1
155 910 m 1,22,23
 155 876 155 876 172.5 843.5 c 128,-1,24
 190 811 190 811 225.5 790.5 c 128,-1,25
 261 770 261 770 313 770 c 0,26,27
 366 770 366 770 401 790.5 c 128,-1,28
 436 811 436 811 453.5 843.5 c 128,-1,29
 471 876 471 876 471 910 c 1,30,-1
 400 910 l 1,31,32
 400 897 400 897 393 879.5 c 128,-1,33
 386 862 386 862 367 848.5 c 128,-1,34
 348 835 348 835 313 835 c 256,35,36
 278 835 278 835 259 848.5 c 128,-1,37
 240 862 240 862 233 879.5 c 128,-1,38
 226 897 226 897 226 910 c 1,39,-1
 155 910 l 1,22,23
EndSplineSet
EndChar

StartChar: Uring
Encoding: 366 366 98
Width: 626
GlyphClass: 2
Flags: W
LayerCount: 2
Fore
SplineSet
75 700 m 1,0,-1
 75 230 l 2,1,2
 75 178 75 178 91.5 134 c 128,-1,3
 108 90 108 90 139.5 58 c 128,-1,4
 171 26 171 26 215 8 c 128,-1,5
 259 -10 259 -10 313 -10 c 256,6,7
 367 -10 367 -10 411 8 c 128,-1,8
 455 26 455 26 486.5 58 c 128,-1,9
 518 90 518 90 534.5 134 c 128,-1,10
 551 178 551 178 551 230 c 2,11,-1
 551 700 l 1,12,-1
 466 700 l 1,13,-1
 466 230 l 2,14,15
 466 158 466 158 427 114 c 128,-1,16
 388 70 388 70 313 70 c 256,17,18
 238 70 238 70 199 114 c 128,-1,19
 160 158 160 158 160 230 c 2,20,-1
 160 700 l 1,21,-1
 75 700 l 1,0,-1
211 870 m 256,22,23
 211 825 211 825 242.5 797.5 c 128,-1,24
 274 770 274 770 313 770 c 256,25,26
 352 770 352 770 383.5 797.5 c 128,-1,27
 415 825 415 825 415 870 c 256,28,29
 415 915 415 915 383.5 942.5 c 128,-1,30
 352 970 352 970 313 970 c 256,31,32
 274 970 274 970 242.5 942.5 c 128,-1,33
 211 915 211 915 211 870 c 256,22,23
262 870 m 256,34,35
 262 895 262 895 278 909 c 128,-1,36
 294 923 294 923 313 923 c 256,37,38
 332 923 332 923 348 909 c 128,-1,39
 364 895 364 895 364 870 c 256,40,41
 364 845 364 845 348 831 c 128,-1,42
 332 817 332 817 313 817 c 256,43,44
 294 817 294 817 278 831 c 128,-1,45
 262 845 262 845 262 870 c 256,34,35
EndSplineSet
EndChar

StartChar: V
Encoding: 86 86 101
Width: 660
GlyphClass: 2
Flags: W
LayerCount: 2
Fore
SplineSet
330 158 m 1,0,-1
 100 700 l 1,1,-1
 5 700 l 1,2,-1
 330 -35 l 1,3,-1
 655 700 l 1,4,-1
 560 700 l 1,5,-1
 330 158 l 1,0,-1
EndSplineSet
EndChar

StartChar: W
Encoding: 87 87 102
Width: 990
GlyphClass: 2
Flags: W
LayerCount: 2
Fore
SplineSet
703 185 m 1,0,-1
 495 735 l 1,1,-1
 291 185 l 1,2,-1
 105 700 l 1,3,-1
 10 700 l 1,4,-1
 285 -35 l 1,5,-1
 495 509 l 1,6,-1
 705 -35 l 1,7,-1
 980 700 l 1,8,-1
 885 700 l 1,9,-1
 703 185 l 1,0,-1
EndSplineSet
EndChar

StartChar: Wcircumflex
Encoding: 372 372 103
Width: 990
GlyphClass: 2
Flags: W
LayerCount: 2
Fore
SplineSet
700 175 m 1,0,-1
 495 735 l 1,1,-1
 290 175 l 1,2,-1
 105 700 l 1,3,-1
 10 700 l 1,4,-1
 285 -35 l 1,5,-1
 495 509 l 1,6,-1
 705 -35 l 1,7,-1
 980 700 l 1,8,-1
 885 700 l 1,9,-1
 700 175 l 1,0,-1
495 890 m 1,10,-1
 605 795 l 1,11,-1
 655 835 l 1,12,-1
 495 975 l 1,13,-1
 335 835 l 1,14,-1
 385 795 l 1,15,-1
 495 890 l 1,10,-1
EndSplineSet
EndChar

StartChar: X
Encoding: 88 88 109
Width: 555
GlyphClass: 2
Flags: W
LayerCount: 2
Fore
SplineSet
430 700 m 1,0,-1
 281 441 l 1,1,-1
 135 700 l 1,2,-1
 35 700 l 1,3,-1
 238 367 l 1,4,-1
 10 0 l 1,5,-1
 110 0 l 1,6,-1
 280 293 l 1,7,-1
 445 0 l 1,8,-1
 545 0 l 1,9,-1
 323 367 l 1,10,-1
 530 700 l 1,11,-1
 430 700 l 1,0,-1
EndSplineSet
EndChar

StartChar: Y
Encoding: 89 89 110
Width: 561
GlyphClass: 2
Flags: W
LayerCount: 2
Fore
SplineSet
461 700 m 1,0,-1
 280 376 l 1,1,-1
 100 700 l 1,2,-1
 5 700 l 1,3,-1
 238 301 l 1,4,-1
 238 0 l 1,5,-1
 323 0 l 1,6,-1
 323 302 l 1,7,-1
 556 700 l 1,8,-1
 461 700 l 1,0,-1
EndSplineSet
EndChar

StartChar: Yacute
Encoding: 221 221 111
Width: 561
GlyphClass: 2
Flags: W
LayerCount: 2
Fore
SplineSet
410 920 m 1,0,-1
 336 960 l 1,1,-1
 186 800 l 1,2,-1
 230 770 l 1,3,-1
 410 920 l 1,0,-1
461 700 m 1,4,-1
 280 376 l 1,5,-1
 100 700 l 1,6,-1
 5 700 l 1,7,-1
 238 301 l 1,8,-1
 238 0 l 1,9,-1
 323 0 l 1,10,-1
 323 302 l 1,11,-1
 556 700 l 1,12,-1
 461 700 l 1,4,-1
EndSplineSet
EndChar

StartChar: Ycircumflex
Encoding: 374 374 112
Width: 561
GlyphClass: 2
Flags: W
LayerCount: 2
Fore
SplineSet
461 700 m 1,0,-1
 280 376 l 1,1,-1
 100 700 l 1,2,-1
 5 700 l 1,3,-1
 238 301 l 1,4,-1
 238 0 l 1,5,-1
 323 0 l 1,6,-1
 323 302 l 1,7,-1
 556 700 l 1,8,-1
 461 700 l 1,0,-1
281 865 m 1,9,-1
 391 770 l 1,10,-1
 441 810 l 1,11,-1
 281 950 l 1,12,-1
 121 810 l 1,13,-1
 171 770 l 1,14,-1
 281 865 l 1,9,-1
EndSplineSet
EndChar

StartChar: Ydieresis
Encoding: 376 376 113
Width: 561
GlyphClass: 2
Flags: W
LayerCount: 2
Fore
SplineSet
126 825 m 0,0,1
 126 803 126 803 142 786.5 c 128,-1,2
 158 770 158 770 180 770 c 0,3,4
 203 770 203 770 219.5 786.5 c 128,-1,5
 236 803 236 803 236 825 c 0,6,7
 236 848 236 848 219.5 864 c 128,-1,8
 203 880 203 880 180 880 c 0,9,10
 158 880 158 880 142 864 c 128,-1,11
 126 848 126 848 126 825 c 0,0,1
326 825 m 0,12,13
 326 803 326 803 342 786.5 c 128,-1,14
 358 770 358 770 380 770 c 0,15,16
 403 770 403 770 419.5 786.5 c 128,-1,17
 436 803 436 803 436 825 c 0,18,19
 436 848 436 848 419.5 864 c 128,-1,20
 403 880 403 880 380 880 c 0,21,22
 358 880 358 880 342 864 c 128,-1,23
 326 848 326 848 326 825 c 0,12,13
461 700 m 1,24,-1
 280 376 l 1,25,-1
 100 700 l 1,26,-1
 5 700 l 1,27,-1
 238 301 l 1,28,-1
 238 0 l 1,29,-1
 323 0 l 1,30,-1
 323 302 l 1,31,-1
 556 700 l 1,32,-1
 461 700 l 1,24,-1
EndSplineSet
EndChar

StartChar: Z
Encoding: 90 90 115
Width: 545
GlyphClass: 2
Flags: W
LayerCount: 2
Fore
SplineSet
35 620 m 1,0,-1
 383 620 l 1,1,-1
 15 0 l 1,2,-1
 505 0 l 1,3,-1
 505 80 l 1,4,-1
 157 80 l 1,5,-1
 525 700 l 1,6,-1
 35 700 l 1,7,-1
 35 620 l 1,0,-1
EndSplineSet
EndChar

StartChar: Zacute
Encoding: 377 377 116
Width: 545
GlyphClass: 2
Flags: W
LayerCount: 2
Fore
SplineSet
35 620 m 1,0,-1
 383 620 l 1,1,-1
 15 0 l 1,2,-1
 505 0 l 1,3,-1
 505 80 l 1,4,-1
 157 80 l 1,5,-1
 525 700 l 1,6,-1
 35 700 l 1,7,-1
 35 620 l 1,0,-1
440 920 m 1,8,-1
 365 960 l 1,9,-1
 215 800 l 1,10,-1
 260 770 l 1,11,-1
 440 920 l 1,8,-1
EndSplineSet
EndChar

StartChar: Zdotaccent
Encoding: 379 379 117
Width: 545
GlyphClass: 2
Flags: W
LayerCount: 2
Fore
SplineSet
35 620 m 1,0,-1
 383 620 l 1,1,-1
 15 0 l 1,2,-1
 505 0 l 1,3,-1
 505 80 l 1,4,-1
 157 80 l 1,5,-1
 525 700 l 1,6,-1
 35 700 l 1,7,-1
 35 620 l 1,0,-1
225 825 m 0,8,9
 225 803 225 803 241.5 786.5 c 128,-1,10
 258 770 258 770 280 770 c 0,11,12
 303 770 303 770 319 786.5 c 128,-1,13
 335 803 335 803 335 825 c 0,14,15
 335 848 335 848 319 864 c 128,-1,16
 303 880 303 880 280 880 c 0,17,18
 258 880 258 880 241.5 864 c 128,-1,19
 225 848 225 848 225 825 c 0,8,9
EndSplineSet
EndChar

StartChar: Zcaron
Encoding: 381 381 118
Width: 545
GlyphClass: 2
Flags: W
LayerCount: 2
Fore
SplineSet
35 620 m 1,0,-1
 383 620 l 1,1,-1
 15 0 l 1,2,-1
 505 0 l 1,3,-1
 505 80 l 1,4,-1
 157 80 l 1,5,-1
 525 700 l 1,6,-1
 35 700 l 1,7,-1
 35 620 l 1,0,-1
280 855 m 1,8,-1
 170 950 l 1,9,-1
 120 910 l 1,10,-1
 280 770 l 1,11,-1
 440 910 l 1,12,-1
 390 950 l 1,13,-1
 280 855 l 1,8,-1
EndSplineSet
EndChar

StartChar: AE
Encoding: 198 198 119
Width: 960
GlyphClass: 2
Flags: W
LayerCount: 2
Fore
SplineSet
217 210 m 1,0,-1
 517 210 l 1,1,-1
 517 290 l 1,2,-1
 217 290 l 1,3,-1
 217 210 l 1,0,-1
435 700 m 1,4,-1
 5 0 l 1,5,-1
 100 0 l 1,6,-1
 504 660 l 1,7,-1
 435 700 l 1,4,-1
537 0 m 1,8,-1
 890 0 l 1,9,-1
 890 80 l 1,10,-1
 537 80 l 1,11,-1
 537 0 l 1,8,-1
545 620 m 1,12,-1
 890 620 l 1,13,-1
 890 700 l 1,14,-1
 435 700 l 1,15,-1
 545 620 l 1,12,-1
537 340 m 1,16,-1
 870 340 l 1,17,-1
 870 420 l 1,18,-1
 537 420 l 1,19,-1
 537 340 l 1,16,-1
490 700 m 1,20,-1
 490 0 l 1,21,-1
 575 0 l 1,22,-1
 575 700 l 1,23,-1
 490 700 l 1,20,-1
EndSplineSet
EndChar

StartChar: Eth
Encoding: 208 208 120
Width: 680
GlyphClass: 2
Flags: W
LayerCount: 2
Fore
SplineSet
5 310 m 1,0,-1
 305 310 l 1,1,-1
 305 385 l 1,2,-1
 5 385 l 1,3,-1
 5 310 l 1,0,-1
80 700 m 1,4,-1
 80 0 l 1,5,-1
 165 0 l 1,6,-1
 165 700 l 1,7,-1
 80 700 l 1,4,-1
290 0 m 2,8,9
 392 0 392 0 471 44 c 128,-1,10
 550 88 550 88 595 166.5 c 128,-1,11
 640 245 640 245 640 350 c 256,12,13
 640 455 640 455 595 533.5 c 128,-1,14
 550 612 550 612 471 656 c 128,-1,15
 392 700 392 700 290 700 c 2,16,-1
 127 700 l 1,17,-1
 127 615 l 1,18,-1
 290 615 l 2,19,20
 349 615 349 615 398 596.5 c 128,-1,21
 447 578 447 578 482 543.5 c 128,-1,22
 517 509 517 509 536 460 c 128,-1,23
 555 411 555 411 555 350 c 256,24,25
 555 289 555 289 536 240 c 128,-1,26
 517 191 517 191 482 156.5 c 128,-1,27
 447 122 447 122 398 103.5 c 128,-1,28
 349 85 349 85 290 85 c 2,29,-1
 127 85 l 1,30,-1
 127 0 l 1,31,-1
 290 0 l 2,8,9
EndSplineSet
EndChar

StartChar: Oslash
Encoding: 216 216 121
Width: 790
GlyphClass: 2
Flags: W
LayerCount: 2
Fore
SplineSet
130 350 m 256,0,1
 130 429 130 429 164.5 491 c 128,-1,2
 199 553 199 553 259 589 c 128,-1,3
 319 625 319 625 395 625 c 0,4,5
 472 625 472 625 531.5 589 c 128,-1,6
 591 553 591 553 625.5 491 c 128,-1,7
 660 429 660 429 660 350 c 256,8,9
 660 271 660 271 625.5 209 c 128,-1,10
 591 147 591 147 531.5 111 c 128,-1,11
 472 75 472 75 395 75 c 0,12,13
 319 75 319 75 259 111 c 128,-1,14
 199 147 199 147 164.5 209 c 128,-1,15
 130 271 130 271 130 350 c 256,0,1
40 350 m 0,16,17
 40 274 40 274 66.5 208 c 128,-1,18
 93 142 93 142 141 93.5 c 128,-1,19
 189 45 189 45 254 17.5 c 128,-1,20
 319 -10 319 -10 395 -10 c 0,21,22
 472 -10 472 -10 536.5 17.5 c 128,-1,23
 601 45 601 45 649 93.5 c 128,-1,24
 697 142 697 142 723.5 208 c 128,-1,25
 750 274 750 274 750 350 c 0,26,27
 750 427 750 427 723.5 492.5 c 128,-1,28
 697 558 697 558 649 606.5 c 128,-1,29
 601 655 601 655 536.5 682.5 c 128,-1,30
 472 710 472 710 395 710 c 0,31,32
 319 710 319 710 254 682.5 c 128,-1,33
 189 655 189 655 141 606.5 c 128,-1,34
 93 558 93 558 66.5 492.5 c 128,-1,35
 40 427 40 427 40 350 c 0,16,17
688 750 m 1,36,-1
 40 -10 l 1,37,-1
 98 -50 l 1,38,-1
 747 710 l 1,39,-1
 688 750 l 1,36,-1
EndSplineSet
EndChar

StartChar: Thorn
Encoding: 222 222 122
Width: 550
GlyphClass: 2
Flags: W
LayerCount: 2
Fore
SplineSet
80 700 m 1,0,-1
 80 0 l 1,1,-1
 165 0 l 1,2,-1
 165 700 l 1,3,-1
 80 700 l 1,0,-1
127 480 m 1,4,-1
 270 480 l 2,5,6
 315 480 315 480 349.5 465.5 c 128,-1,7
 384 451 384 451 403.5 422 c 128,-1,8
 423 393 423 393 423 350 c 256,9,10
 423 307 423 307 403.5 278 c 128,-1,11
 384 249 384 249 349.5 234.5 c 128,-1,12
 315 220 315 220 270 220 c 2,13,-1
 127 220 l 1,14,-1
 127 140 l 1,15,-1
 270 140 l 2,16,17
 338 140 338 140 391.5 165.5 c 128,-1,18
 445 191 445 191 476.5 238.5 c 128,-1,19
 508 286 508 286 508 350 c 0,20,21
 508 415 508 415 476.5 462 c 128,-1,22
 445 509 445 509 391.5 534.5 c 128,-1,23
 338 560 338 560 270 560 c 2,24,-1
 127 560 l 1,25,-1
 127 480 l 1,4,-1
EndSplineSet
EndChar

StartChar: Dcroat
Encoding: 272 272 123
Width: 680
GlyphClass: 2
Flags: W
LayerCount: 2
Fore
SplineSet
5 310 m 1,0,-1
 305 310 l 1,1,-1
 305 385 l 1,2,-1
 5 385 l 1,3,-1
 5 310 l 1,0,-1
80 700 m 1,4,-1
 80 0 l 1,5,-1
 165 0 l 1,6,-1
 165 700 l 1,7,-1
 80 700 l 1,4,-1
290 0 m 2,8,9
 392 0 392 0 471 44 c 128,-1,10
 550 88 550 88 595 166.5 c 128,-1,11
 640 245 640 245 640 350 c 256,12,13
 640 455 640 455 595 533.5 c 128,-1,14
 550 612 550 612 471 656 c 128,-1,15
 392 700 392 700 290 700 c 2,16,-1
 127 700 l 1,17,-1
 127 615 l 1,18,-1
 290 615 l 2,19,20
 349 615 349 615 398 596.5 c 128,-1,21
 447 578 447 578 482 543.5 c 128,-1,22
 517 509 517 509 536 460 c 128,-1,23
 555 411 555 411 555 350 c 256,24,25
 555 289 555 289 536 240 c 128,-1,26
 517 191 517 191 482 156.5 c 128,-1,27
 447 122 447 122 398 103.5 c 128,-1,28
 349 85 349 85 290 85 c 2,29,-1
 127 85 l 1,30,-1
 127 0 l 1,31,-1
 290 0 l 2,8,9
EndSplineSet
EndChar

StartChar: Hbar
Encoding: 294 294 124
Width: 715
GlyphClass: 2
Flags: W
LayerCount: 2
Fore
SplineSet
127 340 m 1,0,-1
 607 340 l 1,1,-1
 607 420 l 1,2,-1
 127 420 l 1,3,-1
 127 340 l 1,0,-1
550 700 m 1,4,-1
 550 0 l 1,5,-1
 635 0 l 1,6,-1
 635 700 l 1,7,-1
 550 700 l 1,4,-1
80 700 m 1,8,-1
 80 0 l 1,9,-1
 165 0 l 1,10,-1
 165 700 l 1,11,-1
 80 700 l 1,8,-1
5 540 m 1,12,-1
 710 540 l 1,13,-1
 710 615 l 1,14,-1
 5 615 l 1,15,-1
 5 540 l 1,12,-1
EndSplineSet
EndChar

StartChar: IJ
Encoding: 306 306 125
Width: 490
GlyphClass: 2
Flags: W
LayerCount: 2
Fore
SplineSet
183 -104 m 1,0,-1
 139 -170 l 1,1,2
 147 -180 147 -180 164.5 -191.5 c 128,-1,3
 182 -203 182 -203 206.5 -211.5 c 128,-1,4
 231 -220 231 -220 257 -220 c 0,5,6
 292 -220 292 -220 320.5 -210.5 c 128,-1,7
 349 -201 349 -201 369 -181 c 128,-1,8
 389 -161 389 -161 399.5 -131 c 128,-1,9
 410 -101 410 -101 410 -60 c 2,10,-1
 410 700 l 1,11,-1
 330 700 l 1,12,-1
 330 -50 l 2,13,14
 330 -99 330 -99 307.5 -119.5 c 128,-1,15
 285 -140 285 -140 262 -140 c 0,16,17
 235 -140 235 -140 214.5 -130.5 c 128,-1,18
 194 -121 194 -121 183 -104 c 1,0,-1
80 700 m 1,19,-1
 80 0 l 1,20,-1
 165 0 l 1,21,-1
 165 700 l 1,22,-1
 80 700 l 1,19,-1
EndSplineSet
EndChar

StartChar: Ldot
Encoding: 319 319 126
Width: 450
GlyphClass: 2
Flags: W
LayerCount: 2
Fore
SplineSet
80 700 m 1,0,-1
 80 0 l 1,1,-1
 440 0 l 1,2,-1
 440 80 l 1,3,-1
 165 80 l 1,4,-1
 165 700 l 1,5,-1
 80 700 l 1,0,-1
255 415 m 0,6,7
 255 393 255 393 271.5 376.5 c 128,-1,8
 288 360 288 360 310 360 c 0,9,10
 333 360 333 360 349 376.5 c 128,-1,11
 365 393 365 393 365 415 c 0,12,13
 365 438 365 438 349 454 c 128,-1,14
 333 470 333 470 310 470 c 0,15,16
 288 470 288 470 271.5 454 c 128,-1,17
 255 438 255 438 255 415 c 0,6,7
EndSplineSet
EndChar

StartChar: Lslash
Encoding: 321 321 127
Width: 450
GlyphClass: 2
Flags: W
LayerCount: 2
Fore
SplineSet
5 340 m 1,0,-1
 275 510 l 1,1,-1
 255 565 l 1,2,-1
 -15 395 l 1,3,-1
 5 340 l 1,0,-1
80 700 m 1,4,-1
 80 0 l 1,5,-1
 440 0 l 1,6,-1
 440 80 l 1,7,-1
 165 80 l 1,8,-1
 165 700 l 1,9,-1
 80 700 l 1,4,-1
EndSplineSet
EndChar

StartChar: Eng
Encoding: 330 330 128
Width: 775
GlyphClass: 2
Flags: W
LayerCount: 2
Fore
SplineSet
562 -220 m 0,0,1
 604 -220 604 -220 634 -201 c 128,-1,2
 664 -182 664 -182 679.5 -146 c 128,-1,3
 695 -110 695 -110 695 -60 c 2,4,-1
 695 700 l 1,5,-1
 610 700 l 1,6,-1
 610 179 l 1,7,-1
 80 735 l 1,8,-1
 80 0 l 1,9,-1
 165 0 l 1,10,-1
 165 521 l 1,11,-1
 615 49 l 1,12,-1
 615 -50 l 2,13,14
 615 -82 615 -82 610 -102 c 128,-1,15
 605 -122 605 -122 594.5 -131 c 128,-1,16
 584 -140 584 -140 567 -140 c 0,17,18
 551 -140 551 -140 538.5 -133 c 128,-1,19
 526 -126 526 -126 518 -114 c 1,20,-1
 474 -180 l 1,21,22
 489 -200 489 -200 510.5 -210 c 128,-1,23
 532 -220 532 -220 562 -220 c 0,0,1
EndSplineSet
EndChar

StartChar: OE
Encoding: 338 338 129
Width: 985
GlyphClass: 2
Flags: W
LayerCount: 2
Fore
SplineSet
562 340 m 1,0,-1
 895 340 l 1,1,-1
 895 420 l 1,2,-1
 562 420 l 1,3,-1
 562 340 l 1,0,-1
515 670 m 1,4,-1
 515 30 l 1,5,-1
 600 30 l 1,6,-1
 600 670 l 1,7,-1
 515 670 l 1,4,-1
916 80 m 1,8,-1
 572 80 l 1,9,-1
 548 80 l 1,10,-1
 390 80 l 2,11,12
 331 80 331 80 282.5 99 c 128,-1,13
 234 118 234 118 198.5 153.5 c 128,-1,14
 163 189 163 189 144 239 c 128,-1,15
 125 289 125 289 125 350 c 256,16,17
 125 411 125 411 144 461 c 128,-1,18
 163 511 163 511 198 546.5 c 128,-1,19
 233 582 233 582 282 601 c 128,-1,20
 331 620 331 620 390 620 c 2,21,-1
 551 620 l 1,22,-1
 568 620 l 1,23,-1
 915 620 l 1,24,-1
 915 700 l 1,25,-1
 390 700 l 2,26,27
 314 700 314 700 249.5 675 c 128,-1,28
 185 650 185 650 138.5 603.5 c 128,-1,29
 92 557 92 557 66 492.5 c 128,-1,30
 40 428 40 428 40 350 c 256,31,32
 40 272 40 272 66 207.5 c 128,-1,33
 92 143 92 143 139 96.5 c 128,-1,34
 186 50 186 50 250 25 c 128,-1,35
 314 0 314 0 390 0 c 2,36,-1
 916 0 l 1,37,-1
 916 80 l 1,8,-1
EndSplineSet
EndChar

StartChar: Tbar
Encoding: 358 358 130
Width: 465
GlyphClass: 2
Flags: W
LayerCount: 2
Fore
SplineSet
75 380 m 1,0,-1
 390 380 l 1,1,-1
 390 455 l 1,2,-1
 75 455 l 1,3,-1
 75 380 l 1,0,-1
10 620 m 1,4,-1
 190 620 l 1,5,-1
 190 0 l 1,6,-1
 275 0 l 1,7,-1
 275 620 l 1,8,-1
 455 620 l 1,9,-1
 455 700 l 1,10,-1
 10 700 l 1,11,-1
 10 620 l 1,4,-1
EndSplineSet
EndChar

StartChar: uni1E9E
Encoding: 7838 7838 131
Width: 716
GlyphClass: 2
Flags: W
LayerCount: 2
Fore
SplineSet
422 -12 m 0,0,1
 358 -12 358 -12 312.5 6.5 c 128,-1,2
 267 25 267 25 230 54 c 1,3,-1
 270 126 l 1,4,5
 305 103 305 103 340.5 88.5 c 128,-1,6
 376 74 376 74 428 74 c 0,7,8
 469 74 469 74 505.5 84 c 128,-1,9
 542 94 542 94 565 116.5 c 128,-1,10
 588 139 588 139 588 176 c 0,11,12
 588 211 588 211 569 229.5 c 128,-1,13
 550 248 550 248 521.5 258.5 c 128,-1,14
 493 269 493 269 464.5 279.5 c 128,-1,15
 436 290 436 290 417 308 c 128,-1,16
 398 326 398 326 398 360 c 0,17,18
 398 389 398 389 411.5 407.5 c 128,-1,19
 425 426 425 426 445 439 c 128,-1,20
 465 452 465 452 485 464.5 c 128,-1,21
 505 477 505 477 518.5 493 c 128,-1,22
 532 509 532 509 532 534 c 0,23,24
 532 555 532 555 519 576 c 128,-1,25
 506 597 506 597 475.5 610.5 c 128,-1,26
 445 624 445 624 393 624 c 0,27,28
 331 624 331 624 278.5 599.5 c 128,-1,29
 226 575 226 575 195 521.5 c 128,-1,30
 164 468 164 468 164 382 c 2,31,-1
 166 -2 l 1,32,-1
 80 -2 l 1,33,-1
 80 389 l 2,34,35
 80 473 80 473 107 533.5 c 128,-1,36
 134 594 134 594 180 633 c 128,-1,37
 226 672 226 672 284.5 690.5 c 128,-1,38
 343 709 343 709 406 709 c 0,39,40
 472 709 472 709 520.5 689.5 c 128,-1,41
 569 670 569 670 595.5 635 c 128,-1,42
 622 600 622 600 622 552 c 0,43,44
 622 514 622 514 609.5 488.5 c 128,-1,45
 597 463 597 463 578 445.5 c 128,-1,46
 559 428 559 428 540 415 c 128,-1,47
 521 402 521 402 508.5 391 c 128,-1,48
 496 380 496 380 496 366 c 0,49,50
 496 349 496 349 514.5 339.5 c 128,-1,51
 533 330 533 330 560 320.5 c 128,-1,52
 587 311 587 311 614 296 c 128,-1,53
 641 281 641 281 659.5 254 c 128,-1,54
 678 227 678 227 678 182 c 0,55,56
 678 125 678 125 645.5 81.5 c 128,-1,57
 613 38 613 38 555 13 c 128,-1,58
 497 -12 497 -12 422 -12 c 0,0,1
EndSplineSet
EndChar

StartChar: uni0394
Encoding: 916 916 132
Width: 600
GlyphClass: 2
Flags: W
LayerCount: 2
Fore
SplineSet
18 0 m 1,0,-1
 300 800 l 1,1,-1
 581 0 l 1,2,-1
 18 0 l 1,0,-1
138 76 m 1,3,-1
 462 76 l 1,4,-1
 300 580 l 1,5,-1
 138 76 l 1,3,-1
EndSplineSet
EndChar

StartChar: uni03A9
Encoding: 937 937 133
Width: 600
GlyphClass: 2
Flags: W
LayerCount: 2
Fore
SplineSet
66 0 m 1,0,-1
 66 68 l 1,1,-1
 153 68 l 1,2,3
 127 104 127 104 108 146 c 128,-1,4
 89 188 89 188 79 232 c 128,-1,5
 69 276 69 276 69 317 c 0,6,7
 69 386 69 386 99.5 440.5 c 128,-1,8
 130 495 130 495 182 527 c 128,-1,9
 234 559 234 559 300 559 c 256,10,11
 366 559 366 559 418 527 c 128,-1,12
 470 495 470 495 500 440.5 c 128,-1,13
 530 386 530 386 530 317 c 0,14,15
 530 276 530 276 520 232 c 128,-1,16
 510 188 510 188 491 146 c 128,-1,17
 472 104 472 104 446 68 c 1,18,-1
 533 68 l 1,19,-1
 533 0 l 1,20,-1
 340 0 l 1,21,-1
 340 78 l 1,22,23
 369 101 369 101 391.5 139 c 128,-1,24
 414 177 414 177 427 222 c 128,-1,25
 440 267 440 267 440 311 c 0,26,27
 440 362 440 362 424 396.5 c 128,-1,28
 408 431 408 431 377 448.5 c 128,-1,29
 346 466 346 466 300 466 c 256,30,31
 254 466 254 466 222.5 448.5 c 128,-1,32
 191 431 191 431 174.5 396.5 c 128,-1,33
 158 362 158 362 158 311 c 0,34,35
 158 268 158 268 171.5 222.5 c 128,-1,36
 185 177 185 177 208 139 c 128,-1,37
 231 101 231 101 259 78 c 1,38,-1
 259 0 l 1,39,-1
 66 0 l 1,0,-1
EndSplineSet
EndChar

StartChar: uni0410
Encoding: 1040 1040 134
Width: 660
GlyphClass: 2
Flags: W
LayerCount: 2
Fore
SplineSet
147 210 m 1,0,-1
 517 210 l 1,1,-1
 487 290 l 1,2,-1
 177 290 l 1,3,-1
 147 210 l 1,0,-1
330 542 m 1,4,-1
 450 260 l 1,5,-1
 458 240 l 1,6,-1
 560 0 l 1,7,-1
 655 0 l 1,8,-1
 330 735 l 1,9,-1
 5 0 l 1,10,-1
 100 0 l 1,11,-1
 204 246 l 1,12,-1
 212 264 l 1,13,-1
 330 542 l 1,4,-1
EndSplineSet
EndChar

StartChar: uni0411
Encoding: 1041 1041 135
Width: 548
GlyphClass: 2
Flags: W
LayerCount: 2
Fore
SplineSet
127 340 m 1,0,-1
 270 340 l 2,1,2
 315 340 315 340 349.5 325.5 c 128,-1,3
 384 311 384 311 403.5 282 c 128,-1,4
 423 253 423 253 423 210 c 256,5,6
 423 167 423 167 403.5 138 c 128,-1,7
 384 109 384 109 349.5 94.5 c 128,-1,8
 315 80 315 80 270 80 c 2,9,-1
 127 80 l 1,10,-1
 127 0 l 1,11,-1
 270 0 l 2,12,13
 338 0 338 0 391.5 25.5 c 128,-1,14
 445 51 445 51 476.5 98.5 c 128,-1,15
 508 146 508 146 508 210 c 0,16,17
 508 275 508 275 476.5 322 c 128,-1,18
 445 369 445 369 391.5 394.5 c 128,-1,19
 338 420 338 420 270 420 c 2,20,-1
 127 420 l 1,21,-1
 127 340 l 1,0,-1
80 700 m 1,22,-1
 80 0 l 1,23,-1
 165 0 l 1,24,-1
 165 620 l 1,25,-1
 455 620 l 1,26,-1
 455 700 l 1,27,-1
 80 700 l 1,22,-1
EndSplineSet
EndChar

StartChar: uni0412
Encoding: 1042 1042 136
Width: 558
GlyphClass: 2
Flags: W
LayerCount: 2
Fore
SplineSet
147 370 m 1,0,-1
 260 370 l 2,1,2
 323 370 323 370 369.5 388 c 128,-1,3
 416 406 416 406 442 441 c 128,-1,4
 468 476 468 476 468 525 c 0,5,6
 468 585 468 585 442 623.5 c 128,-1,7
 416 662 416 662 369.5 681 c 128,-1,8
 323 700 323 700 260 700 c 2,9,-1
 80 700 l 1,10,-1
 80 0 l 1,11,-1
 270 0 l 2,12,13
 338 0 338 0 391.5 22.5 c 128,-1,14
 445 45 445 45 476.5 90.5 c 128,-1,15
 508 136 508 136 508 205 c 0,16,17
 508 253 508 253 490 288 c 128,-1,18
 472 323 472 323 439.5 345.5 c 128,-1,19
 407 368 407 368 364 379 c 128,-1,20
 321 390 321 390 270 390 c 2,21,-1
 147 390 l 1,22,-1
 147 343 l 1,23,-1
 270 343 l 2,24,25
 304 343 304 343 332 334.5 c 128,-1,26
 360 326 360 326 380.5 309 c 128,-1,27
 401 292 401 292 412 267 c 128,-1,28
 423 242 423 242 423 210 c 0,29,30
 423 167 423 167 403.5 137 c 128,-1,31
 384 107 384 107 349.5 91 c 128,-1,32
 315 75 315 75 270 75 c 2,33,-1
 165 75 l 1,34,-1
 165 625 l 1,35,-1
 260 625 l 2,36,37
 313 625 313 625 348 597.5 c 128,-1,38
 383 570 383 570 383 520 c 0,39,40
 383 487 383 487 367 464 c 128,-1,41
 351 441 351 441 323 429 c 128,-1,42
 295 417 295 417 260 417 c 2,43,-1
 147 417 l 1,44,-1
 147 370 l 1,0,-1
EndSplineSet
EndChar

StartChar: uni0413
Encoding: 1043 1043 137
Width: 435
GlyphClass: 2
Flags: W
LayerCount: 2
Fore
SplineSet
80 700 m 1,0,-1
 80 0 l 1,1,-1
 165 0 l 1,2,-1
 165 620 l 1,3,-1
 425 620 l 1,4,-1
 425 700 l 1,5,-1
 80 700 l 1,0,-1
EndSplineSet
EndChar

StartChar: uni0403
Encoding: 1027 1027 138
Width: 435
GlyphClass: 2
Flags: W
LayerCount: 2
Fore
SplineSet
80 700 m 1,0,-1
 80 0 l 1,1,-1
 165 0 l 1,2,-1
 165 620 l 1,3,-1
 425 620 l 1,4,-1
 425 700 l 1,5,-1
 80 700 l 1,0,-1
433 920 m 1,6,-1
 358 960 l 1,7,-1
 208 800 l 1,8,-1
 253 770 l 1,9,-1
 433 920 l 1,6,-1
EndSplineSet
EndChar

StartChar: uni0414
Encoding: 1044 1044 139
Width: 795
GlyphClass: 2
Flags: W
LayerCount: 2
Fore
SplineSet
395 542 m 1,0,-1
 590 30 l 1,1,-1
 680 30 l 1,2,-1
 395 735 l 1,3,-1
 110 30 l 1,4,-1
 200 30 l 1,5,-1
 395 542 l 1,0,-1
675 0 m 1,6,-1
 675 -110 l 1,7,-1
 750 -110 l 1,8,-1
 750 80 l 1,9,-1
 40 80 l 1,10,-1
 40 -110 l 1,11,-1
 115 -110 l 1,12,-1
 115 0 l 1,13,-1
 675 0 l 1,6,-1
EndSplineSet
EndChar

StartChar: uni0415
Encoding: 1045 1045 140
Width: 550
GlyphClass: 2
Flags: W
LayerCount: 2
Fore
SplineSet
127 0 m 1,0,-1
 480 0 l 1,1,-1
 480 80 l 1,2,-1
 127 80 l 1,3,-1
 127 0 l 1,0,-1
127 620 m 1,4,-1
 480 620 l 1,5,-1
 480 700 l 1,6,-1
 127 700 l 1,7,-1
 127 620 l 1,4,-1
127 340 m 1,8,-1
 460 340 l 1,9,-1
 460 420 l 1,10,-1
 127 420 l 1,11,-1
 127 340 l 1,8,-1
80 700 m 1,12,-1
 80 0 l 1,13,-1
 165 0 l 1,14,-1
 165 700 l 1,15,-1
 80 700 l 1,12,-1
EndSplineSet
EndChar

StartChar: uni0400
Encoding: 1024 1024 141
Width: 550
GlyphClass: 2
Flags: W
LayerCount: 2
Fore
SplineSet
127 0 m 1,0,-1
 480 0 l 1,1,-1
 480 80 l 1,2,-1
 127 80 l 1,3,-1
 127 0 l 1,0,-1
127 620 m 1,4,-1
 480 620 l 1,5,-1
 480 700 l 1,6,-1
 127 700 l 1,7,-1
 127 620 l 1,4,-1
127 340 m 1,8,-1
 460 340 l 1,9,-1
 460 420 l 1,10,-1
 127 420 l 1,11,-1
 127 340 l 1,8,-1
80 700 m 1,12,-1
 80 0 l 1,13,-1
 165 0 l 1,14,-1
 165 700 l 1,15,-1
 80 700 l 1,12,-1
100 920 m 1,16,-1
 280 770 l 1,17,-1
 325 800 l 1,18,-1
 175 960 l 1,19,-1
 100 920 l 1,16,-1
EndSplineSet
EndChar

StartChar: uni0401
Encoding: 1025 1025 142
Width: 550
GlyphClass: 2
Flags: W
LayerCount: 2
Fore
SplineSet
127 0 m 1,0,-1
 480 0 l 1,1,-1
 480 80 l 1,2,-1
 127 80 l 1,3,-1
 127 0 l 1,0,-1
127 620 m 1,4,-1
 480 620 l 1,5,-1
 480 700 l 1,6,-1
 127 700 l 1,7,-1
 127 620 l 1,4,-1
127 340 m 1,8,-1
 460 340 l 1,9,-1
 460 420 l 1,10,-1
 127 420 l 1,11,-1
 127 340 l 1,8,-1
80 700 m 1,12,-1
 80 0 l 1,13,-1
 165 0 l 1,14,-1
 165 700 l 1,15,-1
 80 700 l 1,12,-1
325 825 m 0,16,17
 325 803 325 803 341.5 786.5 c 128,-1,18
 358 770 358 770 380 770 c 0,19,20
 403 770 403 770 419 786.5 c 128,-1,21
 435 803 435 803 435 825 c 0,22,23
 435 848 435 848 419 864 c 128,-1,24
 403 880 403 880 380 880 c 0,25,26
 358 880 358 880 341.5 864 c 128,-1,27
 325 848 325 848 325 825 c 0,16,17
125 825 m 0,28,29
 125 803 125 803 141.5 786.5 c 128,-1,30
 158 770 158 770 180 770 c 0,31,32
 203 770 203 770 219 786.5 c 128,-1,33
 235 803 235 803 235 825 c 0,34,35
 235 848 235 848 219 864 c 128,-1,36
 203 880 203 880 180 880 c 0,37,38
 158 880 158 880 141.5 864 c 128,-1,39
 125 848 125 848 125 825 c 0,28,29
EndSplineSet
EndChar

StartChar: uni0416
Encoding: 1046 1046 143
Width: 895
GlyphClass: 2
Flags: W
LayerCount: 2
Fore
SplineSet
125 700 m 1,0,-1
 20 700 l 1,1,-1
 323 372 l 1,2,-1
 5 0 l 1,3,-1
 110 0 l 1,4,-1
 426 370 l 1,5,-1
 125 700 l 1,0,-1
410 700 m 1,6,-1
 410 0 l 1,7,-1
 495 0 l 1,8,-1
 495 700 l 1,9,-1
 410 700 l 1,6,-1
770 700 m 1,10,-1
 479 370 l 1,11,-1
 785 0 l 1,12,-1
 890 0 l 1,13,-1
 572 372 l 1,14,-1
 875 700 l 1,15,-1
 770 700 l 1,10,-1
EndSplineSet
EndChar

StartChar: uni0417
Encoding: 1047 1047 144
Width: 606
GlyphClass: 2
Flags: W
LayerCount: 2
Fore
SplineSet
283 345 m 1,0,1
 341 345 341 345 388.5 359 c 128,-1,2
 436 373 436 373 470 397.5 c 128,-1,3
 504 422 504 422 522.5 454.5 c 128,-1,4
 541 487 541 487 541 524 c 0,5,6
 541 574 541 574 514 616 c 128,-1,7
 487 658 487 658 437 684 c 128,-1,8
 387 710 387 710 317 710 c 0,9,10
 250 710 250 710 198.5 686.5 c 128,-1,11
 147 663 147 663 118.5 622 c 128,-1,12
 90 581 90 581 90 526 c 1,13,-1
 171 526 l 1,14,15
 171 557 171 557 190 581 c 128,-1,16
 209 605 209 605 242.5 619 c 128,-1,17
 276 633 276 633 318 633 c 0,18,19
 363 633 363 633 393.5 619 c 128,-1,20
 424 605 424 605 439 579.5 c 128,-1,21
 454 554 454 554 454 521 c 256,22,23
 454 488 454 488 434 460.5 c 128,-1,24
 414 433 414 433 376 416.5 c 128,-1,25
 338 400 338 400 283 400 c 1,26,-1
 283 345 l 1,0,1
313 -10 m 0,27,28
 391 -10 391 -10 446.5 14 c 128,-1,29
 502 38 502 38 531.5 82 c 128,-1,30
 561 126 561 126 561 185 c 0,31,32
 561 255 561 255 524 297.5 c 128,-1,33
 487 340 487 340 424 360 c 128,-1,34
 361 380 361 380 283 380 c 1,35,-1
 283 325 l 1,36,37
 338 325 338 325 381 310.5 c 128,-1,38
 424 296 424 296 449 267 c 128,-1,39
 474 238 474 238 474 195 c 0,40,41
 474 138 474 138 435 104 c 128,-1,42
 396 70 396 70 313 70 c 0,43,44
 258 70 258 70 222.5 85 c 128,-1,45
 187 100 187 100 168.5 126 c 128,-1,46
 150 152 150 152 146 185 c 1,47,-1
 60 185 l 1,48,49
 60 144 60 144 76.5 108.5 c 128,-1,50
 93 73 93 73 125 46.5 c 128,-1,51
 157 20 157 20 204 5 c 128,-1,52
 251 -10 251 -10 313 -10 c 0,27,28
EndSplineSet
EndChar

StartChar: uni0418
Encoding: 1048 1048 145
Width: 775
GlyphClass: 2
Flags: W
LayerCount: 2
Fore
SplineSet
690 605 m 1,0,-1
 695 735 l 1,1,-1
 85 95 l 1,2,-1
 80 -35 l 1,3,-1
 690 605 l 1,0,-1
165 700 m 1,4,-1
 80 700 l 1,5,-1
 80 -35 l 1,6,-1
 165 75 l 1,7,-1
 165 700 l 1,4,-1
695 735 m 1,8,-1
 610 625 l 1,9,-1
 610 0 l 1,10,-1
 695 0 l 1,11,-1
 695 735 l 1,8,-1
EndSplineSet
EndChar

StartChar: uni040D
Encoding: 1037 1037 146
Width: 775
GlyphClass: 2
Flags: W
LayerCount: 2
Fore
SplineSet
690 605 m 1,0,-1
 695 735 l 1,1,-1
 85 95 l 1,2,-1
 80 -35 l 1,3,-1
 690 605 l 1,0,-1
165 700 m 1,4,-1
 80 700 l 1,5,-1
 80 -35 l 1,6,-1
 165 75 l 1,7,-1
 165 700 l 1,4,-1
695 735 m 1,8,-1
 610 625 l 1,9,-1
 610 0 l 1,10,-1
 695 0 l 1,11,-1
 695 735 l 1,8,-1
255 895 m 1,12,-1
 435 745 l 1,13,-1
 480 775 l 1,14,-1
 330 935 l 1,15,-1
 255 895 l 1,12,-1
EndSplineSet
EndChar

StartChar: uni0419
Encoding: 1049 1049 147
Width: 775
GlyphClass: 2
Flags: W
LayerCount: 2
Fore
SplineSet
690 605 m 1,0,-1
 695 735 l 1,1,-1
 85 95 l 1,2,-1
 80 -35 l 1,3,-1
 690 605 l 1,0,-1
165 700 m 1,4,-1
 80 700 l 1,5,-1
 80 -35 l 1,6,-1
 165 75 l 1,7,-1
 165 700 l 1,4,-1
695 735 m 1,8,-1
 610 625 l 1,9,-1
 610 0 l 1,10,-1
 695 0 l 1,11,-1
 695 735 l 1,8,-1
257 905 m 1,12,13
 257 871 257 871 274.5 838.5 c 128,-1,14
 292 806 292 806 327.5 785.5 c 128,-1,15
 363 765 363 765 415 765 c 0,16,17
 468 765 468 765 503 785.5 c 128,-1,18
 538 806 538 806 555.5 838.5 c 128,-1,19
 573 871 573 871 573 905 c 1,20,-1
 502 905 l 1,21,22
 502 892 502 892 495 874.5 c 128,-1,23
 488 857 488 857 469 843.5 c 128,-1,24
 450 830 450 830 415 830 c 256,25,26
 380 830 380 830 361 843.5 c 128,-1,27
 342 857 342 857 335 874.5 c 128,-1,28
 328 892 328 892 328 905 c 1,29,-1
 257 905 l 1,12,13
EndSplineSet
EndChar

StartChar: uni041A
Encoding: 1050 1050 148
Width: 565
GlyphClass: 2
Flags: W
LayerCount: 2
Fore
SplineSet
80 700 m 1,0,-1
 80 0 l 1,1,-1
 165 0 l 1,2,-1
 165 700 l 1,3,-1
 80 700 l 1,0,-1
440 700 m 1,4,-1
 139 370 l 1,5,-1
 455 0 l 1,6,-1
 560 0 l 1,7,-1
 242 372 l 1,8,-1
 545 700 l 1,9,-1
 440 700 l 1,4,-1
EndSplineSet
EndChar

StartChar: uni040C
Encoding: 1036 1036 149
Width: 565
GlyphClass: 2
Flags: W
LayerCount: 2
Fore
SplineSet
80 700 m 1,0,-1
 80 0 l 1,1,-1
 165 0 l 1,2,-1
 165 700 l 1,3,-1
 80 700 l 1,0,-1
440 700 m 1,4,-1
 139 370 l 1,5,-1
 455 0 l 1,6,-1
 560 0 l 1,7,-1
 242 372 l 1,8,-1
 545 700 l 1,9,-1
 440 700 l 1,4,-1
493 920 m 1,10,-1
 418 960 l 1,11,-1
 268 800 l 1,12,-1
 313 770 l 1,13,-1
 493 920 l 1,10,-1
EndSplineSet
EndChar

StartChar: uni041B
Encoding: 1051 1051 150
Width: 658
GlyphClass: 2
Flags: W
LayerCount: 2
Fore
SplineSet
578 700 m 1,0,-1
 103 700 l 1,1,-1
 103 260 l 2,2,3
 103 220 103 220 97 186 c 128,-1,4
 91 152 91 152 79 126.5 c 128,-1,5
 67 101 67 101 50 87 c 128,-1,6
 33 73 33 73 10 73 c 1,7,-1
 10 0 l 1,8,9
 67 0 67 0 105.5 33 c 128,-1,10
 144 66 144 66 163.5 121 c 128,-1,11
 183 176 183 176 183 240 c 2,12,-1
 183 620 l 1,13,-1
 493 620 l 1,14,-1
 493 0 l 1,15,-1
 578 0 l 1,16,-1
 578 700 l 1,0,-1
EndSplineSet
EndChar

StartChar: uni041C
Encoding: 1052 1052 151
Width: 810
GlyphClass: 2
Flags: W
LayerCount: 2
Fore
SplineSet
177 473 m 1,0,-1
 405 65 l 1,1,-1
 633 473 l 1,2,-1
 685 0 l 1,3,-1
 770 0 l 1,4,-1
 685 735 l 1,5,-1
 405 228 l 1,6,-1
 125 735 l 1,7,-1
 40 0 l 1,8,-1
 125 0 l 1,9,-1
 177 473 l 1,0,-1
EndSplineSet
EndChar

StartChar: uni041D
Encoding: 1053 1053 152
Width: 715
GlyphClass: 2
Flags: W
LayerCount: 2
Fore
SplineSet
127 340 m 1,0,-1
 607 340 l 1,1,-1
 607 420 l 1,2,-1
 127 420 l 1,3,-1
 127 340 l 1,0,-1
550 700 m 1,4,-1
 550 0 l 1,5,-1
 635 0 l 1,6,-1
 635 700 l 1,7,-1
 550 700 l 1,4,-1
80 700 m 1,8,-1
 80 0 l 1,9,-1
 165 0 l 1,10,-1
 165 700 l 1,11,-1
 80 700 l 1,8,-1
EndSplineSet
EndChar

StartChar: uni041E
Encoding: 1054 1054 153
Width: 790
GlyphClass: 2
Flags: W
LayerCount: 2
Fore
SplineSet
130 350 m 256,0,1
 130 429 130 429 164.5 491 c 128,-1,2
 199 553 199 553 259 589 c 128,-1,3
 319 625 319 625 395 625 c 0,4,5
 472 625 472 625 531.5 589 c 128,-1,6
 591 553 591 553 625.5 491 c 128,-1,7
 660 429 660 429 660 350 c 256,8,9
 660 271 660 271 625.5 209 c 128,-1,10
 591 147 591 147 531.5 111 c 128,-1,11
 472 75 472 75 395 75 c 0,12,13
 319 75 319 75 259 111 c 128,-1,14
 199 147 199 147 164.5 209 c 128,-1,15
 130 271 130 271 130 350 c 256,0,1
40 350 m 0,16,17
 40 274 40 274 66.5 208 c 128,-1,18
 93 142 93 142 141 93.5 c 128,-1,19
 189 45 189 45 254 17.5 c 128,-1,20
 319 -10 319 -10 395 -10 c 0,21,22
 472 -10 472 -10 536.5 17.5 c 128,-1,23
 601 45 601 45 649 93.5 c 128,-1,24
 697 142 697 142 723.5 208 c 128,-1,25
 750 274 750 274 750 350 c 0,26,27
 750 427 750 427 723.5 492.5 c 128,-1,28
 697 558 697 558 649 606.5 c 128,-1,29
 601 655 601 655 536.5 682.5 c 128,-1,30
 472 710 472 710 395 710 c 0,31,32
 319 710 319 710 254 682.5 c 128,-1,33
 189 655 189 655 141 606.5 c 128,-1,34
 93 558 93 558 66.5 492.5 c 128,-1,35
 40 427 40 427 40 350 c 0,16,17
EndSplineSet
EndChar

StartChar: uni041F
Encoding: 1055 1055 154
Width: 715
GlyphClass: 2
Flags: W
LayerCount: 2
Fore
SplineSet
550 620 m 1,0,-1
 550 0 l 1,1,-1
 635 0 l 1,2,-1
 635 700 l 1,3,-1
 80 700 l 1,4,-1
 80 0 l 1,5,-1
 165 0 l 1,6,-1
 165 620 l 1,7,-1
 550 620 l 1,0,-1
EndSplineSet
EndChar

StartChar: uni0420
Encoding: 1056 1056 155
Width: 548
GlyphClass: 2
Flags: W
LayerCount: 2
Fore
SplineSet
80 700 m 1,0,-1
 80 0 l 1,1,-1
 165 0 l 1,2,-1
 165 700 l 1,3,-1
 80 700 l 1,0,-1
127 620 m 1,4,-1
 270 620 l 2,5,6
 338 620 338 620 380.5 587.5 c 128,-1,7
 423 555 423 555 423 490 c 0,8,9
 423 426 423 426 380.5 393 c 128,-1,10
 338 360 338 360 270 360 c 2,11,-1
 127 360 l 1,12,-1
 127 280 l 1,13,-1
 270 280 l 2,14,15
 338 280 338 280 391.5 305.5 c 128,-1,16
 445 331 445 331 476.5 378.5 c 128,-1,17
 508 426 508 426 508 490 c 0,18,19
 508 555 508 555 476.5 602 c 128,-1,20
 445 649 445 649 391.5 674.5 c 128,-1,21
 338 700 338 700 270 700 c 2,22,-1
 127 700 l 1,23,-1
 127 620 l 1,4,-1
EndSplineSet
EndChar

StartChar: uni0421
Encoding: 1057 1057 156
Width: 685
GlyphClass: 2
Flags: W
LayerCount: 2
Fore
SplineSet
130 350 m 0,0,1
 130 432 130 432 166.5 493.5 c 128,-1,2
 203 555 203 555 262 590 c 128,-1,3
 321 625 321 625 390 625 c 0,4,5
 440 625 440 625 481.5 612 c 128,-1,6
 523 599 523 599 557 575.5 c 128,-1,7
 591 552 591 552 615 521 c 1,8,-1
 615 633 l 1,9,10
 571 672 571 672 519 691 c 128,-1,11
 467 710 467 710 390 710 c 0,12,13
 317 710 317 710 253.5 683.5 c 128,-1,14
 190 657 190 657 142 608.5 c 128,-1,15
 94 560 94 560 67 494 c 128,-1,16
 40 428 40 428 40 350 c 256,17,18
 40 272 40 272 67 206 c 128,-1,19
 94 140 94 140 142 91.5 c 128,-1,20
 190 43 190 43 253.5 16.5 c 128,-1,21
 317 -10 317 -10 390 -10 c 0,22,23
 467 -10 467 -10 519 9 c 128,-1,24
 571 28 571 28 615 67 c 1,25,-1
 615 179 l 1,26,27
 591 148 591 148 557 124.5 c 128,-1,28
 523 101 523 101 481.5 88 c 128,-1,29
 440 75 440 75 390 75 c 0,30,31
 321 75 321 75 262 110 c 128,-1,32
 203 145 203 145 166.5 207 c 128,-1,33
 130 269 130 269 130 350 c 0,0,1
EndSplineSet
EndChar

StartChar: uni0422
Encoding: 1058 1058 157
Width: 465
GlyphClass: 2
Flags: W
LayerCount: 2
Fore
SplineSet
10 620 m 1,0,-1
 190 620 l 1,1,-1
 190 0 l 1,2,-1
 275 0 l 1,3,-1
 275 620 l 1,4,-1
 455 620 l 1,5,-1
 455 700 l 1,6,-1
 10 700 l 1,7,-1
 10 620 l 1,0,-1
EndSplineSet
EndChar

StartChar: uni0423
Encoding: 1059 1059 158
Width: 565
GlyphClass: 2
Flags: W
LayerCount: 2
Fore
SplineSet
565 700 m 1,0,-1
 470 700 l 1,1,-1
 258 234 l 1,2,-1
 311 230 l 1,3,-1
 105 700 l 1,4,-1
 0 700 l 1,5,-1
 231 207 l 1,6,-1
 141 0 l 1,7,-1
 236 0 l 1,8,-1
 565 700 l 1,0,-1
EndSplineSet
EndChar

StartChar: uni040E
Encoding: 1038 1038 159
Width: 565
GlyphClass: 2
Flags: W
LayerCount: 2
Fore
SplineSet
565 700 m 1,0,-1
 470 700 l 1,1,-1
 258 234 l 1,2,-1
 311 230 l 1,3,-1
 105 700 l 1,4,-1
 0 700 l 1,5,-1
 231 207 l 1,6,-1
 141 0 l 1,7,-1
 236 0 l 1,8,-1
 565 700 l 1,0,-1
127 910 m 1,9,10
 127 876 127 876 144.5 843.5 c 128,-1,11
 162 811 162 811 197.5 790.5 c 128,-1,12
 233 770 233 770 285 770 c 0,13,14
 338 770 338 770 373 790.5 c 128,-1,15
 408 811 408 811 425.5 843.5 c 128,-1,16
 443 876 443 876 443 910 c 1,17,-1
 372 910 l 1,18,19
 372 897 372 897 365 879.5 c 128,-1,20
 358 862 358 862 339 848.5 c 128,-1,21
 320 835 320 835 285 835 c 256,22,23
 250 835 250 835 231 848.5 c 128,-1,24
 212 862 212 862 205 879.5 c 128,-1,25
 198 897 198 897 198 910 c 1,26,-1
 127 910 l 1,9,10
EndSplineSet
EndChar

StartChar: uni0424
Encoding: 1060 1060 160
Width: 783
GlyphClass: 2
Flags: W
LayerCount: 2
Fore
SplineSet
349 700 m 1,0,-1
 349 0 l 1,1,-1
 434 0 l 1,2,-1
 434 700 l 1,3,-1
 349 700 l 1,0,-1
658 350 m 0,4,5
 658 289 658 289 628 247.5 c 128,-1,6
 598 206 598 206 545 185.5 c 128,-1,7
 492 165 492 165 423 165 c 2,8,-1
 360 165 l 2,9,10
 291 165 291 165 238 185.5 c 128,-1,11
 185 206 185 206 155 247.5 c 128,-1,12
 125 289 125 289 125 350 c 0,13,14
 125 412 125 412 155 453 c 128,-1,15
 185 494 185 494 238 514.5 c 128,-1,16
 291 535 291 535 360 535 c 2,17,-1
 423 535 l 2,18,19
 492 535 492 535 545 514.5 c 128,-1,20
 598 494 598 494 628 453 c 128,-1,21
 658 412 658 412 658 350 c 0,4,5
743 350 m 0,22,23
 743 435 743 435 701.5 495 c 128,-1,24
 660 555 660 555 587.5 587.5 c 128,-1,25
 515 620 515 620 423 620 c 2,26,-1
 360 620 l 2,27,28
 268 620 268 620 195.5 587.5 c 128,-1,29
 123 555 123 555 81.5 495 c 128,-1,30
 40 435 40 435 40 350 c 0,31,32
 40 266 40 266 81.5 205.5 c 128,-1,33
 123 145 123 145 195.5 112.5 c 128,-1,34
 268 80 268 80 360 80 c 2,35,-1
 423 80 l 2,36,37
 515 80 515 80 587.5 112.5 c 128,-1,38
 660 145 660 145 701.5 205.5 c 128,-1,39
 743 266 743 266 743 350 c 0,22,23
EndSplineSet
EndChar

StartChar: uni0425
Encoding: 1061 1061 161
Width: 555
GlyphClass: 2
Flags: W
LayerCount: 2
Fore
SplineSet
430 700 m 1,0,-1
 281 441 l 1,1,-1
 135 700 l 1,2,-1
 35 700 l 1,3,-1
 238 367 l 1,4,-1
 10 0 l 1,5,-1
 110 0 l 1,6,-1
 280 293 l 1,7,-1
 445 0 l 1,8,-1
 545 0 l 1,9,-1
 323 367 l 1,10,-1
 530 700 l 1,11,-1
 430 700 l 1,0,-1
EndSplineSet
EndChar

StartChar: uni0426
Encoding: 1062 1062 162
Width: 760
GlyphClass: 2
Flags: W
LayerCount: 2
Fore
SplineSet
165 80 m 1,0,-1
 165 700 l 1,1,-1
 80 700 l 1,2,-1
 80 0 l 1,3,-1
 645 0 l 1,4,-1
 645 -110 l 1,5,-1
 720 -110 l 1,6,-1
 720 80 l 1,7,-1
 635 80 l 1,8,-1
 635 700 l 1,9,-1
 550 700 l 1,10,-1
 550 80 l 1,11,-1
 165 80 l 1,0,-1
EndSplineSet
EndChar

StartChar: uni0427
Encoding: 1063 1063 163
Width: 615
GlyphClass: 2
Flags: W
LayerCount: 2
Fore
SplineSet
290 280 m 1,0,-1
 507 280 l 1,1,-1
 507 355 l 1,2,-1
 290 355 l 1,3,-1
 290 280 l 1,0,-1
450 700 m 1,4,-1
 450 0 l 1,5,-1
 535 0 l 1,6,-1
 535 700 l 1,7,-1
 450 700 l 1,4,-1
160 700 m 1,8,-1
 80 700 l 1,9,-1
 80 518 l 2,10,11
 80 451 80 451 103.5 397 c 128,-1,12
 127 343 127 343 174 311.5 c 128,-1,13
 221 280 221 280 290 280 c 1,14,-1
 290 355 l 1,15,16
 247 355 247 355 218 377 c 128,-1,17
 189 399 189 399 174.5 436 c 128,-1,18
 160 473 160 473 160 518 c 2,19,-1
 160 700 l 1,8,-1
EndSplineSet
EndChar

StartChar: uni0428
Encoding: 1064 1064 164
Width: 985
GlyphClass: 2
Flags: W
LayerCount: 2
Fore
SplineSet
820 80 m 1,0,-1
 535 80 l 1,1,-1
 535 700 l 1,2,-1
 450 700 l 1,3,-1
 450 80 l 1,4,-1
 165 80 l 1,5,-1
 165 700 l 1,6,-1
 80 700 l 1,7,-1
 80 0 l 1,8,-1
 905 0 l 1,9,-1
 905 700 l 1,10,-1
 820 700 l 1,11,-1
 820 80 l 1,0,-1
EndSplineSet
EndChar

StartChar: uni0429
Encoding: 1065 1065 165
Width: 1030
GlyphClass: 2
Flags: W
LayerCount: 2
Fore
SplineSet
820 80 m 1,0,-1
 535 80 l 1,1,-1
 535 700 l 1,2,-1
 450 700 l 1,3,-1
 450 80 l 1,4,-1
 165 80 l 1,5,-1
 165 700 l 1,6,-1
 80 700 l 1,7,-1
 80 0 l 1,8,-1
 915 0 l 1,9,-1
 915 -110 l 1,10,-1
 990 -110 l 1,11,-1
 990 80 l 1,12,-1
 905 80 l 1,13,-1
 905 700 l 1,14,-1
 820 700 l 1,15,-1
 820 80 l 1,0,-1
EndSplineSet
EndChar

StartChar: uni042A
Encoding: 1066 1066 166
Width: 658
GlyphClass: 2
Flags: W
LayerCount: 2
Fore
SplineSet
237 340 m 1,0,-1
 380 340 l 2,1,2
 425 340 425 340 459.5 325.5 c 128,-1,3
 494 311 494 311 513.5 282 c 128,-1,4
 533 253 533 253 533 210 c 256,5,6
 533 167 533 167 513.5 138 c 128,-1,7
 494 109 494 109 459.5 94.5 c 128,-1,8
 425 80 425 80 380 80 c 2,9,-1
 237 80 l 1,10,-1
 237 0 l 1,11,-1
 380 0 l 2,12,13
 448 0 448 0 501.5 25.5 c 128,-1,14
 555 51 555 51 586.5 98.5 c 128,-1,15
 618 146 618 146 618 210 c 0,16,17
 618 275 618 275 586.5 322 c 128,-1,18
 555 369 555 369 501.5 394.5 c 128,-1,19
 448 420 448 420 380 420 c 2,20,-1
 237 420 l 1,21,-1
 237 340 l 1,0,-1
190 620 m 1,22,-1
 190 0 l 1,23,-1
 275 0 l 1,24,-1
 275 700 l 1,25,-1
 10 700 l 1,26,-1
 10 620 l 1,27,-1
 190 620 l 1,22,-1
EndSplineSet
EndChar

StartChar: uni042B
Encoding: 1067 1067 167
Width: 765
GlyphClass: 2
Flags: W
LayerCount: 2
Fore
SplineSet
600 700 m 1,0,-1
 600 0 l 1,1,-1
 685 0 l 1,2,-1
 685 700 l 1,3,-1
 600 700 l 1,0,-1
80 700 m 1,4,-1
 80 0 l 1,5,-1
 165 0 l 1,6,-1
 165 700 l 1,7,-1
 80 700 l 1,4,-1
127 340 m 1,8,-1
 270 340 l 2,9,10
 315 340 315 340 349.5 325.5 c 128,-1,11
 384 311 384 311 403.5 282 c 128,-1,12
 423 253 423 253 423 210 c 256,13,14
 423 167 423 167 403.5 138 c 128,-1,15
 384 109 384 109 349.5 94.5 c 128,-1,16
 315 80 315 80 270 80 c 2,17,-1
 127 80 l 1,18,-1
 127 0 l 1,19,-1
 270 0 l 2,20,21
 338 0 338 0 391.5 25.5 c 128,-1,22
 445 51 445 51 476.5 98.5 c 128,-1,23
 508 146 508 146 508 210 c 0,24,25
 508 275 508 275 476.5 322 c 128,-1,26
 445 369 445 369 391.5 394.5 c 128,-1,27
 338 420 338 420 270 420 c 2,28,-1
 127 420 l 1,29,-1
 127 340 l 1,8,-1
EndSplineSet
EndChar

StartChar: uni042C
Encoding: 1068 1068 168
Width: 548
GlyphClass: 2
Flags: W
LayerCount: 2
Fore
SplineSet
80 700 m 1,0,-1
 80 0 l 1,1,-1
 165 0 l 1,2,-1
 165 700 l 1,3,-1
 80 700 l 1,0,-1
127 340 m 1,4,-1
 270 340 l 2,5,6
 315 340 315 340 349.5 325.5 c 128,-1,7
 384 311 384 311 403.5 282 c 128,-1,8
 423 253 423 253 423 210 c 256,9,10
 423 167 423 167 403.5 138 c 128,-1,11
 384 109 384 109 349.5 94.5 c 128,-1,12
 315 80 315 80 270 80 c 2,13,-1
 127 80 l 1,14,-1
 127 0 l 1,15,-1
 270 0 l 2,16,17
 338 0 338 0 391.5 25.5 c 128,-1,18
 445 51 445 51 476.5 98.5 c 128,-1,19
 508 146 508 146 508 210 c 0,20,21
 508 275 508 275 476.5 322 c 128,-1,22
 445 369 445 369 391.5 394.5 c 128,-1,23
 338 420 338 420 270 420 c 2,24,-1
 127 420 l 1,25,-1
 127 340 l 1,4,-1
EndSplineSet
EndChar

StartChar: uni042D
Encoding: 1069 1069 169
Width: 685
GlyphClass: 2
Flags: W
LayerCount: 2
Fore
SplineSet
132 310 m 1,0,-1
 555 310 l 1,1,-1
 555 390 l 1,2,-1
 132 390 l 1,3,-1
 132 310 l 1,0,-1
555 350 m 0,4,5
 555 269 555 269 519 207 c 128,-1,6
 483 145 483 145 423.5 110 c 128,-1,7
 364 75 364 75 295 75 c 0,8,9
 246 75 246 75 204 88 c 128,-1,10
 162 101 162 101 128.5 124.5 c 128,-1,11
 95 148 95 148 70 179 c 1,12,-1
 70 67 l 1,13,14
 114 28 114 28 166.5 9 c 128,-1,15
 219 -10 219 -10 295 -10 c 0,16,17
 368 -10 368 -10 431.5 16.5 c 128,-1,18
 495 43 495 43 543 91.5 c 128,-1,19
 591 140 591 140 618 206 c 128,-1,20
 645 272 645 272 645 350 c 256,21,22
 645 428 645 428 618 494 c 128,-1,23
 591 560 591 560 543 608.5 c 128,-1,24
 495 657 495 657 431.5 683.5 c 128,-1,25
 368 710 368 710 295 710 c 0,26,27
 219 710 219 710 166.5 691 c 128,-1,28
 114 672 114 672 70 633 c 1,29,-1
 70 521 l 1,30,31
 95 552 95 552 128.5 575.5 c 128,-1,32
 162 599 162 599 204 612 c 128,-1,33
 246 625 246 625 295 625 c 0,34,35
 364 625 364 625 423.5 590 c 128,-1,36
 483 555 483 555 519 493.5 c 128,-1,37
 555 432 555 432 555 350 c 0,4,5
EndSplineSet
EndChar

StartChar: uni042E
Encoding: 1070 1070 170
Width: 1030
GlyphClass: 2
Flags: W
LayerCount: 2
Fore
SplineSet
127 340 m 1,0,-1
 347 340 l 1,1,-1
 347 420 l 1,2,-1
 127 420 l 1,3,-1
 127 340 l 1,0,-1
80 700 m 1,4,-1
 80 0 l 1,5,-1
 165 0 l 1,6,-1
 165 700 l 1,7,-1
 80 700 l 1,4,-1
370 350 m 256,8,9
 370 429 370 429 404.5 491 c 128,-1,10
 439 553 439 553 499 589 c 128,-1,11
 559 625 559 625 635 625 c 0,12,13
 712 625 712 625 771.5 589 c 128,-1,14
 831 553 831 553 865.5 491 c 128,-1,15
 900 429 900 429 900 350 c 256,16,17
 900 271 900 271 865.5 209 c 128,-1,18
 831 147 831 147 771.5 111 c 128,-1,19
 712 75 712 75 635 75 c 0,20,21
 559 75 559 75 499 111 c 128,-1,22
 439 147 439 147 404.5 209 c 128,-1,23
 370 271 370 271 370 350 c 256,8,9
280 350 m 0,24,25
 280 274 280 274 306.5 208 c 128,-1,26
 333 142 333 142 381 93.5 c 128,-1,27
 429 45 429 45 494 17.5 c 128,-1,28
 559 -10 559 -10 635 -10 c 0,29,30
 712 -10 712 -10 776.5 17.5 c 128,-1,31
 841 45 841 45 889 93.5 c 128,-1,32
 937 142 937 142 963.5 208 c 128,-1,33
 990 274 990 274 990 350 c 0,34,35
 990 427 990 427 963.5 492.5 c 128,-1,36
 937 558 937 558 889 606.5 c 128,-1,37
 841 655 841 655 776.5 682.5 c 128,-1,38
 712 710 712 710 635 710 c 0,39,40
 559 710 559 710 494 682.5 c 128,-1,41
 429 655 429 655 381 606.5 c 128,-1,42
 333 558 333 558 306.5 492.5 c 128,-1,43
 280 427 280 427 280 350 c 0,24,25
EndSplineSet
EndChar

StartChar: uni042F
Encoding: 1071 1071 171
Width: 560
GlyphClass: 2
Flags: W
LayerCount: 2
Fore
SplineSet
355 345 m 1,0,-1
 260 345 l 1,1,-1
 10 0 l 1,2,-1
 115 0 l 1,3,-1
 355 345 l 1,0,-1
480 700 m 1,4,-1
 395 700 l 1,5,-1
 395 0 l 1,6,-1
 480 0 l 1,7,-1
 480 700 l 1,4,-1
433 625 m 1,8,-1
 433 700 l 1,9,-1
 290 700 l 2,10,11
 223 700 223 700 169 674.5 c 128,-1,12
 115 649 115 649 83.5 602 c 128,-1,13
 52 555 52 555 52 490 c 0,14,15
 52 426 52 426 83.5 378.5 c 128,-1,16
 115 331 115 331 169 305.5 c 128,-1,17
 223 280 223 280 290 280 c 2,18,-1
 433 280 l 1,19,-1
 433 355 l 1,20,-1
 290 355 l 2,21,22
 245 355 245 355 210.5 371 c 128,-1,23
 176 387 176 387 156.5 417 c 128,-1,24
 137 447 137 447 137 490 c 256,25,26
 137 533 137 533 156.5 563 c 128,-1,27
 176 593 176 593 210.5 609 c 128,-1,28
 245 625 245 625 290 625 c 2,29,-1
 433 625 l 1,8,-1
EndSplineSet
EndChar

StartChar: a
Encoding: 97 97 172
Width: 570
GlyphClass: 2
Flags: W
LayerCount: 2
Fore
SplineSet
425 460 m 1,0,-1
 425 0 l 1,1,-1
 500 0 l 1,2,-1
 500 460 l 1,3,-1
 425 460 l 1,0,-1
35 230 m 0,4,5
 35 156 35 156 66 102 c 128,-1,6
 97 48 97 48 149 19 c 128,-1,7
 201 -10 201 -10 263 -10 c 0,8,9
 321 -10 321 -10 364 19 c 128,-1,10
 407 48 407 48 431.5 102 c 128,-1,11
 456 156 456 156 456 230 c 0,12,13
 456 305 456 305 431.5 358.5 c 128,-1,14
 407 412 407 412 364 441 c 128,-1,15
 321 470 321 470 263 470 c 0,16,17
 201 470 201 470 149 441 c 128,-1,18
 97 412 97 412 66 358.5 c 128,-1,19
 35 305 35 305 35 230 c 0,4,5
116 230 m 256,20,21
 116 283 116 283 137.5 320 c 128,-1,22
 159 357 159 357 195 376 c 128,-1,23
 231 395 231 395 273 395 c 0,24,25
 308 395 308 395 342 376 c 128,-1,26
 376 357 376 357 398 320 c 128,-1,27
 420 283 420 283 420 230 c 256,28,29
 420 177 420 177 398 140 c 128,-1,30
 376 103 376 103 342 84 c 128,-1,31
 308 65 308 65 273 65 c 0,32,33
 231 65 231 65 195 84 c 128,-1,34
 159 103 159 103 137.5 140 c 128,-1,35
 116 177 116 177 116 230 c 256,20,21
EndSplineSet
Substitution2: "'ss01' Style Set 1 in Latin lookup 0 subtable" a.alt
EndChar

StartChar: agrave
Encoding: 224 224 173
Width: 570
GlyphClass: 2
Flags: W
LayerCount: 2
Fore
SplineSet
425 460 m 1,0,-1
 425 0 l 1,1,-1
 500 0 l 1,2,-1
 500 460 l 1,3,-1
 425 460 l 1,0,-1
35 230 m 0,4,5
 35 156 35 156 66 102 c 128,-1,6
 97 48 97 48 149 19 c 128,-1,7
 201 -10 201 -10 263 -10 c 0,8,9
 321 -10 321 -10 364 19 c 128,-1,10
 407 48 407 48 431.5 102 c 128,-1,11
 456 156 456 156 456 230 c 0,12,13
 456 305 456 305 431.5 358.5 c 128,-1,14
 407 412 407 412 364 441 c 128,-1,15
 321 470 321 470 263 470 c 0,16,17
 201 470 201 470 149 441 c 128,-1,18
 97 412 97 412 66 358.5 c 128,-1,19
 35 305 35 305 35 230 c 0,4,5
116 230 m 256,20,21
 116 283 116 283 137.5 320 c 128,-1,22
 159 357 159 357 195 376 c 128,-1,23
 231 395 231 395 273 395 c 0,24,25
 308 395 308 395 342 376 c 128,-1,26
 376 357 376 357 398 320 c 128,-1,27
 420 283 420 283 420 230 c 256,28,29
 420 177 420 177 398 140 c 128,-1,30
 376 103 376 103 342 84 c 128,-1,31
 308 65 308 65 273 65 c 0,32,33
 231 65 231 65 195 84 c 128,-1,34
 159 103 159 103 137.5 140 c 128,-1,35
 116 177 116 177 116 230 c 256,20,21
113 680 m 1,36,-1
 293 530 l 1,37,-1
 338 560 l 1,38,-1
 188 720 l 1,39,-1
 113 680 l 1,36,-1
EndSplineSet
Substitution2: "'ss01' Style Set 1 in Latin lookup 0 subtable" agrave.alt
EndChar

StartChar: aacute
Encoding: 225 225 174
Width: 570
GlyphClass: 2
Flags: W
LayerCount: 2
Fore
SplineSet
425 460 m 1,0,-1
 425 0 l 1,1,-1
 500 0 l 1,2,-1
 500 460 l 1,3,-1
 425 460 l 1,0,-1
35 230 m 0,4,5
 35 156 35 156 66 102 c 128,-1,6
 97 48 97 48 149 19 c 128,-1,7
 201 -10 201 -10 263 -10 c 0,8,9
 321 -10 321 -10 364 19 c 128,-1,10
 407 48 407 48 431.5 102 c 128,-1,11
 456 156 456 156 456 230 c 0,12,13
 456 305 456 305 431.5 358.5 c 128,-1,14
 407 412 407 412 364 441 c 128,-1,15
 321 470 321 470 263 470 c 0,16,17
 201 470 201 470 149 441 c 128,-1,18
 97 412 97 412 66 358.5 c 128,-1,19
 35 305 35 305 35 230 c 0,4,5
116 230 m 256,20,21
 116 283 116 283 137.5 320 c 128,-1,22
 159 357 159 357 195 376 c 128,-1,23
 231 395 231 395 273 395 c 0,24,25
 308 395 308 395 342 376 c 128,-1,26
 376 357 376 357 398 320 c 128,-1,27
 420 283 420 283 420 230 c 256,28,29
 420 177 420 177 398 140 c 128,-1,30
 376 103 376 103 342 84 c 128,-1,31
 308 65 308 65 273 65 c 0,32,33
 231 65 231 65 195 84 c 128,-1,34
 159 103 159 103 137.5 140 c 128,-1,35
 116 177 116 177 116 230 c 256,20,21
393 680 m 1,36,-1
 318 720 l 1,37,-1
 168 560 l 1,38,-1
 213 530 l 1,39,-1
 393 680 l 1,36,-1
EndSplineSet
Substitution2: "'ss01' Style Set 1 in Latin lookup 0 subtable" aacute.alt
EndChar

StartChar: acircumflex
Encoding: 226 226 175
Width: 570
GlyphClass: 2
Flags: W
LayerCount: 2
Fore
SplineSet
425 460 m 1,0,-1
 425 0 l 1,1,-1
 500 0 l 1,2,-1
 500 460 l 1,3,-1
 425 460 l 1,0,-1
35 230 m 0,4,5
 35 156 35 156 66 102 c 128,-1,6
 97 48 97 48 149 19 c 128,-1,7
 201 -10 201 -10 263 -10 c 0,8,9
 321 -10 321 -10 364 19 c 128,-1,10
 407 48 407 48 431.5 102 c 128,-1,11
 456 156 456 156 456 230 c 0,12,13
 456 305 456 305 431.5 358.5 c 128,-1,14
 407 412 407 412 364 441 c 128,-1,15
 321 470 321 470 263 470 c 0,16,17
 201 470 201 470 149 441 c 128,-1,18
 97 412 97 412 66 358.5 c 128,-1,19
 35 305 35 305 35 230 c 0,4,5
116 230 m 256,20,21
 116 283 116 283 137.5 320 c 128,-1,22
 159 357 159 357 195 376 c 128,-1,23
 231 395 231 395 273 395 c 0,24,25
 308 395 308 395 342 376 c 128,-1,26
 376 357 376 357 398 320 c 128,-1,27
 420 283 420 283 420 230 c 256,28,29
 420 177 420 177 398 140 c 128,-1,30
 376 103 376 103 342 84 c 128,-1,31
 308 65 308 65 273 65 c 0,32,33
 231 65 231 65 195 84 c 128,-1,34
 159 103 159 103 137.5 140 c 128,-1,35
 116 177 116 177 116 230 c 256,20,21
283 625 m 1,36,-1
 393 530 l 1,37,-1
 443 570 l 1,38,-1
 283 710 l 1,39,-1
 123 570 l 1,40,-1
 173 530 l 1,41,-1
 283 625 l 1,36,-1
EndSplineSet
Substitution2: "'ss01' Style Set 1 in Latin lookup 0 subtable" acircumflex.alt
EndChar

StartChar: atilde
Encoding: 227 227 176
Width: 570
GlyphClass: 2
Flags: W
LayerCount: 2
Fore
SplineSet
425 460 m 1,0,-1
 425 0 l 1,1,-1
 500 0 l 1,2,-1
 500 460 l 1,3,-1
 425 460 l 1,0,-1
35 230 m 0,4,5
 35 156 35 156 66 102 c 128,-1,6
 97 48 97 48 149 19 c 128,-1,7
 201 -10 201 -10 263 -10 c 0,8,9
 321 -10 321 -10 364 19 c 128,-1,10
 407 48 407 48 431.5 102 c 128,-1,11
 456 156 456 156 456 230 c 0,12,13
 456 305 456 305 431.5 358.5 c 128,-1,14
 407 412 407 412 364 441 c 128,-1,15
 321 470 321 470 263 470 c 0,16,17
 201 470 201 470 149 441 c 128,-1,18
 97 412 97 412 66 358.5 c 128,-1,19
 35 305 35 305 35 230 c 0,4,5
116 230 m 256,20,21
 116 283 116 283 137.5 320 c 128,-1,22
 159 357 159 357 195 376 c 128,-1,23
 231 395 231 395 273 395 c 0,24,25
 308 395 308 395 342 376 c 128,-1,26
 376 357 376 357 398 320 c 128,-1,27
 420 283 420 283 420 230 c 256,28,29
 420 177 420 177 398 140 c 128,-1,30
 376 103 376 103 342 84 c 128,-1,31
 308 65 308 65 273 65 c 0,32,33
 231 65 231 65 195 84 c 128,-1,34
 159 103 159 103 137.5 140 c 128,-1,35
 116 177 116 177 116 230 c 256,20,21
118 567 m 1,36,-1
 171 530 l 1,37,38
 171 538 171 538 175 550 c 128,-1,39
 179 562 179 562 190 571.5 c 128,-1,40
 201 581 201 581 221 581 c 0,41,42
 244 581 244 581 260.5 569.5 c 128,-1,43
 277 558 277 558 296 546 c 128,-1,44
 315 534 315 534 342 534 c 0,45,46
 367 534 367 534 388 544.5 c 128,-1,47
 409 555 409 555 424.5 572 c 128,-1,48
 440 589 440 589 448 607 c 1,49,-1
 402 650 l 1,50,51
 387 626 387 626 373.5 614 c 128,-1,52
 360 602 360 602 346 602 c 0,53,54
 326 602 326 602 313 609 c 128,-1,55
 300 616 300 616 288.5 625.5 c 128,-1,56
 277 635 277 635 261.5 642 c 128,-1,57
 246 649 246 649 222 649 c 0,58,59
 200 649 200 649 177.5 638.5 c 128,-1,60
 155 628 155 628 139 610 c 128,-1,61
 123 592 123 592 118 567 c 1,36,-1
EndSplineSet
Substitution2: "'ss01' Style Set 1 in Latin lookup 0 subtable" atilde.alt
EndChar

StartChar: adieresis
Encoding: 228 228 177
Width: 570
GlyphClass: 2
Flags: W
LayerCount: 2
Fore
SplineSet
425 460 m 1,0,-1
 425 0 l 1,1,-1
 500 0 l 1,2,-1
 500 460 l 1,3,-1
 425 460 l 1,0,-1
35 230 m 0,4,5
 35 156 35 156 66 102 c 128,-1,6
 97 48 97 48 149 19 c 128,-1,7
 201 -10 201 -10 263 -10 c 0,8,9
 321 -10 321 -10 364 19 c 128,-1,10
 407 48 407 48 431.5 102 c 128,-1,11
 456 156 456 156 456 230 c 0,12,13
 456 305 456 305 431.5 358.5 c 128,-1,14
 407 412 407 412 364 441 c 128,-1,15
 321 470 321 470 263 470 c 0,16,17
 201 470 201 470 149 441 c 128,-1,18
 97 412 97 412 66 358.5 c 128,-1,19
 35 305 35 305 35 230 c 0,4,5
116 230 m 256,20,21
 116 283 116 283 137.5 320 c 128,-1,22
 159 357 159 357 195 376 c 128,-1,23
 231 395 231 395 273 395 c 0,24,25
 308 395 308 395 342 376 c 128,-1,26
 376 357 376 357 398 320 c 128,-1,27
 420 283 420 283 420 230 c 256,28,29
 420 177 420 177 398 140 c 128,-1,30
 376 103 376 103 342 84 c 128,-1,31
 308 65 308 65 273 65 c 0,32,33
 231 65 231 65 195 84 c 128,-1,34
 159 103 159 103 137.5 140 c 128,-1,35
 116 177 116 177 116 230 c 256,20,21
328 585 m 0,36,37
 328 563 328 563 344.5 546.5 c 128,-1,38
 361 530 361 530 383 530 c 0,39,40
 406 530 406 530 422 546.5 c 128,-1,41
 438 563 438 563 438 585 c 0,42,43
 438 608 438 608 422 624 c 128,-1,44
 406 640 406 640 383 640 c 0,45,46
 361 640 361 640 344.5 624 c 128,-1,47
 328 608 328 608 328 585 c 0,36,37
128 585 m 0,48,49
 128 563 128 563 144.5 546.5 c 128,-1,50
 161 530 161 530 183 530 c 0,51,52
 206 530 206 530 222 546.5 c 128,-1,53
 238 563 238 563 238 585 c 0,54,55
 238 608 238 608 222 624 c 128,-1,56
 206 640 206 640 183 640 c 0,57,58
 161 640 161 640 144.5 624 c 128,-1,59
 128 608 128 608 128 585 c 0,48,49
EndSplineSet
Substitution2: "'ss01' Style Set 1 in Latin lookup 0 subtable" adieresis.alt
EndChar

StartChar: aring
Encoding: 229 229 178
Width: 570
GlyphClass: 2
Flags: W
LayerCount: 2
Fore
SplineSet
425 460 m 1,0,-1
 425 0 l 1,1,-1
 500 0 l 1,2,-1
 500 460 l 1,3,-1
 425 460 l 1,0,-1
35 230 m 0,4,5
 35 156 35 156 66 102 c 128,-1,6
 97 48 97 48 149 19 c 128,-1,7
 201 -10 201 -10 263 -10 c 0,8,9
 321 -10 321 -10 364 19 c 128,-1,10
 407 48 407 48 431.5 102 c 128,-1,11
 456 156 456 156 456 230 c 0,12,13
 456 305 456 305 431.5 358.5 c 128,-1,14
 407 412 407 412 364 441 c 128,-1,15
 321 470 321 470 263 470 c 0,16,17
 201 470 201 470 149 441 c 128,-1,18
 97 412 97 412 66 358.5 c 128,-1,19
 35 305 35 305 35 230 c 0,4,5
116 230 m 256,20,21
 116 283 116 283 137.5 320 c 128,-1,22
 159 357 159 357 195 376 c 128,-1,23
 231 395 231 395 273 395 c 0,24,25
 308 395 308 395 342 376 c 128,-1,26
 376 357 376 357 398 320 c 128,-1,27
 420 283 420 283 420 230 c 256,28,29
 420 177 420 177 398 140 c 128,-1,30
 376 103 376 103 342 84 c 128,-1,31
 308 65 308 65 273 65 c 0,32,33
 231 65 231 65 195 84 c 128,-1,34
 159 103 159 103 137.5 140 c 128,-1,35
 116 177 116 177 116 230 c 256,20,21
181 630 m 256,36,37
 181 585 181 585 212.5 557.5 c 128,-1,38
 244 530 244 530 283 530 c 256,39,40
 322 530 322 530 353.5 557.5 c 128,-1,41
 385 585 385 585 385 630 c 256,42,43
 385 675 385 675 353.5 702.5 c 128,-1,44
 322 730 322 730 283 730 c 256,45,46
 244 730 244 730 212.5 702.5 c 128,-1,47
 181 675 181 675 181 630 c 256,36,37
232 630 m 256,48,49
 232 655 232 655 248 669 c 128,-1,50
 264 683 264 683 283 683 c 256,51,52
 302 683 302 683 318 669 c 128,-1,53
 334 655 334 655 334 630 c 256,54,55
 334 605 334 605 318 591 c 128,-1,56
 302 577 302 577 283 577 c 256,57,58
 264 577 264 577 248 591 c 128,-1,59
 232 605 232 605 232 630 c 256,48,49
EndSplineSet
Substitution2: "'ss01' Style Set 1 in Latin lookup 0 subtable" aring.alt
EndChar

StartChar: amacron
Encoding: 257 257 179
Width: 570
GlyphClass: 2
Flags: W
LayerCount: 2
Fore
SplineSet
425 460 m 1,0,-1
 425 0 l 1,1,-1
 500 0 l 1,2,-1
 500 460 l 1,3,-1
 425 460 l 1,0,-1
35 230 m 0,4,5
 35 156 35 156 66 102 c 128,-1,6
 97 48 97 48 149 19 c 128,-1,7
 201 -10 201 -10 263 -10 c 0,8,9
 321 -10 321 -10 364 19 c 128,-1,10
 407 48 407 48 431.5 102 c 128,-1,11
 456 156 456 156 456 230 c 0,12,13
 456 305 456 305 431.5 358.5 c 128,-1,14
 407 412 407 412 364 441 c 128,-1,15
 321 470 321 470 263 470 c 0,16,17
 201 470 201 470 149 441 c 128,-1,18
 97 412 97 412 66 358.5 c 128,-1,19
 35 305 35 305 35 230 c 0,4,5
116 230 m 256,20,21
 116 283 116 283 137.5 320 c 128,-1,22
 159 357 159 357 195 376 c 128,-1,23
 231 395 231 395 273 395 c 0,24,25
 308 395 308 395 342 376 c 128,-1,26
 376 357 376 357 398 320 c 128,-1,27
 420 283 420 283 420 230 c 256,28,29
 420 177 420 177 398 140 c 128,-1,30
 376 103 376 103 342 84 c 128,-1,31
 308 65 308 65 273 65 c 0,32,33
 231 65 231 65 195 84 c 128,-1,34
 159 103 159 103 137.5 140 c 128,-1,35
 116 177 116 177 116 230 c 256,20,21
98 530 m 1,36,-1
 448 530 l 1,37,-1
 448 605 l 1,38,-1
 98 605 l 1,39,-1
 98 530 l 1,36,-1
EndSplineSet
Substitution2: "'ss01' Style Set 1 in Latin lookup 0 subtable" amacron.alt
EndChar

StartChar: abreve
Encoding: 259 259 180
Width: 570
GlyphClass: 2
Flags: W
LayerCount: 2
Fore
SplineSet
425 460 m 1,0,-1
 425 0 l 1,1,-1
 500 0 l 1,2,-1
 500 460 l 1,3,-1
 425 460 l 1,0,-1
35 230 m 0,4,5
 35 156 35 156 66 102 c 128,-1,6
 97 48 97 48 149 19 c 128,-1,7
 201 -10 201 -10 263 -10 c 0,8,9
 321 -10 321 -10 364 19 c 128,-1,10
 407 48 407 48 431.5 102 c 128,-1,11
 456 156 456 156 456 230 c 0,12,13
 456 305 456 305 431.5 358.5 c 128,-1,14
 407 412 407 412 364 441 c 128,-1,15
 321 470 321 470 263 470 c 0,16,17
 201 470 201 470 149 441 c 128,-1,18
 97 412 97 412 66 358.5 c 128,-1,19
 35 305 35 305 35 230 c 0,4,5
116 230 m 256,20,21
 116 283 116 283 137.5 320 c 128,-1,22
 159 357 159 357 195 376 c 128,-1,23
 231 395 231 395 273 395 c 0,24,25
 308 395 308 395 342 376 c 128,-1,26
 376 357 376 357 398 320 c 128,-1,27
 420 283 420 283 420 230 c 256,28,29
 420 177 420 177 398 140 c 128,-1,30
 376 103 376 103 342 84 c 128,-1,31
 308 65 308 65 273 65 c 0,32,33
 231 65 231 65 195 84 c 128,-1,34
 159 103 159 103 137.5 140 c 128,-1,35
 116 177 116 177 116 230 c 256,20,21
105 670 m 1,36,37
 105 636 105 636 122.5 603.5 c 128,-1,38
 140 571 140 571 175.5 550.5 c 128,-1,39
 211 530 211 530 263 530 c 0,40,41
 316 530 316 530 351 550.5 c 128,-1,42
 386 571 386 571 403.5 603.5 c 128,-1,43
 421 636 421 636 421 670 c 1,44,-1
 350 670 l 1,45,46
 350 657 350 657 343 639.5 c 128,-1,47
 336 622 336 622 317 608.5 c 128,-1,48
 298 595 298 595 263 595 c 256,49,50
 228 595 228 595 209 608.5 c 128,-1,51
 190 622 190 622 183 639.5 c 128,-1,52
 176 657 176 657 176 670 c 1,53,-1
 105 670 l 1,36,37
EndSplineSet
Substitution2: "'ss01' Style Set 1 in Latin lookup 0 subtable" abreve.alt
EndChar

StartChar: aogonek
Encoding: 261 261 181
Width: 485
GlyphClass: 2
Flags: W
LayerCount: 2
Fore
SplineSet
111 135 m 0,0,1
 111 163 111 163 124 183 c 128,-1,2
 137 203 137 203 163.5 214 c 128,-1,3
 190 225 190 225 230 225 c 0,4,5
 274 225 274 225 309 213.5 c 128,-1,6
 344 202 344 202 378 178 c 1,7,-1
 378 225 l 1,8,9
 371 234 371 234 352 248.5 c 128,-1,10
 333 263 333 263 301.5 274.5 c 128,-1,11
 270 286 270 286 226 286 c 0,12,13
 166 286 166 286 122 267.5 c 128,-1,14
 78 249 78 249 54 215 c 128,-1,15
 30 181 30 181 30 132 c 0,16,17
 30 85 30 85 51.5 53.5 c 128,-1,18
 73 22 73 22 109 6 c 128,-1,19
 145 -10 145 -10 188 -10 c 0,20,21
 236 -10 236 -10 275 6.5 c 128,-1,22
 314 23 314 23 337.5 54.5 c 128,-1,23
 361 86 361 86 361 130 c 1,24,-1
 345 180 l 1,25,26
 345 137 345 137 327.5 111 c 128,-1,27
 310 85 310 85 279 73 c 128,-1,28
 248 61 248 61 208 61 c 0,29,30
 181 61 181 61 159 69.5 c 128,-1,31
 137 78 137 78 124 94.5 c 128,-1,32
 111 111 111 111 111 135 c 0,0,1
111 352 m 1,33,34
 122 360 122 360 141.5 371.5 c 128,-1,35
 161 383 161 383 188 391.5 c 128,-1,36
 215 400 215 400 248 400 c 0,37,38
 286 400 286 400 315.5 382.5 c 128,-1,39
 345 365 345 365 345 330 c 2,40,-1
 345 0 l 1,41,-1
 425 0 l 1,42,-1
 425 330 l 2,43,44
 425 375 425 375 402.5 406 c 128,-1,45
 380 437 380 437 340.5 453.5 c 128,-1,46
 301 470 301 470 248 470 c 0,47,48
 186 470 186 470 142 451 c 128,-1,49
 98 432 98 432 72 413 c 1,50,-1
 111 352 l 1,33,34
430 -130 m 1,51,52
 420 -140 420 -140 410 -145 c 128,-1,53
 400 -150 400 -150 380 -150 c 0,54,55
 358 -150 358 -150 345 -138.5 c 128,-1,56
 332 -127 332 -127 332 -100 c 0,57,58
 332 -81 332 -81 344.5 -62.5 c 128,-1,59
 357 -44 357 -44 378 -27.5 c 128,-1,60
 399 -11 399 -11 425 0 c 1,61,-1
 384 25 l 1,62,63
 349 7 349 7 319 -15.5 c 128,-1,64
 289 -38 289 -38 270.5 -64 c 128,-1,65
 252 -90 252 -90 252 -120 c 0,66,67
 252 -149 252 -149 265.5 -172 c 128,-1,68
 279 -195 279 -195 306 -207.5 c 128,-1,69
 333 -220 333 -220 375 -220 c 0,70,71
 407 -220 407 -220 429.5 -207.5 c 128,-1,72
 452 -195 452 -195 463 -180 c 1,73,-1
 430 -130 l 1,51,52
EndSplineSet
Substitution2: "'ss01' Style Set 1 in Latin lookup 0 subtable" aogonek.alt
EndChar

StartChar: b
Encoding: 98 98 182
Width: 570
GlyphClass: 2
Flags: W
LayerCount: 2
Fore
SplineSet
150 780 m 1,0,-1
 70 780 l 1,1,-1
 70 0 l 1,2,-1
 150 0 l 1,3,-1
 150 780 l 1,0,-1
535 230 m 0,4,5
 535 305 535 305 504 358.5 c 128,-1,6
 473 412 473 412 421.5 441 c 128,-1,7
 370 470 370 470 307 470 c 0,8,9
 250 470 250 470 206.5 441 c 128,-1,10
 163 412 163 412 138.5 358.5 c 128,-1,11
 114 305 114 305 114 230 c 0,12,13
 114 156 114 156 138.5 102 c 128,-1,14
 163 48 163 48 206.5 19 c 128,-1,15
 250 -10 250 -10 307 -10 c 0,16,17
 370 -10 370 -10 421.5 19 c 128,-1,18
 473 48 473 48 504 102 c 128,-1,19
 535 156 535 156 535 230 c 0,4,5
454 230 m 256,20,21
 454 177 454 177 432.5 140 c 128,-1,22
 411 103 411 103 375.5 84 c 128,-1,23
 340 65 340 65 297 65 c 0,24,25
 262 65 262 65 228 84 c 128,-1,26
 194 103 194 103 172 140 c 128,-1,27
 150 177 150 177 150 230 c 256,28,29
 150 283 150 283 172 320 c 128,-1,30
 194 357 194 357 228 376 c 128,-1,31
 262 395 262 395 297 395 c 0,32,33
 340 395 340 395 375.5 376 c 128,-1,34
 411 357 411 357 432.5 320 c 128,-1,35
 454 283 454 283 454 230 c 256,20,21
EndSplineSet
EndChar

StartChar: c
Encoding: 99 99 183
Width: 478
GlyphClass: 2
Flags: W
LayerCount: 2
Fore
SplineSet
111 230 m 256,0,1
 111 278 111 278 131.5 315.5 c 128,-1,2
 152 353 152 353 187.5 374 c 128,-1,3
 223 395 223 395 268 395 c 0,4,5
 305 395 305 395 337.5 383.5 c 128,-1,6
 370 372 370 372 394 353 c 128,-1,7
 418 334 418 334 428 311 c 1,8,-1
 428 411 l 1,9,10
 404 439 404 439 359.5 454.5 c 128,-1,11
 315 470 315 470 268 470 c 0,12,13
 201 470 201 470 147 439 c 128,-1,14
 93 408 93 408 61.5 354 c 128,-1,15
 30 300 30 300 30 230 c 0,16,17
 30 161 30 161 61.5 106.5 c 128,-1,18
 93 52 93 52 147 21 c 128,-1,19
 201 -10 201 -10 268 -10 c 0,20,21
 315 -10 315 -10 359.5 5.5 c 128,-1,22
 404 21 404 21 428 49 c 1,23,-1
 428 149 l 1,24,25
 418 127 418 127 394 107.5 c 128,-1,26
 370 88 370 88 337.5 76.5 c 128,-1,27
 305 65 305 65 268 65 c 0,28,29
 223 65 223 65 187.5 86.5 c 128,-1,30
 152 108 152 108 131.5 145 c 128,-1,31
 111 182 111 182 111 230 c 256,0,1
EndSplineSet
EndChar

StartChar: ccedilla
Encoding: 231 231 184
Width: 478
GlyphClass: 2
Flags: W
LayerCount: 2
Fore
SplineSet
111 230 m 256,0,1
 111 278 111 278 131.5 315.5 c 128,-1,2
 152 353 152 353 187.5 374 c 128,-1,3
 223 395 223 395 268 395 c 0,4,5
 305 395 305 395 337.5 383.5 c 128,-1,6
 370 372 370 372 394 353 c 128,-1,7
 418 334 418 334 428 311 c 1,8,-1
 428 411 l 1,9,10
 404 439 404 439 359.5 454.5 c 128,-1,11
 315 470 315 470 268 470 c 0,12,13
 201 470 201 470 147 439 c 128,-1,14
 93 408 93 408 61.5 354 c 128,-1,15
 30 300 30 300 30 230 c 0,16,17
 30 161 30 161 61.5 106.5 c 128,-1,18
 93 52 93 52 147 21 c 128,-1,19
 201 -10 201 -10 268 -10 c 0,20,21
 315 -10 315 -10 359.5 5.5 c 128,-1,22
 404 21 404 21 428 49 c 1,23,-1
 428 149 l 1,24,25
 418 127 418 127 394 107.5 c 128,-1,26
 370 88 370 88 337.5 76.5 c 128,-1,27
 305 65 305 65 268 65 c 0,28,29
 223 65 223 65 187.5 86.5 c 128,-1,30
 152 108 152 108 131.5 145 c 128,-1,31
 111 182 111 182 111 230 c 256,0,1
258 59 m 1,32,-1
 172 -109 l 1,33,34
 188 -98 188 -98 205.5 -94.5 c 128,-1,35
 223 -91 223 -91 230 -91 c 0,36,37
 256 -91 256 -91 268 -100 c 128,-1,38
 280 -109 280 -109 280 -127 c 256,39,40
 280 -145 280 -145 268 -156 c 128,-1,41
 256 -167 256 -167 230 -167 c 0,42,43
 211 -167 211 -167 199.5 -161 c 128,-1,44
 188 -155 188 -155 174 -143 c 1,45,-1
 140 -183 l 1,46,47
 161 -204 161 -204 181.5 -212.5 c 128,-1,48
 202 -221 202 -221 230 -221 c 256,49,50
 258 -221 258 -221 282 -210 c 128,-1,51
 306 -199 306 -199 321 -178 c 128,-1,52
 336 -157 336 -157 336 -127 c 0,53,54
 336 -102 336 -102 325 -86 c 128,-1,55
 314 -70 314 -70 297.5 -61.5 c 128,-1,56
 281 -53 281 -53 264 -53 c 0,57,58
 262 -53 262 -53 259.5 -53 c 128,-1,59
 257 -53 257 -53 255 -53 c 1,60,-1
 318 59 l 1,61,-1
 258 59 l 1,32,-1
EndSplineSet
EndChar

StartChar: cacute
Encoding: 263 263 185
Width: 478
GlyphClass: 2
Flags: W
LayerCount: 2
Fore
SplineSet
111 230 m 256,0,1
 111 278 111 278 131.5 315.5 c 128,-1,2
 152 353 152 353 187.5 374 c 128,-1,3
 223 395 223 395 268 395 c 0,4,5
 305 395 305 395 337.5 383.5 c 128,-1,6
 370 372 370 372 394 353 c 128,-1,7
 418 334 418 334 428 311 c 1,8,-1
 428 411 l 1,9,10
 404 439 404 439 359.5 454.5 c 128,-1,11
 315 470 315 470 268 470 c 0,12,13
 201 470 201 470 147 439 c 128,-1,14
 93 408 93 408 61.5 354 c 128,-1,15
 30 300 30 300 30 230 c 0,16,17
 30 161 30 161 61.5 106.5 c 128,-1,18
 93 52 93 52 147 21 c 128,-1,19
 201 -10 201 -10 268 -10 c 0,20,21
 315 -10 315 -10 359.5 5.5 c 128,-1,22
 404 21 404 21 428 49 c 1,23,-1
 428 149 l 1,24,25
 418 127 418 127 394 107.5 c 128,-1,26
 370 88 370 88 337.5 76.5 c 128,-1,27
 305 65 305 65 268 65 c 0,28,29
 223 65 223 65 187.5 86.5 c 128,-1,30
 152 108 152 108 131.5 145 c 128,-1,31
 111 182 111 182 111 230 c 256,0,1
398 680 m 1,32,-1
 323 720 l 1,33,-1
 173 560 l 1,34,-1
 218 530 l 1,35,-1
 398 680 l 1,32,-1
EndSplineSet
EndChar

StartChar: ccircumflex
Encoding: 265 265 186
Width: 478
GlyphClass: 2
Flags: W
LayerCount: 2
Fore
SplineSet
111 230 m 256,0,1
 111 278 111 278 131.5 315.5 c 128,-1,2
 152 353 152 353 187.5 374 c 128,-1,3
 223 395 223 395 268 395 c 0,4,5
 305 395 305 395 337.5 383.5 c 128,-1,6
 370 372 370 372 394 353 c 128,-1,7
 418 334 418 334 428 311 c 1,8,-1
 428 411 l 1,9,10
 404 439 404 439 359.5 454.5 c 128,-1,11
 315 470 315 470 268 470 c 0,12,13
 201 470 201 470 147 439 c 128,-1,14
 93 408 93 408 61.5 354 c 128,-1,15
 30 300 30 300 30 230 c 0,16,17
 30 161 30 161 61.5 106.5 c 128,-1,18
 93 52 93 52 147 21 c 128,-1,19
 201 -10 201 -10 268 -10 c 0,20,21
 315 -10 315 -10 359.5 5.5 c 128,-1,22
 404 21 404 21 428 49 c 1,23,-1
 428 149 l 1,24,25
 418 127 418 127 394 107.5 c 128,-1,26
 370 88 370 88 337.5 76.5 c 128,-1,27
 305 65 305 65 268 65 c 0,28,29
 223 65 223 65 187.5 86.5 c 128,-1,30
 152 108 152 108 131.5 145 c 128,-1,31
 111 182 111 182 111 230 c 256,0,1
268 625 m 1,32,-1
 378 530 l 1,33,-1
 428 570 l 1,34,-1
 268 710 l 1,35,-1
 108 570 l 1,36,-1
 158 530 l 1,37,-1
 268 625 l 1,32,-1
EndSplineSet
EndChar

StartChar: cdotaccent
Encoding: 267 267 187
Width: 478
GlyphClass: 2
Flags: W
LayerCount: 2
Fore
SplineSet
111 230 m 256,0,1
 111 278 111 278 131.5 315.5 c 128,-1,2
 152 353 152 353 187.5 374 c 128,-1,3
 223 395 223 395 268 395 c 0,4,5
 305 395 305 395 337.5 383.5 c 128,-1,6
 370 372 370 372 394 353 c 128,-1,7
 418 334 418 334 428 311 c 1,8,-1
 428 411 l 1,9,10
 404 439 404 439 359.5 454.5 c 128,-1,11
 315 470 315 470 268 470 c 0,12,13
 201 470 201 470 147 439 c 128,-1,14
 93 408 93 408 61.5 354 c 128,-1,15
 30 300 30 300 30 230 c 0,16,17
 30 161 30 161 61.5 106.5 c 128,-1,18
 93 52 93 52 147 21 c 128,-1,19
 201 -10 201 -10 268 -10 c 0,20,21
 315 -10 315 -10 359.5 5.5 c 128,-1,22
 404 21 404 21 428 49 c 1,23,-1
 428 149 l 1,24,25
 418 127 418 127 394 107.5 c 128,-1,26
 370 88 370 88 337.5 76.5 c 128,-1,27
 305 65 305 65 268 65 c 0,28,29
 223 65 223 65 187.5 86.5 c 128,-1,30
 152 108 152 108 131.5 145 c 128,-1,31
 111 182 111 182 111 230 c 256,0,1
213 585 m 0,32,33
 213 563 213 563 229.5 546.5 c 128,-1,34
 246 530 246 530 268 530 c 0,35,36
 291 530 291 530 307 546.5 c 128,-1,37
 323 563 323 563 323 585 c 0,38,39
 323 608 323 608 307 624 c 128,-1,40
 291 640 291 640 268 640 c 0,41,42
 246 640 246 640 229.5 624 c 128,-1,43
 213 608 213 608 213 585 c 0,32,33
EndSplineSet
EndChar

StartChar: ccaron
Encoding: 269 269 188
Width: 478
GlyphClass: 2
Flags: W
LayerCount: 2
Fore
SplineSet
111 230 m 256,0,1
 111 278 111 278 131.5 315.5 c 128,-1,2
 152 353 152 353 187.5 374 c 128,-1,3
 223 395 223 395 268 395 c 0,4,5
 305 395 305 395 337.5 383.5 c 128,-1,6
 370 372 370 372 394 353 c 128,-1,7
 418 334 418 334 428 311 c 1,8,-1
 428 411 l 1,9,10
 404 439 404 439 359.5 454.5 c 128,-1,11
 315 470 315 470 268 470 c 0,12,13
 201 470 201 470 147 439 c 128,-1,14
 93 408 93 408 61.5 354 c 128,-1,15
 30 300 30 300 30 230 c 0,16,17
 30 161 30 161 61.5 106.5 c 128,-1,18
 93 52 93 52 147 21 c 128,-1,19
 201 -10 201 -10 268 -10 c 0,20,21
 315 -10 315 -10 359.5 5.5 c 128,-1,22
 404 21 404 21 428 49 c 1,23,-1
 428 149 l 1,24,25
 418 127 418 127 394 107.5 c 128,-1,26
 370 88 370 88 337.5 76.5 c 128,-1,27
 305 65 305 65 268 65 c 0,28,29
 223 65 223 65 187.5 86.5 c 128,-1,30
 152 108 152 108 131.5 145 c 128,-1,31
 111 182 111 182 111 230 c 256,0,1
268 615 m 1,32,-1
 158 710 l 1,33,-1
 108 670 l 1,34,-1
 268 530 l 1,35,-1
 428 670 l 1,36,-1
 378 710 l 1,37,-1
 268 615 l 1,32,-1
EndSplineSet
EndChar

StartChar: d
Encoding: 100 100 189
Width: 570
GlyphClass: 2
Flags: W
LayerCount: 2
Fore
SplineSet
420 780 m 1,0,-1
 420 0 l 1,1,-1
 500 0 l 1,2,-1
 500 780 l 1,3,-1
 420 780 l 1,0,-1
35 230 m 0,4,5
 35 156 35 156 66 102 c 128,-1,6
 97 48 97 48 149 19 c 128,-1,7
 201 -10 201 -10 263 -10 c 0,8,9
 321 -10 321 -10 364 19 c 128,-1,10
 407 48 407 48 431.5 102 c 128,-1,11
 456 156 456 156 456 230 c 0,12,13
 456 305 456 305 431.5 358.5 c 128,-1,14
 407 412 407 412 364 441 c 128,-1,15
 321 470 321 470 263 470 c 0,16,17
 201 470 201 470 149 441 c 128,-1,18
 97 412 97 412 66 358.5 c 128,-1,19
 35 305 35 305 35 230 c 0,4,5
116 230 m 256,20,21
 116 283 116 283 137.5 320 c 128,-1,22
 159 357 159 357 195 376 c 128,-1,23
 231 395 231 395 273 395 c 0,24,25
 308 395 308 395 342 376 c 128,-1,26
 376 357 376 357 398 320 c 128,-1,27
 420 283 420 283 420 230 c 256,28,29
 420 177 420 177 398 140 c 128,-1,30
 376 103 376 103 342 84 c 128,-1,31
 308 65 308 65 273 65 c 0,32,33
 231 65 231 65 195 84 c 128,-1,34
 159 103 159 103 137.5 140 c 128,-1,35
 116 177 116 177 116 230 c 256,20,21
EndSplineSet
EndChar

StartChar: dcaron
Encoding: 271 271 190
Width: 570
GlyphClass: 2
Flags: W
LayerCount: 2
Fore
SplineSet
420 780 m 1,0,-1
 420 0 l 1,1,-1
 500 0 l 1,2,-1
 500 780 l 1,3,-1
 420 780 l 1,0,-1
35 230 m 0,4,5
 35 156 35 156 66 102 c 128,-1,6
 97 48 97 48 149 19 c 128,-1,7
 201 -10 201 -10 263 -10 c 0,8,9
 321 -10 321 -10 364 19 c 128,-1,10
 407 48 407 48 431.5 102 c 128,-1,11
 456 156 456 156 456 230 c 0,12,13
 456 305 456 305 431.5 358.5 c 128,-1,14
 407 412 407 412 364 441 c 128,-1,15
 321 470 321 470 263 470 c 0,16,17
 201 470 201 470 149 441 c 128,-1,18
 97 412 97 412 66 358.5 c 128,-1,19
 35 305 35 305 35 230 c 0,4,5
116 230 m 256,20,21
 116 283 116 283 137.5 320 c 128,-1,22
 159 357 159 357 195 376 c 128,-1,23
 231 395 231 395 273 395 c 0,24,25
 308 395 308 395 342 376 c 128,-1,26
 376 357 376 357 398 320 c 128,-1,27
 420 283 420 283 420 230 c 256,28,29
 420 177 420 177 398 140 c 128,-1,30
 376 103 376 103 342 84 c 128,-1,31
 308 65 308 65 273 65 c 0,32,33
 231 65 231 65 195 84 c 128,-1,34
 159 103 159 103 137.5 140 c 128,-1,35
 116 177 116 177 116 230 c 256,20,21
618 780 m 1,36,-1
 530 521 l 1,37,-1
 588 500 l 1,38,-1
 698 750 l 1,39,-1
 618 780 l 1,36,-1
EndSplineSet
EndChar

StartChar: e
Encoding: 101 101 191
Width: 515
GlyphClass: 2
Flags: W
LayerCount: 2
Fore
SplineSet
253 -10 m 0,0,1
 327 -10 327 -10 381.5 19.5 c 128,-1,2
 436 49 436 49 472 107 c 1,3,-1
 407 148 l 1,4,5
 382 106 382 106 346 85.5 c 128,-1,6
 310 65 310 65 263 65 c 256,7,8
 216 65 216 65 183 85 c 128,-1,9
 150 105 150 105 133 143 c 128,-1,10
 116 181 116 181 116 235 c 0,11,12
 117 288 117 288 134.5 324.5 c 128,-1,13
 152 361 152 361 184.5 380.5 c 128,-1,14
 217 400 217 400 263 400 c 0,15,16
 302 400 302 400 331 383 c 128,-1,17
 360 366 360 366 376.5 336 c 128,-1,18
 393 306 393 306 393 265 c 0,19,20
 393 258 393 258 390 247.5 c 128,-1,21
 387 237 387 237 384 232 c 1,22,-1
 416 278 l 1,23,-1
 86 278 l 1,24,-1
 86 210 l 1,25,-1
 479 210 l 1,26,27
 479 212 479 212 479.5 219.5 c 128,-1,28
 480 227 480 227 480 234 c 0,29,30
 480 307 480 307 454 360 c 128,-1,31
 428 413 428 413 379.5 441.5 c 128,-1,32
 331 470 331 470 263 470 c 256,33,34
 195 470 195 470 143.5 440 c 128,-1,35
 92 410 92 410 63.5 356 c 128,-1,36
 35 302 35 302 35 230 c 0,37,38
 35 159 35 159 62.5 105 c 128,-1,39
 90 51 90 51 139.5 20.5 c 128,-1,40
 189 -10 189 -10 253 -10 c 0,0,1
EndSplineSet
EndChar

StartChar: egrave
Encoding: 232 232 192
Width: 515
GlyphClass: 2
Flags: W
LayerCount: 2
Fore
SplineSet
86 210 m 1,0,-1
 479 210 l 1,1,2
 480 216 480 216 480 222 c 128,-1,3
 480 228 480 228 480 234 c 0,4,5
 480 307 480 307 453 359.5 c 128,-1,6
 426 412 426 412 377 441 c 128,-1,7
 328 470 328 470 263 470 c 0,8,9
 204 470 204 470 156.5 446 c 128,-1,10
 109 422 109 422 79 379 c 128,-1,11
 49 336 49 336 39 279 c 0,12,13
 37 267 37 267 36 255 c 128,-1,14
 35 243 35 243 35 230 c 0,15,16
 35 161 35 161 63.5 106.5 c 128,-1,17
 92 52 92 52 141.5 21 c 128,-1,18
 191 -10 191 -10 253 -10 c 0,19,20
 313 -10 313 -10 353 4.5 c 128,-1,21
 393 19 393 19 421 45.5 c 128,-1,22
 449 72 449 72 472 107 c 1,23,-1
 407 148 l 1,24,25
 392 123 392 123 371 104.5 c 128,-1,26
 350 86 350 86 323.5 75.5 c 128,-1,27
 297 65 297 65 263 65 c 0,28,29
 218 65 218 65 185 84 c 128,-1,30
 152 103 152 103 134 140 c 128,-1,31
 116 177 116 177 116 230 c 2,32,-1
 118 260 l 2,33,34
 118 303 118 303 137.5 334.5 c 128,-1,35
 157 366 157 366 190 383 c 128,-1,36
 223 400 223 400 263 400 c 256,37,38
 303 400 303 400 330.5 384.5 c 128,-1,39
 358 369 358 369 373.5 341.5 c 128,-1,40
 389 314 389 314 393 278 c 1,41,-1
 86 278 l 1,42,-1
 86 210 l 1,0,-1
123 690 m 1,43,-1
 303 540 l 1,44,-1
 348 570 l 1,45,-1
 198 730 l 1,46,-1
 123 690 l 1,43,-1
EndSplineSet
EndChar

StartChar: eacute
Encoding: 233 233 193
Width: 515
GlyphClass: 2
Flags: W
LayerCount: 2
Fore
SplineSet
86 210 m 1,0,-1
 479 210 l 1,1,2
 480 216 480 216 480 222 c 128,-1,3
 480 228 480 228 480 234 c 0,4,5
 480 307 480 307 453 359.5 c 128,-1,6
 426 412 426 412 377 441 c 128,-1,7
 328 470 328 470 263 470 c 0,8,9
 204 470 204 470 156.5 446 c 128,-1,10
 109 422 109 422 79 379 c 128,-1,11
 49 336 49 336 39 279 c 0,12,13
 37 267 37 267 36 255 c 128,-1,14
 35 243 35 243 35 230 c 0,15,16
 35 161 35 161 63.5 106.5 c 128,-1,17
 92 52 92 52 141.5 21 c 128,-1,18
 191 -10 191 -10 253 -10 c 0,19,20
 313 -10 313 -10 353 4.5 c 128,-1,21
 393 19 393 19 421 45.5 c 128,-1,22
 449 72 449 72 472 107 c 1,23,-1
 407 148 l 1,24,25
 392 123 392 123 371 104.5 c 128,-1,26
 350 86 350 86 323.5 75.5 c 128,-1,27
 297 65 297 65 263 65 c 0,28,29
 218 65 218 65 185 84 c 128,-1,30
 152 103 152 103 134 140 c 128,-1,31
 116 177 116 177 116 230 c 2,32,-1
 118 260 l 2,33,34
 118 303 118 303 137.5 334.5 c 128,-1,35
 157 366 157 366 190 383 c 128,-1,36
 223 400 223 400 263 400 c 256,37,38
 303 400 303 400 330.5 384.5 c 128,-1,39
 358 369 358 369 373.5 341.5 c 128,-1,40
 389 314 389 314 393 278 c 1,41,-1
 86 278 l 1,42,-1
 86 210 l 1,0,-1
423 690 m 1,43,-1
 348 730 l 1,44,-1
 198 570 l 1,45,-1
 243 540 l 1,46,-1
 423 690 l 1,43,-1
EndSplineSet
EndChar

StartChar: ecircumflex
Encoding: 234 234 194
Width: 515
GlyphClass: 2
Flags: W
LayerCount: 2
Fore
SplineSet
86 210 m 1,0,-1
 479 210 l 1,1,2
 480 216 480 216 480 222 c 128,-1,3
 480 228 480 228 480 234 c 0,4,5
 480 307 480 307 453 359.5 c 128,-1,6
 426 412 426 412 377 441 c 128,-1,7
 328 470 328 470 263 470 c 0,8,9
 204 470 204 470 156.5 446 c 128,-1,10
 109 422 109 422 79 379 c 128,-1,11
 49 336 49 336 39 279 c 0,12,13
 37 267 37 267 36 255 c 128,-1,14
 35 243 35 243 35 230 c 0,15,16
 35 161 35 161 63.5 106.5 c 128,-1,17
 92 52 92 52 141.5 21 c 128,-1,18
 191 -10 191 -10 253 -10 c 0,19,20
 313 -10 313 -10 353 4.5 c 128,-1,21
 393 19 393 19 421 45.5 c 128,-1,22
 449 72 449 72 472 107 c 1,23,-1
 407 148 l 1,24,25
 392 123 392 123 371 104.5 c 128,-1,26
 350 86 350 86 323.5 75.5 c 128,-1,27
 297 65 297 65 263 65 c 0,28,29
 218 65 218 65 185 84 c 128,-1,30
 152 103 152 103 134 140 c 128,-1,31
 116 177 116 177 116 230 c 2,32,-1
 118 260 l 2,33,34
 118 303 118 303 137.5 334.5 c 128,-1,35
 157 366 157 366 190 383 c 128,-1,36
 223 400 223 400 263 400 c 256,37,38
 303 400 303 400 330.5 384.5 c 128,-1,39
 358 369 358 369 373.5 341.5 c 128,-1,40
 389 314 389 314 393 278 c 1,41,-1
 86 278 l 1,42,-1
 86 210 l 1,0,-1
263 625 m 1,43,-1
 373 530 l 1,44,-1
 423 570 l 1,45,-1
 263 710 l 1,46,-1
 103 570 l 1,47,-1
 153 530 l 1,48,-1
 263 625 l 1,43,-1
EndSplineSet
EndChar

StartChar: edieresis
Encoding: 235 235 195
Width: 515
GlyphClass: 2
Flags: W
LayerCount: 2
Fore
SplineSet
86 210 m 1,0,-1
 479 210 l 1,1,2
 480 216 480 216 480 222 c 128,-1,3
 480 228 480 228 480 234 c 0,4,5
 480 307 480 307 453 359.5 c 128,-1,6
 426 412 426 412 377 441 c 128,-1,7
 328 470 328 470 263 470 c 0,8,9
 204 470 204 470 156.5 446 c 128,-1,10
 109 422 109 422 79 379 c 128,-1,11
 49 336 49 336 39 279 c 0,12,13
 37 267 37 267 36 255 c 128,-1,14
 35 243 35 243 35 230 c 0,15,16
 35 161 35 161 63.5 106.5 c 128,-1,17
 92 52 92 52 141.5 21 c 128,-1,18
 191 -10 191 -10 253 -10 c 0,19,20
 313 -10 313 -10 353 4.5 c 128,-1,21
 393 19 393 19 421 45.5 c 128,-1,22
 449 72 449 72 472 107 c 1,23,-1
 407 148 l 1,24,25
 392 123 392 123 371 104.5 c 128,-1,26
 350 86 350 86 323.5 75.5 c 128,-1,27
 297 65 297 65 263 65 c 0,28,29
 218 65 218 65 185 84 c 128,-1,30
 152 103 152 103 134 140 c 128,-1,31
 116 177 116 177 116 230 c 2,32,-1
 118 260 l 2,33,34
 118 303 118 303 137.5 334.5 c 128,-1,35
 157 366 157 366 190 383 c 128,-1,36
 223 400 223 400 263 400 c 256,37,38
 303 400 303 400 330.5 384.5 c 128,-1,39
 358 369 358 369 373.5 341.5 c 128,-1,40
 389 314 389 314 393 278 c 1,41,-1
 86 278 l 1,42,-1
 86 210 l 1,0,-1
308 585 m 0,43,44
 308 563 308 563 324.5 546.5 c 128,-1,45
 341 530 341 530 363 530 c 0,46,47
 386 530 386 530 402 546.5 c 128,-1,48
 418 563 418 563 418 585 c 0,49,50
 418 608 418 608 402 624 c 128,-1,51
 386 640 386 640 363 640 c 0,52,53
 341 640 341 640 324.5 624 c 128,-1,54
 308 608 308 608 308 585 c 0,43,44
108 585 m 0,55,56
 108 563 108 563 124.5 546.5 c 128,-1,57
 141 530 141 530 163 530 c 0,58,59
 186 530 186 530 202 546.5 c 128,-1,60
 218 563 218 563 218 585 c 0,61,62
 218 608 218 608 202 624 c 128,-1,63
 186 640 186 640 163 640 c 0,64,65
 141 640 141 640 124.5 624 c 128,-1,66
 108 608 108 608 108 585 c 0,55,56
EndSplineSet
EndChar

StartChar: emacron
Encoding: 275 275 196
Width: 515
GlyphClass: 2
Flags: W
LayerCount: 2
Fore
SplineSet
86 210 m 1,0,-1
 479 210 l 1,1,2
 480 216 480 216 480 222 c 128,-1,3
 480 228 480 228 480 234 c 0,4,5
 480 307 480 307 453 359.5 c 128,-1,6
 426 412 426 412 377 441 c 128,-1,7
 328 470 328 470 263 470 c 0,8,9
 204 470 204 470 156.5 446 c 128,-1,10
 109 422 109 422 79 379 c 128,-1,11
 49 336 49 336 39 279 c 0,12,13
 37 267 37 267 36 255 c 128,-1,14
 35 243 35 243 35 230 c 0,15,16
 35 161 35 161 63.5 106.5 c 128,-1,17
 92 52 92 52 141.5 21 c 128,-1,18
 191 -10 191 -10 253 -10 c 0,19,20
 313 -10 313 -10 353 4.5 c 128,-1,21
 393 19 393 19 421 45.5 c 128,-1,22
 449 72 449 72 472 107 c 1,23,-1
 407 148 l 1,24,25
 392 123 392 123 371 104.5 c 128,-1,26
 350 86 350 86 323.5 75.5 c 128,-1,27
 297 65 297 65 263 65 c 0,28,29
 218 65 218 65 185 84 c 128,-1,30
 152 103 152 103 134 140 c 128,-1,31
 116 177 116 177 116 230 c 2,32,-1
 118 260 l 2,33,34
 118 303 118 303 137.5 334.5 c 128,-1,35
 157 366 157 366 190 383 c 128,-1,36
 223 400 223 400 263 400 c 256,37,38
 303 400 303 400 330.5 384.5 c 128,-1,39
 358 369 358 369 373.5 341.5 c 128,-1,40
 389 314 389 314 393 278 c 1,41,-1
 86 278 l 1,42,-1
 86 210 l 1,0,-1
88 530 m 1,43,-1
 438 530 l 1,44,-1
 438 605 l 1,45,-1
 88 605 l 1,46,-1
 88 530 l 1,43,-1
EndSplineSet
EndChar

StartChar: ebreve
Encoding: 277 277 197
Width: 515
GlyphClass: 2
Flags: W
LayerCount: 2
Fore
SplineSet
86 210 m 1,0,-1
 479 210 l 1,1,2
 480 216 480 216 480 222 c 128,-1,3
 480 228 480 228 480 234 c 0,4,5
 480 307 480 307 453 359.5 c 128,-1,6
 426 412 426 412 377 441 c 128,-1,7
 328 470 328 470 263 470 c 0,8,9
 204 470 204 470 156.5 446 c 128,-1,10
 109 422 109 422 79 379 c 128,-1,11
 49 336 49 336 39 279 c 0,12,13
 37 267 37 267 36 255 c 128,-1,14
 35 243 35 243 35 230 c 0,15,16
 35 161 35 161 63.5 106.5 c 128,-1,17
 92 52 92 52 141.5 21 c 128,-1,18
 191 -10 191 -10 253 -10 c 0,19,20
 313 -10 313 -10 353 4.5 c 128,-1,21
 393 19 393 19 421 45.5 c 128,-1,22
 449 72 449 72 472 107 c 1,23,-1
 407 148 l 1,24,25
 392 123 392 123 371 104.5 c 128,-1,26
 350 86 350 86 323.5 75.5 c 128,-1,27
 297 65 297 65 263 65 c 0,28,29
 218 65 218 65 185 84 c 128,-1,30
 152 103 152 103 134 140 c 128,-1,31
 116 177 116 177 116 230 c 2,32,-1
 118 260 l 2,33,34
 118 303 118 303 137.5 334.5 c 128,-1,35
 157 366 157 366 190 383 c 128,-1,36
 223 400 223 400 263 400 c 256,37,38
 303 400 303 400 330.5 384.5 c 128,-1,39
 358 369 358 369 373.5 341.5 c 128,-1,40
 389 314 389 314 393 278 c 1,41,-1
 86 278 l 1,42,-1
 86 210 l 1,0,-1
105 670 m 1,43,44
 105 636 105 636 122.5 603.5 c 128,-1,45
 140 571 140 571 175.5 550.5 c 128,-1,46
 211 530 211 530 263 530 c 0,47,48
 316 530 316 530 351 550.5 c 128,-1,49
 386 571 386 571 403.5 603.5 c 128,-1,50
 421 636 421 636 421 670 c 1,51,-1
 350 670 l 1,52,53
 350 657 350 657 343 639.5 c 128,-1,54
 336 622 336 622 317 608.5 c 128,-1,55
 298 595 298 595 263 595 c 256,56,57
 228 595 228 595 209 608.5 c 128,-1,58
 190 622 190 622 183 639.5 c 128,-1,59
 176 657 176 657 176 670 c 1,60,-1
 105 670 l 1,43,44
EndSplineSet
EndChar

StartChar: edotaccent
Encoding: 279 279 198
Width: 515
GlyphClass: 2
Flags: W
LayerCount: 2
Fore
SplineSet
86 210 m 1,0,-1
 479 210 l 1,1,2
 480 216 480 216 480 222 c 128,-1,3
 480 228 480 228 480 234 c 0,4,5
 480 307 480 307 453 359.5 c 128,-1,6
 426 412 426 412 377 441 c 128,-1,7
 328 470 328 470 263 470 c 0,8,9
 204 470 204 470 156.5 446 c 128,-1,10
 109 422 109 422 79 379 c 128,-1,11
 49 336 49 336 39 279 c 0,12,13
 37 267 37 267 36 255 c 128,-1,14
 35 243 35 243 35 230 c 0,15,16
 35 161 35 161 63.5 106.5 c 128,-1,17
 92 52 92 52 141.5 21 c 128,-1,18
 191 -10 191 -10 253 -10 c 0,19,20
 313 -10 313 -10 353 4.5 c 128,-1,21
 393 19 393 19 421 45.5 c 128,-1,22
 449 72 449 72 472 107 c 1,23,-1
 407 148 l 1,24,25
 392 123 392 123 371 104.5 c 128,-1,26
 350 86 350 86 323.5 75.5 c 128,-1,27
 297 65 297 65 263 65 c 0,28,29
 218 65 218 65 185 84 c 128,-1,30
 152 103 152 103 134 140 c 128,-1,31
 116 177 116 177 116 230 c 2,32,-1
 118 260 l 2,33,34
 118 303 118 303 137.5 334.5 c 128,-1,35
 157 366 157 366 190 383 c 128,-1,36
 223 400 223 400 263 400 c 256,37,38
 303 400 303 400 330.5 384.5 c 128,-1,39
 358 369 358 369 373.5 341.5 c 128,-1,40
 389 314 389 314 393 278 c 1,41,-1
 86 278 l 1,42,-1
 86 210 l 1,0,-1
208 585 m 0,43,44
 208 563 208 563 224.5 546.5 c 128,-1,45
 241 530 241 530 263 530 c 0,46,47
 286 530 286 530 302 546.5 c 128,-1,48
 318 563 318 563 318 585 c 0,49,50
 318 608 318 608 302 624 c 128,-1,51
 286 640 286 640 263 640 c 0,52,53
 241 640 241 640 224.5 624 c 128,-1,54
 208 608 208 608 208 585 c 0,43,44
EndSplineSet
EndChar

StartChar: eogonek
Encoding: 281 281 199
Width: 515
GlyphClass: 2
Flags: W
LayerCount: 2
Fore
SplineSet
86 210 m 1,0,-1
 479 210 l 1,1,2
 480 216 480 216 480 222 c 128,-1,3
 480 228 480 228 480 234 c 0,4,5
 480 307 480 307 453 359.5 c 128,-1,6
 426 412 426 412 377 441 c 128,-1,7
 328 470 328 470 263 470 c 0,8,9
 204 470 204 470 156.5 446 c 128,-1,10
 109 422 109 422 79 379 c 128,-1,11
 49 336 49 336 39 279 c 0,12,13
 37 267 37 267 36 255 c 128,-1,14
 35 243 35 243 35 230 c 0,15,16
 35 161 35 161 63.5 106.5 c 128,-1,17
 92 52 92 52 141.5 21 c 128,-1,18
 191 -10 191 -10 253 -10 c 0,19,20
 298 -10 298 -10 328.5 0 c 128,-1,21
 359 10 359 10 382 26.5 c 128,-1,22
 405 43 405 43 426 64 c 128,-1,23
 447 85 447 85 472 107 c 1,24,-1
 407 148 l 1,25,26
 392 123 392 123 371 104.5 c 128,-1,27
 350 86 350 86 323.5 75.5 c 128,-1,28
 297 65 297 65 263 65 c 0,29,30
 218 65 218 65 185 84 c 128,-1,31
 152 103 152 103 134 140 c 128,-1,32
 116 177 116 177 116 230 c 2,33,-1
 118 260 l 2,34,35
 118 303 118 303 137.5 334.5 c 128,-1,36
 157 366 157 366 190 383 c 128,-1,37
 223 400 223 400 263 400 c 256,38,39
 303 400 303 400 330.5 384.5 c 128,-1,40
 358 369 358 369 373.5 341.5 c 128,-1,41
 389 314 389 314 393 278 c 1,42,-1
 86 278 l 1,43,-1
 86 210 l 1,0,-1
444 -65 m 1,44,45
 434 -75 434 -75 424 -80 c 128,-1,46
 414 -85 414 -85 394 -85 c 0,47,48
 372 -85 372 -85 359 -74.5 c 128,-1,49
 346 -64 346 -64 346 -45 c 256,50,51
 346 -26 346 -26 357.5 -10 c 128,-1,52
 369 6 369 6 397 32.5 c 128,-1,53
 425 59 425 59 472 107 c 1,54,-1
 398 90 l 1,55,56
 376 69 376 69 352.5 49 c 128,-1,57
 329 29 329 29 309.5 9.5 c 128,-1,58
 290 -10 290 -10 278 -30.5 c 128,-1,59
 266 -51 266 -51 266 -73 c 0,60,61
 266 -102 266 -102 282 -120.5 c 128,-1,62
 298 -139 298 -139 324 -147 c 128,-1,63
 350 -155 350 -155 379 -155 c 0,64,65
 411 -155 411 -155 438.5 -142.5 c 128,-1,66
 466 -130 466 -130 477 -115 c 1,67,-1
 444 -65 l 1,44,45
EndSplineSet
EndChar

StartChar: ecaron
Encoding: 283 283 200
Width: 515
GlyphClass: 2
Flags: W
LayerCount: 2
Fore
SplineSet
86 210 m 1,0,-1
 479 210 l 1,1,2
 480 216 480 216 480 222 c 128,-1,3
 480 228 480 228 480 234 c 0,4,5
 480 307 480 307 453 359.5 c 128,-1,6
 426 412 426 412 377 441 c 128,-1,7
 328 470 328 470 263 470 c 0,8,9
 204 470 204 470 156.5 446 c 128,-1,10
 109 422 109 422 79 379 c 128,-1,11
 49 336 49 336 39 279 c 0,12,13
 37 267 37 267 36 255 c 128,-1,14
 35 243 35 243 35 230 c 0,15,16
 35 161 35 161 63.5 106.5 c 128,-1,17
 92 52 92 52 141.5 21 c 128,-1,18
 191 -10 191 -10 253 -10 c 0,19,20
 313 -10 313 -10 353 4.5 c 128,-1,21
 393 19 393 19 421 45.5 c 128,-1,22
 449 72 449 72 472 107 c 1,23,-1
 407 148 l 1,24,25
 392 123 392 123 371 104.5 c 128,-1,26
 350 86 350 86 323.5 75.5 c 128,-1,27
 297 65 297 65 263 65 c 0,28,29
 218 65 218 65 185 84 c 128,-1,30
 152 103 152 103 134 140 c 128,-1,31
 116 177 116 177 116 230 c 2,32,-1
 118 260 l 2,33,34
 118 303 118 303 137.5 334.5 c 128,-1,35
 157 366 157 366 190 383 c 128,-1,36
 223 400 223 400 263 400 c 256,37,38
 303 400 303 400 330.5 384.5 c 128,-1,39
 358 369 358 369 373.5 341.5 c 128,-1,40
 389 314 389 314 393 278 c 1,41,-1
 86 278 l 1,42,-1
 86 210 l 1,0,-1
263 615 m 1,43,-1
 153 710 l 1,44,-1
 103 670 l 1,45,-1
 263 530 l 1,46,-1
 423 670 l 1,47,-1
 373 710 l 1,48,-1
 263 615 l 1,43,-1
EndSplineSet
EndChar

StartChar: f
Encoding: 102 102 201
Width: 286
GlyphClass: 2
Flags: W
LayerCount: 2
Fore
SplineSet
40 460 m 1,0,-1
 40 385 l 1,1,-1
 270 385 l 1,2,-1
 270 460 l 1,3,-1
 40 460 l 1,0,-1
262 684 m 1,4,-1
 306 750 l 1,5,6
 299 760 299 760 286.5 769 c 128,-1,7
 274 778 274 778 257 784 c 128,-1,8
 240 790 240 790 218 790 c 0,9,10
 176 790 176 790 146.5 772.5 c 128,-1,11
 117 755 117 755 101 720 c 128,-1,12
 85 685 85 685 85 630 c 2,13,-1
 85 0 l 1,14,-1
 165 0 l 1,15,-1
 165 620 l 2,16,17
 165 653 165 653 171 673 c 128,-1,18
 177 693 177 693 187.5 701.5 c 128,-1,19
 198 710 198 710 213 710 c 0,20,21
 225 710 225 710 238.5 705.5 c 128,-1,22
 252 701 252 701 262 684 c 1,4,-1
EndSplineSet
EndChar

StartChar: g
Encoding: 103 103 202
Width: 570
GlyphClass: 2
Flags: W
LayerCount: 2
Fore
SplineSet
60 -62 m 1,0,1
 60 -230 60 -230 272 -230 c 0,2,3
 330 -230 330 -230 382 -203 c 128,-1,4
 434 -176 434 -176 467 -122.5 c 128,-1,5
 500 -69 500 -69 500 10 c 2,6,-1
 500 460 l 1,7,-1
 420 460 l 1,8,-1
 420 10 l 2,9,10
 420 -48 420 -48 397.5 -84.5 c 128,-1,11
 375 -121 375 -121 341 -138 c 128,-1,12
 307 -155 307 -155 272 -155 c 0,13,14
 141 -155 141 -155 141 -62 c 1,15,-1
 60 -62 l 1,0,1
35 230 m 0,16,17
 35 156 35 156 66 102 c 128,-1,18
 97 48 97 48 149 19 c 128,-1,19
 201 -10 201 -10 263 -10 c 0,20,21
 321 -10 321 -10 364 19 c 128,-1,22
 407 48 407 48 431.5 102 c 128,-1,23
 456 156 456 156 456 230 c 0,24,25
 456 305 456 305 431.5 358.5 c 128,-1,26
 407 412 407 412 364 441 c 128,-1,27
 321 470 321 470 263 470 c 0,28,29
 201 470 201 470 149 441 c 128,-1,30
 97 412 97 412 66 358.5 c 128,-1,31
 35 305 35 305 35 230 c 0,16,17
116 230 m 256,32,33
 116 283 116 283 137.5 320 c 128,-1,34
 159 357 159 357 195 376 c 128,-1,35
 231 395 231 395 273 395 c 0,36,37
 299 395 299 395 325 384 c 128,-1,38
 351 373 351 373 372.5 352 c 128,-1,39
 394 331 394 331 407 300.5 c 128,-1,40
 420 270 420 270 420 230 c 0,41,42
 420 177 420 177 398 140 c 128,-1,43
 376 103 376 103 342 84 c 128,-1,44
 308 65 308 65 273 65 c 0,45,46
 231 65 231 65 195 84 c 128,-1,47
 159 103 159 103 137.5 140 c 128,-1,48
 116 177 116 177 116 230 c 256,32,33
EndSplineSet
EndChar

StartChar: gcircumflex
Encoding: 285 285 203
Width: 570
GlyphClass: 2
Flags: W
LayerCount: 2
Fore
SplineSet
44 -30 m 1,0,1
 44 -89 44 -89 73 -134.5 c 128,-1,2
 102 -180 102 -180 153.5 -205 c 128,-1,3
 205 -230 205 -230 272 -230 c 0,4,5
 330 -230 330 -230 382 -203 c 128,-1,6
 434 -176 434 -176 467 -122.5 c 128,-1,7
 500 -69 500 -69 500 10 c 2,8,-1
 500 460 l 1,9,-1
 420 460 l 1,10,-1
 420 10 l 2,11,12
 420 -48 420 -48 397.5 -84.5 c 128,-1,13
 375 -121 375 -121 341 -138 c 128,-1,14
 307 -155 307 -155 272 -155 c 0,15,16
 227 -155 227 -155 194 -137.5 c 128,-1,17
 161 -120 161 -120 143 -91.5 c 128,-1,18
 125 -63 125 -63 125 -30 c 1,19,-1
 44 -30 l 1,0,1
35 230 m 0,20,21
 35 156 35 156 66 102 c 128,-1,22
 97 48 97 48 149 19 c 128,-1,23
 201 -10 201 -10 263 -10 c 0,24,25
 321 -10 321 -10 364 19 c 128,-1,26
 407 48 407 48 431.5 102 c 128,-1,27
 456 156 456 156 456 230 c 0,28,29
 456 305 456 305 431.5 358.5 c 128,-1,30
 407 412 407 412 364 441 c 128,-1,31
 321 470 321 470 263 470 c 0,32,33
 201 470 201 470 149 441 c 128,-1,34
 97 412 97 412 66 358.5 c 128,-1,35
 35 305 35 305 35 230 c 0,20,21
116 230 m 256,36,37
 116 283 116 283 137.5 320 c 128,-1,38
 159 357 159 357 195 376 c 128,-1,39
 231 395 231 395 273 395 c 0,40,41
 299 395 299 395 325 384 c 128,-1,42
 351 373 351 373 372.5 352 c 128,-1,43
 394 331 394 331 407 300.5 c 128,-1,44
 420 270 420 270 420 230 c 0,45,46
 420 177 420 177 398 140 c 128,-1,47
 376 103 376 103 342 84 c 128,-1,48
 308 65 308 65 273 65 c 0,49,50
 231 65 231 65 195 84 c 128,-1,51
 159 103 159 103 137.5 140 c 128,-1,52
 116 177 116 177 116 230 c 256,36,37
263 625 m 1,53,-1
 373 530 l 1,54,-1
 423 570 l 1,55,-1
 263 710 l 1,56,-1
 103 570 l 1,57,-1
 153 530 l 1,58,-1
 263 625 l 1,53,-1
EndSplineSet
EndChar

StartChar: gbreve
Encoding: 287 287 204
Width: 570
GlyphClass: 2
Flags: W
LayerCount: 2
Fore
SplineSet
44 -30 m 1,0,1
 44 -89 44 -89 73 -134.5 c 128,-1,2
 102 -180 102 -180 153.5 -205 c 128,-1,3
 205 -230 205 -230 272 -230 c 0,4,5
 330 -230 330 -230 382 -203 c 128,-1,6
 434 -176 434 -176 467 -122.5 c 128,-1,7
 500 -69 500 -69 500 10 c 2,8,-1
 500 460 l 1,9,-1
 420 460 l 1,10,-1
 420 10 l 2,11,12
 420 -48 420 -48 397.5 -84.5 c 128,-1,13
 375 -121 375 -121 341 -138 c 128,-1,14
 307 -155 307 -155 272 -155 c 0,15,16
 227 -155 227 -155 194 -137.5 c 128,-1,17
 161 -120 161 -120 143 -91.5 c 128,-1,18
 125 -63 125 -63 125 -30 c 1,19,-1
 44 -30 l 1,0,1
35 230 m 0,20,21
 35 156 35 156 66 102 c 128,-1,22
 97 48 97 48 149 19 c 128,-1,23
 201 -10 201 -10 263 -10 c 0,24,25
 321 -10 321 -10 364 19 c 128,-1,26
 407 48 407 48 431.5 102 c 128,-1,27
 456 156 456 156 456 230 c 0,28,29
 456 305 456 305 431.5 358.5 c 128,-1,30
 407 412 407 412 364 441 c 128,-1,31
 321 470 321 470 263 470 c 0,32,33
 201 470 201 470 149 441 c 128,-1,34
 97 412 97 412 66 358.5 c 128,-1,35
 35 305 35 305 35 230 c 0,20,21
116 230 m 256,36,37
 116 283 116 283 137.5 320 c 128,-1,38
 159 357 159 357 195 376 c 128,-1,39
 231 395 231 395 273 395 c 0,40,41
 299 395 299 395 325 384 c 128,-1,42
 351 373 351 373 372.5 352 c 128,-1,43
 394 331 394 331 407 300.5 c 128,-1,44
 420 270 420 270 420 230 c 0,45,46
 420 177 420 177 398 140 c 128,-1,47
 376 103 376 103 342 84 c 128,-1,48
 308 65 308 65 273 65 c 0,49,50
 231 65 231 65 195 84 c 128,-1,51
 159 103 159 103 137.5 140 c 128,-1,52
 116 177 116 177 116 230 c 256,36,37
105 670 m 1,53,54
 105 636 105 636 122.5 603.5 c 128,-1,55
 140 571 140 571 175.5 550.5 c 128,-1,56
 211 530 211 530 263 530 c 0,57,58
 316 530 316 530 351 550.5 c 128,-1,59
 386 571 386 571 403.5 603.5 c 128,-1,60
 421 636 421 636 421 670 c 1,61,-1
 350 670 l 1,62,63
 350 657 350 657 343 639.5 c 128,-1,64
 336 622 336 622 317 608.5 c 128,-1,65
 298 595 298 595 263 595 c 256,66,67
 228 595 228 595 209 608.5 c 128,-1,68
 190 622 190 622 183 639.5 c 128,-1,69
 176 657 176 657 176 670 c 1,70,-1
 105 670 l 1,53,54
EndSplineSet
EndChar

StartChar: gdotaccent
Encoding: 289 289 205
Width: 570
GlyphClass: 2
Flags: W
LayerCount: 2
Fore
SplineSet
44 -30 m 1,0,1
 44 -89 44 -89 73 -134.5 c 128,-1,2
 102 -180 102 -180 153.5 -205 c 128,-1,3
 205 -230 205 -230 272 -230 c 0,4,5
 330 -230 330 -230 382 -203 c 128,-1,6
 434 -176 434 -176 467 -122.5 c 128,-1,7
 500 -69 500 -69 500 10 c 2,8,-1
 500 460 l 1,9,-1
 420 460 l 1,10,-1
 420 10 l 2,11,12
 420 -48 420 -48 397.5 -84.5 c 128,-1,13
 375 -121 375 -121 341 -138 c 128,-1,14
 307 -155 307 -155 272 -155 c 0,15,16
 227 -155 227 -155 194 -137.5 c 128,-1,17
 161 -120 161 -120 143 -91.5 c 128,-1,18
 125 -63 125 -63 125 -30 c 1,19,-1
 44 -30 l 1,0,1
35 230 m 0,20,21
 35 156 35 156 66 102 c 128,-1,22
 97 48 97 48 149 19 c 128,-1,23
 201 -10 201 -10 263 -10 c 0,24,25
 321 -10 321 -10 364 19 c 128,-1,26
 407 48 407 48 431.5 102 c 128,-1,27
 456 156 456 156 456 230 c 0,28,29
 456 305 456 305 431.5 358.5 c 128,-1,30
 407 412 407 412 364 441 c 128,-1,31
 321 470 321 470 263 470 c 0,32,33
 201 470 201 470 149 441 c 128,-1,34
 97 412 97 412 66 358.5 c 128,-1,35
 35 305 35 305 35 230 c 0,20,21
116 230 m 256,36,37
 116 283 116 283 137.5 320 c 128,-1,38
 159 357 159 357 195 376 c 128,-1,39
 231 395 231 395 273 395 c 0,40,41
 299 395 299 395 325 384 c 128,-1,42
 351 373 351 373 372.5 352 c 128,-1,43
 394 331 394 331 407 300.5 c 128,-1,44
 420 270 420 270 420 230 c 0,45,46
 420 177 420 177 398 140 c 128,-1,47
 376 103 376 103 342 84 c 128,-1,48
 308 65 308 65 273 65 c 0,49,50
 231 65 231 65 195 84 c 128,-1,51
 159 103 159 103 137.5 140 c 128,-1,52
 116 177 116 177 116 230 c 256,36,37
228 625 m 0,53,54
 228 603 228 603 244.5 586.5 c 128,-1,55
 261 570 261 570 283 570 c 0,56,57
 306 570 306 570 322 586.5 c 128,-1,58
 338 603 338 603 338 625 c 0,59,60
 338 648 338 648 322 664 c 128,-1,61
 306 680 306 680 283 680 c 0,62,63
 261 680 261 680 244.5 664 c 128,-1,64
 228 648 228 648 228 625 c 0,53,54
EndSplineSet
EndChar

StartChar: uni0123
Encoding: 291 291 206
Width: 570
GlyphClass: 2
Flags: W
LayerCount: 2
Fore
SplineSet
44 -30 m 1,0,1
 44 -89 44 -89 73 -134.5 c 128,-1,2
 102 -180 102 -180 153.5 -205 c 128,-1,3
 205 -230 205 -230 272 -230 c 0,4,5
 330 -230 330 -230 382 -203 c 128,-1,6
 434 -176 434 -176 467 -122.5 c 128,-1,7
 500 -69 500 -69 500 10 c 2,8,-1
 500 460 l 1,9,-1
 420 460 l 1,10,-1
 420 10 l 2,11,12
 420 -48 420 -48 397.5 -84.5 c 128,-1,13
 375 -121 375 -121 341 -138 c 128,-1,14
 307 -155 307 -155 272 -155 c 0,15,16
 227 -155 227 -155 194 -137.5 c 128,-1,17
 161 -120 161 -120 143 -91.5 c 128,-1,18
 125 -63 125 -63 125 -30 c 1,19,-1
 44 -30 l 1,0,1
35 230 m 0,20,21
 35 156 35 156 66 102 c 128,-1,22
 97 48 97 48 149 19 c 128,-1,23
 201 -10 201 -10 263 -10 c 0,24,25
 321 -10 321 -10 364 19 c 128,-1,26
 407 48 407 48 431.5 102 c 128,-1,27
 456 156 456 156 456 230 c 0,28,29
 456 305 456 305 431.5 358.5 c 128,-1,30
 407 412 407 412 364 441 c 128,-1,31
 321 470 321 470 263 470 c 0,32,33
 201 470 201 470 149 441 c 128,-1,34
 97 412 97 412 66 358.5 c 128,-1,35
 35 305 35 305 35 230 c 0,20,21
116 230 m 256,36,37
 116 283 116 283 137.5 320 c 128,-1,38
 159 357 159 357 195 376 c 128,-1,39
 231 395 231 395 273 395 c 0,40,41
 299 395 299 395 325 384 c 128,-1,42
 351 373 351 373 372.5 352 c 128,-1,43
 394 331 394 331 407 300.5 c 128,-1,44
 420 270 420 270 420 230 c 0,45,46
 420 177 420 177 398 140 c 128,-1,47
 376 103 376 103 342 84 c 128,-1,48
 308 65 308 65 273 65 c 0,49,50
 231 65 231 65 195 84 c 128,-1,51
 159 103 159 103 137.5 140 c 128,-1,52
 116 177 116 177 116 230 c 256,36,37
282 546 m 1,53,-1
 409 788 l 1,54,-1
 355 818 l 1,55,-1
 208 588 l 1,56,-1
 282 546 l 1,53,-1
EndSplineSet
EndChar

StartChar: h
Encoding: 104 104 207
Width: 525
GlyphClass: 2
Flags: W
LayerCount: 2
Fore
SplineSet
155 780 m 1,0,-1
 75 780 l 1,1,-1
 75 0 l 1,2,-1
 155 0 l 1,3,-1
 155 780 l 1,0,-1
370 280 m 2,4,-1
 370 0 l 1,5,-1
 450 0 l 1,6,-1
 450 290 l 2,7,8
 450 350 450 350 430.5 390 c 128,-1,9
 411 430 411 430 375.5 450 c 128,-1,10
 340 470 340 470 292 470 c 256,11,12
 244 470 244 470 207.5 445 c 128,-1,13
 171 420 171 420 150 377.5 c 128,-1,14
 129 335 129 335 129 280 c 1,15,-1
 155 280 l 1,16,17
 155 313 155 313 169.5 339 c 128,-1,18
 184 365 184 365 210.5 380 c 128,-1,19
 237 395 237 395 272 395 c 0,20,21
 321 395 321 395 345.5 366 c 128,-1,22
 370 337 370 337 370 280 c 2,4,-1
EndSplineSet
EndChar

StartChar: hcircumflex
Encoding: 293 293 208
Width: 525
GlyphClass: 2
Flags: W
LayerCount: 2
Fore
SplineSet
155 780 m 1,0,-1
 75 780 l 1,1,-1
 75 0 l 1,2,-1
 155 0 l 1,3,-1
 155 780 l 1,0,-1
370 280 m 2,4,-1
 370 0 l 1,5,-1
 450 0 l 1,6,-1
 450 290 l 2,7,8
 450 350 450 350 430.5 390 c 128,-1,9
 411 430 411 430 375.5 450 c 128,-1,10
 340 470 340 470 292 470 c 256,11,12
 244 470 244 470 205 445 c 128,-1,13
 166 420 166 420 142.5 377.5 c 128,-1,14
 119 335 119 335 119 280 c 1,15,-1
 155 280 l 1,16,17
 155 313 155 313 169.5 339 c 128,-1,18
 184 365 184 365 210.5 380 c 128,-1,19
 237 395 237 395 272 395 c 0,20,21
 321 395 321 395 345.5 366 c 128,-1,22
 370 337 370 337 370 280 c 2,4,-1
122 935 m 1,23,-1
 232 840 l 1,24,-1
 282 880 l 1,25,-1
 122 1020 l 1,26,-1
 -38 880 l 1,27,-1
 12 840 l 1,28,-1
 122 935 l 1,23,-1
EndSplineSet
EndChar

StartChar: i
Encoding: 105 105 209
Width: 260
GlyphClass: 2
Flags: W
LayerCount: 2
Fore
SplineSet
75 650 m 0,0,1
 75 628 75 628 91.5 611.5 c 128,-1,2
 108 595 108 595 130 595 c 0,3,4
 153 595 153 595 169 611.5 c 128,-1,5
 185 628 185 628 185 650 c 0,6,7
 185 673 185 673 169 689 c 128,-1,8
 153 705 153 705 130 705 c 0,9,10
 108 705 108 705 91.5 689 c 128,-1,11
 75 673 75 673 75 650 c 0,0,1
90 460 m 1,12,-1
 90 0 l 1,13,-1
 170 0 l 1,14,-1
 170 460 l 1,15,-1
 90 460 l 1,12,-1
EndSplineSet
EndChar

StartChar: igrave
Encoding: 236 236 210
Width: 260
GlyphClass: 2
Flags: W
LayerCount: 2
Fore
SplineSet
90 460 m 1,0,-1
 90 0 l 1,1,-1
 170 0 l 1,2,-1
 170 460 l 1,3,-1
 90 460 l 1,0,-1
-30 700 m 1,4,-1
 150 550 l 1,5,-1
 195 580 l 1,6,-1
 45 740 l 1,7,-1
 -30 700 l 1,4,-1
EndSplineSet
EndChar

StartChar: iacute
Encoding: 237 237 211
Width: 260
GlyphClass: 2
Flags: W
LayerCount: 2
Fore
SplineSet
90 460 m 1,0,-1
 90 0 l 1,1,-1
 170 0 l 1,2,-1
 170 460 l 1,3,-1
 90 460 l 1,0,-1
290 700 m 1,4,-1
 215 740 l 1,5,-1
 65 580 l 1,6,-1
 110 550 l 1,7,-1
 290 700 l 1,4,-1
EndSplineSet
EndChar

StartChar: icircumflex
Encoding: 238 238 212
Width: 260
GlyphClass: 2
Flags: W
LayerCount: 2
Fore
SplineSet
90 460 m 1,0,-1
 90 0 l 1,1,-1
 170 0 l 1,2,-1
 170 460 l 1,3,-1
 90 460 l 1,0,-1
130 635 m 1,4,-1
 240 540 l 1,5,-1
 290 580 l 1,6,-1
 130 720 l 1,7,-1
 -30 580 l 1,8,-1
 20 540 l 1,9,-1
 130 635 l 1,4,-1
EndSplineSet
EndChar

StartChar: idieresis
Encoding: 239 239 213
Width: 260
GlyphClass: 2
Flags: W
LayerCount: 2
Fore
SplineSet
90 460 m 1,0,-1
 90 0 l 1,1,-1
 170 0 l 1,2,-1
 170 460 l 1,3,-1
 90 460 l 1,0,-1
175 615 m 0,4,5
 175 593 175 593 191.5 576.5 c 128,-1,6
 208 560 208 560 230 560 c 0,7,8
 253 560 253 560 269 576.5 c 128,-1,9
 285 593 285 593 285 615 c 0,10,11
 285 638 285 638 269 654 c 128,-1,12
 253 670 253 670 230 670 c 0,13,14
 208 670 208 670 191.5 654 c 128,-1,15
 175 638 175 638 175 615 c 0,4,5
-25 615 m 0,16,17
 -25 593 -25 593 -8.5 576.5 c 128,-1,18
 8 560 8 560 30 560 c 0,19,20
 53 560 53 560 69 576.5 c 128,-1,21
 85 593 85 593 85 615 c 0,22,23
 85 638 85 638 69 654 c 128,-1,24
 53 670 53 670 30 670 c 0,25,26
 8 670 8 670 -8.5 654 c 128,-1,27
 -25 638 -25 638 -25 615 c 0,16,17
EndSplineSet
EndChar

StartChar: itilde
Encoding: 297 297 214
Width: 260
GlyphClass: 2
Flags: W
LayerCount: 2
Fore
SplineSet
90 460 m 1,0,-1
 90 0 l 1,1,-1
 170 0 l 1,2,-1
 170 460 l 1,3,-1
 90 460 l 1,0,-1
-35 567 m 1,4,-1
 18 530 l 1,5,6
 18 538 18 538 22 550 c 128,-1,7
 26 562 26 562 37 571.5 c 128,-1,8
 48 581 48 581 68 581 c 0,9,10
 91 581 91 581 107.5 569.5 c 128,-1,11
 124 558 124 558 143 546 c 128,-1,12
 162 534 162 534 189 534 c 0,13,14
 214 534 214 534 235 544.5 c 128,-1,15
 256 555 256 555 271.5 572 c 128,-1,16
 287 589 287 589 295 607 c 1,17,-1
 249 650 l 1,18,19
 234 626 234 626 220.5 614 c 128,-1,20
 207 602 207 602 193 602 c 0,21,22
 173 602 173 602 160 609 c 128,-1,23
 147 616 147 616 135.5 625.5 c 128,-1,24
 124 635 124 635 108.5 642 c 128,-1,25
 93 649 93 649 69 649 c 0,26,27
 47 649 47 649 24.5 638.5 c 128,-1,28
 2 628 2 628 -14 610 c 128,-1,29
 -30 592 -30 592 -35 567 c 1,4,-1
EndSplineSet
EndChar

StartChar: imacron
Encoding: 299 299 215
Width: 260
GlyphClass: 2
Flags: W
LayerCount: 2
Fore
SplineSet
90 460 m 1,0,-1
 90 0 l 1,1,-1
 170 0 l 1,2,-1
 170 460 l 1,3,-1
 90 460 l 1,0,-1
-45 530 m 1,4,-1
 305 530 l 1,5,-1
 305 605 l 1,6,-1
 -45 605 l 1,7,-1
 -45 530 l 1,4,-1
EndSplineSet
EndChar

StartChar: ibreve
Encoding: 301 301 216
Width: 260
GlyphClass: 2
Flags: W
LayerCount: 2
Fore
SplineSet
90 460 m 1,0,-1
 90 0 l 1,1,-1
 170 0 l 1,2,-1
 170 460 l 1,3,-1
 90 460 l 1,0,-1
-28 670 m 1,4,5
 -28 636 -28 636 -10.5 603.5 c 128,-1,6
 7 571 7 571 42.5 550.5 c 128,-1,7
 78 530 78 530 130 530 c 0,8,9
 183 530 183 530 218 550.5 c 128,-1,10
 253 571 253 571 270.5 603.5 c 128,-1,11
 288 636 288 636 288 670 c 1,12,-1
 217 670 l 1,13,14
 217 657 217 657 210 639.5 c 128,-1,15
 203 622 203 622 184 608.5 c 128,-1,16
 165 595 165 595 130 595 c 256,17,18
 95 595 95 595 76 608.5 c 128,-1,19
 57 622 57 622 50 639.5 c 128,-1,20
 43 657 43 657 43 670 c 1,21,-1
 -28 670 l 1,4,5
EndSplineSet
EndChar

StartChar: iogonek
Encoding: 303 303 217
Width: 260
GlyphClass: 2
Flags: W
LayerCount: 2
Fore
SplineSet
75 650 m 0,0,1
 75 628 75 628 91.5 611.5 c 128,-1,2
 108 595 108 595 130 595 c 0,3,4
 153 595 153 595 169 611.5 c 128,-1,5
 185 628 185 628 185 650 c 0,6,7
 185 673 185 673 169 689 c 128,-1,8
 153 705 153 705 130 705 c 0,9,10
 108 705 108 705 91.5 689 c 128,-1,11
 75 673 75 673 75 650 c 0,0,1
90 460 m 1,12,-1
 90 0 l 1,13,-1
 170 0 l 1,14,-1
 170 460 l 1,15,-1
 90 460 l 1,12,-1
175 -130 m 1,16,17
 165 -140 165 -140 155 -145 c 128,-1,18
 145 -150 145 -150 125 -150 c 0,19,20
 103 -150 103 -150 90 -138.5 c 128,-1,21
 77 -127 77 -127 77 -100 c 0,22,23
 77 -81 77 -81 89.5 -62.5 c 128,-1,24
 102 -44 102 -44 123 -27.5 c 128,-1,25
 144 -11 144 -11 170 0 c 1,26,-1
 129 25 l 1,27,28
 94 7 94 7 64 -15.5 c 128,-1,29
 34 -38 34 -38 15.5 -64 c 128,-1,30
 -3 -90 -3 -90 -3 -120 c 0,31,32
 -3 -149 -3 -149 10.5 -172 c 128,-1,33
 24 -195 24 -195 51 -207.5 c 128,-1,34
 78 -220 78 -220 120 -220 c 0,35,36
 152 -220 152 -220 174.5 -207.5 c 128,-1,37
 197 -195 197 -195 208 -180 c 1,38,-1
 175 -130 l 1,16,17
EndSplineSet
EndChar

StartChar: j
Encoding: 106 106 218
Width: 250
GlyphClass: 2
Flags: W
LayerCount: 2
Fore
SplineSet
62 650 m 0,0,1
 62 628 62 628 78 612 c 128,-1,2
 94 596 94 596 116 596 c 0,3,4
 139 596 139 596 154.5 612 c 128,-1,5
 170 628 170 628 170 650 c 0,6,7
 170 673 170 673 154.5 688.5 c 128,-1,8
 139 704 139 704 116 704 c 0,9,10
 94 704 94 704 78 688.5 c 128,-1,11
 62 673 62 673 62 650 c 0,0,1
-17 -114 m 1,12,-1
 -61 -180 l 1,13,14
 -51 -193 -51 -193 -38 -202 c 128,-1,15
 -25 -211 -25 -211 -9 -215.5 c 128,-1,16
 7 -220 7 -220 27 -220 c 0,17,18
 69 -220 69 -220 99 -201 c 128,-1,19
 129 -182 129 -182 144.5 -146 c 128,-1,20
 160 -110 160 -110 160 -60 c 2,21,-1
 160 460 l 1,22,-1
 80 460 l 1,23,-1
 80 -50 l 2,24,25
 80 -82 80 -82 75 -102 c 128,-1,26
 70 -122 70 -122 59.5 -131 c 128,-1,27
 49 -140 49 -140 32 -140 c 0,28,29
 16 -140 16 -140 3.5 -133 c 128,-1,30
 -9 -126 -9 -126 -17 -114 c 1,12,-1
EndSplineSet
EndChar

StartChar: jcircumflex
Encoding: 309 309 219
Width: 250
GlyphClass: 2
Flags: W
LayerCount: 2
Fore
SplineSet
-17 -114 m 1,0,-1
 -61 -180 l 1,1,2
 -53 -190 -53 -190 -41 -199 c 128,-1,3
 -29 -208 -29 -208 -11.5 -214 c 128,-1,4
 6 -220 6 -220 27 -220 c 0,5,6
 69 -220 69 -220 99 -202.5 c 128,-1,7
 129 -185 129 -185 144.5 -149.5 c 128,-1,8
 160 -114 160 -114 160 -60 c 2,9,-1
 160 460 l 1,10,-1
 80 460 l 1,11,-1
 80 -50 l 2,12,13
 80 -83 80 -83 74.5 -102.5 c 128,-1,14
 69 -122 69 -122 58 -131 c 128,-1,15
 47 -140 47 -140 32 -140 c 0,16,17
 20 -140 20 -140 7 -135.5 c 128,-1,18
 -6 -131 -6 -131 -17 -114 c 1,0,-1
120 625 m 1,19,-1
 230 530 l 1,20,-1
 280 570 l 1,21,-1
 120 710 l 1,22,-1
 -40 570 l 1,23,-1
 10 530 l 1,24,-1
 120 625 l 1,19,-1
EndSplineSet
EndChar

StartChar: k
Encoding: 107 107 220
Width: 440
GlyphClass: 2
Flags: W
LayerCount: 2
Fore
SplineSet
70 780 m 1,0,-1
 70 0 l 1,1,-1
 150 0 l 1,2,-1
 150 780 l 1,3,-1
 70 780 l 1,0,-1
320 460 m 1,4,-1
 120 270 l 1,5,-1
 340 0 l 1,6,-1
 440 0 l 1,7,-1
 220 270 l 1,8,-1
 420 460 l 1,9,-1
 320 460 l 1,4,-1
EndSplineSet
EndChar

StartChar: uni0137
Encoding: 311 311 221
Width: 440
GlyphClass: 2
Flags: W
LayerCount: 2
Fore
SplineSet
70 780 m 1,0,-1
 70 0 l 1,1,-1
 150 0 l 1,2,-1
 150 780 l 1,3,-1
 70 780 l 1,0,-1
320 460 m 1,4,-1
 120 270 l 1,5,-1
 340 0 l 1,6,-1
 440 0 l 1,7,-1
 220 270 l 1,8,-1
 420 460 l 1,9,-1
 320 460 l 1,4,-1
259 -60 m 1,10,-1
 171 -319 l 1,11,-1
 229 -340 l 1,12,-1
 339 -90 l 1,13,-1
 259 -60 l 1,10,-1
EndSplineSet
EndChar

StartChar: l
Encoding: 108 108 222
Width: 230
GlyphClass: 2
Flags: W
LayerCount: 2
Fore
SplineSet
75 780 m 1,0,-1
 75 0 l 1,1,-1
 155 0 l 1,2,-1
 155 780 l 1,3,-1
 75 780 l 1,0,-1
EndSplineSet
EndChar

StartChar: lacute
Encoding: 314 314 223
Width: 230
GlyphClass: 2
Flags: W
LayerCount: 2
Fore
SplineSet
75 780 m 1,0,-1
 75 0 l 1,1,-1
 155 0 l 1,2,-1
 155 780 l 1,3,-1
 75 780 l 1,0,-1
245 990 m 1,4,-1
 170 1030 l 1,5,-1
 20 870 l 1,6,-1
 65 840 l 1,7,-1
 245 990 l 1,4,-1
EndSplineSet
EndChar

StartChar: uni013C
Encoding: 316 316 224
Width: 230
GlyphClass: 2
Flags: W
LayerCount: 2
Fore
SplineSet
75 780 m 1,0,-1
 75 0 l 1,1,-1
 155 0 l 1,2,-1
 155 780 l 1,3,-1
 75 780 l 1,0,-1
119 -60 m 1,4,-1
 31 -319 l 1,5,-1
 89 -340 l 1,6,-1
 199 -90 l 1,7,-1
 119 -60 l 1,4,-1
EndSplineSet
EndChar

StartChar: lcaron
Encoding: 318 318 225
Width: 230
GlyphClass: 2
Flags: W
LayerCount: 2
Fore
SplineSet
75 780 m 1,0,-1
 75 0 l 1,1,-1
 155 0 l 1,2,-1
 155 780 l 1,3,-1
 75 780 l 1,0,-1
293 780 m 1,4,-1
 205 521 l 1,5,-1
 263 500 l 1,6,-1
 373 750 l 1,7,-1
 293 780 l 1,4,-1
EndSplineSet
EndChar

StartChar: m
Encoding: 109 109 226
Width: 780
GlyphClass: 2
Flags: W
LayerCount: 2
Fore
SplineSet
705 290 m 2,0,1
 705 347 705 347 687.5 387.5 c 128,-1,2
 670 428 670 428 637 449 c 128,-1,3
 604 470 604 470 557 470 c 0,4,5
 511 470 511 470 475 448.5 c 128,-1,6
 439 427 439 427 415 384 c 1,7,8
 399 425 399 425 364.5 447.5 c 128,-1,9
 330 470 330 470 282 470 c 0,10,11
 239 470 239 470 207.5 451 c 128,-1,12
 176 432 176 432 155 393 c 1,13,-1
 155 460 l 1,14,-1
 75 460 l 1,15,-1
 75 0 l 1,16,-1
 155 0 l 1,17,-1
 155 280 l 2,18,19
 155 316 155 316 168 342 c 128,-1,20
 181 368 181 368 205 381.5 c 128,-1,21
 229 395 229 395 262 395 c 0,22,23
 307 395 307 395 328.5 367 c 128,-1,24
 350 339 350 339 350 280 c 2,25,-1
 350 0 l 1,26,-1
 430 0 l 1,27,-1
 430 280 l 2,28,29
 430 316 430 316 443 342 c 128,-1,30
 456 368 456 368 480 381.5 c 128,-1,31
 504 395 504 395 537 395 c 0,32,33
 582 395 582 395 603.5 367 c 128,-1,34
 625 339 625 339 625 280 c 2,35,-1
 625 0 l 1,36,-1
 705 0 l 1,37,-1
 705 290 l 2,0,1
EndSplineSet
EndChar

StartChar: n
Encoding: 110 110 227
Width: 525
GlyphClass: 2
Flags: W
LayerCount: 2
Fore
SplineSet
370 280 m 2,0,-1
 370 0 l 1,1,-1
 450 0 l 1,2,-1
 450 290 l 2,3,4
 450 373 450 373 407.5 421.5 c 128,-1,5
 365 470 365 470 292 470 c 0,6,7
 247 470 247 470 212.5 450 c 128,-1,8
 178 430 178 430 155 388 c 1,9,-1
 155 460 l 1,10,-1
 75 460 l 1,11,-1
 75 0 l 1,12,-1
 155 0 l 1,13,-1
 155 280 l 2,14,15
 155 314 155 314 169.5 340 c 128,-1,16
 184 366 184 366 210.5 380.5 c 128,-1,17
 237 395 237 395 272 395 c 0,18,19
 320 395 320 395 345 366 c 128,-1,20
 370 337 370 337 370 280 c 2,0,-1
EndSplineSet
EndChar

StartChar: ntilde
Encoding: 241 241 228
Width: 525
GlyphClass: 2
Flags: W
LayerCount: 2
Fore
SplineSet
155 460 m 1,0,-1
 75 460 l 1,1,-1
 75 0 l 1,2,-1
 155 0 l 1,3,-1
 155 460 l 1,0,-1
370 280 m 2,4,-1
 370 0 l 1,5,-1
 450 0 l 1,6,-1
 450 290 l 2,7,8
 450 379 450 379 406.5 424.5 c 128,-1,9
 363 470 363 470 292 470 c 0,10,11
 244 470 244 470 205 445 c 128,-1,12
 166 420 166 420 142.5 377.5 c 128,-1,13
 119 335 119 335 119 280 c 1,14,-1
 155 280 l 1,15,16
 155 313 155 313 169.5 339 c 128,-1,17
 184 365 184 365 210.5 380 c 128,-1,18
 237 395 237 395 272 395 c 0,19,20
 321 395 321 395 345.5 366 c 128,-1,21
 370 337 370 337 370 280 c 2,4,-1
98 567 m 1,22,-1
 151 530 l 1,23,24
 151 538 151 538 155 550 c 128,-1,25
 159 562 159 562 170 571.5 c 128,-1,26
 181 581 181 581 201 581 c 0,27,28
 224 581 224 581 240.5 569.5 c 128,-1,29
 257 558 257 558 276 546 c 128,-1,30
 295 534 295 534 322 534 c 0,31,32
 347 534 347 534 368 544.5 c 128,-1,33
 389 555 389 555 404.5 572 c 128,-1,34
 420 589 420 589 428 607 c 1,35,-1
 382 650 l 1,36,37
 367 626 367 626 353.5 614 c 128,-1,38
 340 602 340 602 326 602 c 0,39,40
 306 602 306 602 293 609 c 128,-1,41
 280 616 280 616 268.5 625.5 c 128,-1,42
 257 635 257 635 241.5 642 c 128,-1,43
 226 649 226 649 202 649 c 0,44,45
 180 649 180 649 157.5 638.5 c 128,-1,46
 135 628 135 628 119 610 c 128,-1,47
 103 592 103 592 98 567 c 1,22,-1
EndSplineSet
EndChar

StartChar: nacute
Encoding: 324 324 229
Width: 525
GlyphClass: 2
Flags: W
LayerCount: 2
Fore
SplineSet
155 460 m 1,0,-1
 75 460 l 1,1,-1
 75 0 l 1,2,-1
 155 0 l 1,3,-1
 155 460 l 1,0,-1
370 280 m 2,4,-1
 370 0 l 1,5,-1
 450 0 l 1,6,-1
 450 290 l 2,7,8
 450 379 450 379 406.5 424.5 c 128,-1,9
 363 470 363 470 292 470 c 0,10,11
 244 470 244 470 207.5 445 c 128,-1,12
 171 420 171 420 150 377.5 c 128,-1,13
 129 335 129 335 129 280 c 1,14,-1
 155 280 l 1,15,16
 155 313 155 313 169.5 339 c 128,-1,17
 184 365 184 365 210.5 380 c 128,-1,18
 237 395 237 395 272 395 c 0,19,20
 321 395 321 395 345.5 366 c 128,-1,21
 370 337 370 337 370 280 c 2,4,-1
402 680 m 1,22,-1
 328 720 l 1,23,-1
 178 560 l 1,24,-1
 222 530 l 1,25,-1
 402 680 l 1,22,-1
EndSplineSet
EndChar

StartChar: uni0146
Encoding: 326 326 230
Width: 525
GlyphClass: 2
Flags: W
LayerCount: 2
Fore
SplineSet
155 460 m 1,0,-1
 75 460 l 1,1,-1
 75 0 l 1,2,-1
 155 0 l 1,3,-1
 155 460 l 1,0,-1
370 280 m 2,4,-1
 370 0 l 1,5,-1
 450 0 l 1,6,-1
 450 290 l 2,7,8
 450 379 450 379 406.5 424.5 c 128,-1,9
 363 470 363 470 292 470 c 0,10,11
 244 470 244 470 205 445 c 128,-1,12
 166 420 166 420 142.5 377.5 c 128,-1,13
 119 335 119 335 119 280 c 1,14,-1
 155 280 l 1,15,16
 155 313 155 313 169.5 339 c 128,-1,17
 184 365 184 365 210.5 380 c 128,-1,18
 237 395 237 395 272 395 c 0,19,20
 321 395 321 395 345.5 366 c 128,-1,21
 370 337 370 337 370 280 c 2,4,-1
266 -60 m 1,22,-1
 178 -319 l 1,23,-1
 236 -340 l 1,24,-1
 346 -90 l 1,25,-1
 266 -60 l 1,22,-1
EndSplineSet
EndChar

StartChar: ncaron
Encoding: 328 328 231
Width: 525
GlyphClass: 2
Flags: W
LayerCount: 2
Fore
SplineSet
155 460 m 1,0,-1
 75 460 l 1,1,-1
 75 0 l 1,2,-1
 155 0 l 1,3,-1
 155 460 l 1,0,-1
370 280 m 2,4,-1
 370 0 l 1,5,-1
 450 0 l 1,6,-1
 450 290 l 2,7,8
 450 379 450 379 406.5 424.5 c 128,-1,9
 363 470 363 470 292 470 c 0,10,11
 244 470 244 470 205 445 c 128,-1,12
 166 420 166 420 142.5 377.5 c 128,-1,13
 119 335 119 335 119 280 c 1,14,-1
 155 280 l 1,15,16
 155 313 155 313 169.5 339 c 128,-1,17
 184 365 184 365 210.5 380 c 128,-1,18
 237 395 237 395 272 395 c 0,19,20
 321 395 321 395 345.5 366 c 128,-1,21
 370 337 370 337 370 280 c 2,4,-1
262 615 m 1,22,-1
 152 710 l 1,23,-1
 102 670 l 1,24,-1
 262 530 l 1,25,-1
 422 670 l 1,26,-1
 372 710 l 1,27,-1
 262 615 l 1,22,-1
EndSplineSet
EndChar

StartChar: o
Encoding: 111 111 232
Width: 546
GlyphClass: 2
Flags: W
LayerCount: 2
Fore
SplineSet
35 230 m 0,0,1
 35 161 35 161 66.5 106.5 c 128,-1,2
 98 52 98 52 152 21 c 128,-1,3
 206 -10 206 -10 273 -10 c 0,4,5
 341 -10 341 -10 394.5 21 c 128,-1,6
 448 52 448 52 479.5 106.5 c 128,-1,7
 511 161 511 161 511 230 c 0,8,9
 511 300 511 300 479.5 354 c 128,-1,10
 448 408 448 408 394.5 439 c 128,-1,11
 341 470 341 470 273 470 c 0,12,13
 206 470 206 470 152 439 c 128,-1,14
 98 408 98 408 66.5 354 c 128,-1,15
 35 300 35 300 35 230 c 0,0,1
116 230 m 256,16,17
 116 278 116 278 136.5 315.5 c 128,-1,18
 157 353 157 353 192.5 374 c 128,-1,19
 228 395 228 395 273 395 c 256,20,21
 318 395 318 395 353.5 374 c 128,-1,22
 389 353 389 353 409.5 315.5 c 128,-1,23
 430 278 430 278 430 230 c 256,24,25
 430 182 430 182 409.5 145 c 128,-1,26
 389 108 389 108 353.5 86.5 c 128,-1,27
 318 65 318 65 273 65 c 256,28,29
 228 65 228 65 192.5 86.5 c 128,-1,30
 157 108 157 108 136.5 145 c 128,-1,31
 116 182 116 182 116 230 c 256,16,17
EndSplineSet
EndChar

StartChar: ograve
Encoding: 242 242 233
Width: 546
GlyphClass: 2
Flags: W
LayerCount: 2
Fore
SplineSet
35 230 m 0,0,1
 35 161 35 161 66.5 106.5 c 128,-1,2
 98 52 98 52 152 21 c 128,-1,3
 206 -10 206 -10 273 -10 c 0,4,5
 341 -10 341 -10 394.5 21 c 128,-1,6
 448 52 448 52 479.5 106.5 c 128,-1,7
 511 161 511 161 511 230 c 0,8,9
 511 300 511 300 479.5 354 c 128,-1,10
 448 408 448 408 394.5 439 c 128,-1,11
 341 470 341 470 273 470 c 0,12,13
 206 470 206 470 152 439 c 128,-1,14
 98 408 98 408 66.5 354 c 128,-1,15
 35 300 35 300 35 230 c 0,0,1
116 230 m 256,16,17
 116 278 116 278 136.5 315.5 c 128,-1,18
 157 353 157 353 192.5 374 c 128,-1,19
 228 395 228 395 273 395 c 256,20,21
 318 395 318 395 353.5 374 c 128,-1,22
 389 353 389 353 409.5 315.5 c 128,-1,23
 430 278 430 278 430 230 c 256,24,25
 430 182 430 182 409.5 145 c 128,-1,26
 389 108 389 108 353.5 86.5 c 128,-1,27
 318 65 318 65 273 65 c 256,28,29
 228 65 228 65 192.5 86.5 c 128,-1,30
 157 108 157 108 136.5 145 c 128,-1,31
 116 182 116 182 116 230 c 256,16,17
113 700 m 1,32,-1
 293 550 l 1,33,-1
 338 580 l 1,34,-1
 188 740 l 1,35,-1
 113 700 l 1,32,-1
EndSplineSet
EndChar

StartChar: oacute
Encoding: 243 243 234
Width: 546
GlyphClass: 2
Flags: W
LayerCount: 2
Fore
SplineSet
35 230 m 0,0,1
 35 161 35 161 66.5 106.5 c 128,-1,2
 98 52 98 52 152 21 c 128,-1,3
 206 -10 206 -10 273 -10 c 0,4,5
 341 -10 341 -10 394.5 21 c 128,-1,6
 448 52 448 52 479.5 106.5 c 128,-1,7
 511 161 511 161 511 230 c 0,8,9
 511 300 511 300 479.5 354 c 128,-1,10
 448 408 448 408 394.5 439 c 128,-1,11
 341 470 341 470 273 470 c 0,12,13
 206 470 206 470 152 439 c 128,-1,14
 98 408 98 408 66.5 354 c 128,-1,15
 35 300 35 300 35 230 c 0,0,1
116 230 m 256,16,17
 116 278 116 278 136.5 315.5 c 128,-1,18
 157 353 157 353 192.5 374 c 128,-1,19
 228 395 228 395 273 395 c 256,20,21
 318 395 318 395 353.5 374 c 128,-1,22
 389 353 389 353 409.5 315.5 c 128,-1,23
 430 278 430 278 430 230 c 256,24,25
 430 182 430 182 409.5 145 c 128,-1,26
 389 108 389 108 353.5 86.5 c 128,-1,27
 318 65 318 65 273 65 c 256,28,29
 228 65 228 65 192.5 86.5 c 128,-1,30
 157 108 157 108 136.5 145 c 128,-1,31
 116 182 116 182 116 230 c 256,16,17
433 700 m 1,32,-1
 358 740 l 1,33,-1
 208 580 l 1,34,-1
 253 550 l 1,35,-1
 433 700 l 1,32,-1
EndSplineSet
EndChar

